<mxfile host="app.diagrams.net" modified="2024-05-31T09:38:42.670Z" agent="Mozilla/5.0 (X11; Linux x86_64; rv:109.0) Gecko/20100101 Firefox/115.0" etag="dkHMP6oS7_rYPcQ_s4B_" version="24.4.4" type="github">
  <diagram name="Page-1" id="KcFlrxXaEAL3pOZPCQHK">
    <mxGraphModel dx="1991" dy="795" grid="1" gridSize="10" guides="1" tooltips="1" connect="1" arrows="1" fold="1" page="1" pageScale="1" pageWidth="827" pageHeight="1169" math="1" shadow="0">
      <root>
        <mxCell id="0" />
        <mxCell id="1" parent="0" />
        <mxCell id="JwQT5Q0UZtHEcBX8XBhR-1" value="" style="shape=image;verticalLabelPosition=bottom;labelBackgroundColor=default;verticalAlign=top;aspect=fixed;imageAspect=0;image=data:image/png,iVBORw0KGgoAAAANSUhEUgAABFAAAAFyCAYAAADS2y6mAAAABHNCSVQICAgIfAhkiAAAIABJREFUeF7snQu85VP5/9eMMeQyUu5KU5T8kMYY1zBu06BcUsnENOmiFJVEvUqlK91/eFW/KCSE3MYlYdw1YcwgERGSKPwlym3G/Pf74XN65mvvc/Y5Z59z9j7ns+a153tbl2d91vqus57P91nPGrWwFoqDETACRsAIGAEjYASMgBEwAkbACBgBI2AEjEBDBEY3fOIHRsAIGAEjYASMgBEwAkbACBgBI2AEjIARMAKBgAkUdwQjYASMgBEwAkbACBgBI2AEjIARMAJGwAj0gIAJlB4A8mMjYASMgBEwAkbACBgBI2AEjIARMAJGwAiYQHEfMAJGwAgYASNgBIyAETACRsAIGAEjYASMQA8ImEDpASA/NgJGwAgYASNgBIyAETACRsAIGAEjYASMgAkU9wEjYASMgBEwAkbACBgBI2AEjIARMAJGwAj0gIAJlB4A8mMjYASMgBEwAkbACBgBI2AEjIARMAJGwAiYQHEfMAJGwAgYASNgBIyAETACRsAIGAEjYASMQA8ImEDpASA/NgJGwAgYASNgBIyAETACRsAIGAEjYASMgAkU9wEjYASMgBEwAkbACBgBI2AEjIARMAJGwAj0gIAJlB4A8mMjYASMgBEwAkbACBgBI2AEjIARMAJGwAiYQHEfMAJGwAgYASNgBIyAETACRsAIGAEjYASMQA8ImEDpASA/NgJGwAgYASNgBIyAETACRsAIGAEjYASMgAkU9wEjYASMgBEwAkbACBgBI2AEjIARMAJGwAj0gIAJlB4A8mMjYASMgBEwAkbACBgBI2AEjIARMAJGwAiYQHEfMAJGwAgYASNgBIyAETACRsAIGAEjYASMQA8ImEDpASA/NgJGwAgYASNgBIyAETACRsAIGAEjYASMgAkU9wEjYASMgBEwAkbACBgBI2AEjIARMAJGwAj0gIAJlB4A8mMjYASMgBEwAkbACBgBI2AEjIARMAJGwAiYQHEfMAJGwAgYASNgBIyAETACRsAIGAEjYASMQA8ImEDpASA/NgJGwAgYASNgBIyAETACRqCzEXj22We7KjB//vyyYMGCuOb41FNPdZ0/99xzXfGef/75rni6zz2FhQsXdp1z8vTTT5f8nHsqh/NcLtcql3MHI2AEOgOBUbUXf9E3vzPktpRGwAgYASNgBIyAETACRsAIGAEjYASMgBEYNARsgTJoULsgI2AEjIARMAJGwAgYASNgBIyAETACRqBTETCB0qktZ7mNgBEwAkbACBgBI2AEjIARMAJGwAgYgUFDwATKoEHtgoyAETACRsAIGAEjYASMgBEwAkbACBiBTkXABEqntpzlNgJGwAgYASNgBIyAETACRsAIGAEjYAQGDQETKIMGtQsyAkbACBgBI2AEjIARMAJGwAgYASNgBDoVARMondpyltsIGAEjYASMgBEwAkbACBgBI2AEjIARGDQETKAMGtQuyAgYASNgBIyAETACRsAIGAEjYASMwH8ReO655+LivPPOK9/85jfLwoULy/PPPx/H0047rZx88sldkZ999tmyYMGCuH7iiSfKxRdfXD72sY+VO+64I+4988wzXXH/85//dJ3Pnz8/zufNm1euuuqqrvvkpTSUSdCRc2RwWBQBEyjuEUbACBgBI2AEjIARMAJGwAgYASNgBIYAgcUXX7xAjGyxxRbl0UcfLccff3yBVHnwwQfLPffcU6ZOnVqefPLJuDd27Niy2GKLBemx7LLLlgsuuKA8/fTTcYQMWWKJJSIeYamlluoiQEaNGhXxll9++fLQQw/FOYG8SEPQvdGjR0celEE6h0URMIHiHmEEjIARMAJGwAgYASNgBIyAETACRmCIEIBEecUrXhHWJPfdd1+55ZZbyhe+8IXy+te/vrzsZS8ryyyzTCEORAoB0uPSSy8N0mPbbbctd999d3nqqafiGfHOPvvscsoppwQB8s9//rOcfvrp5cwzzwxCBWIGEgVrlxkzZpTjjjsu8oFwIWCtQh6UIWuXeOAQCJhAcUcwAkbACBgBI2AEjIARMAJGwAgYASMwBAhgfQLRwfGVr3xlWW211crnP//5ID523XXXsuSSS4ZUkBkQKViH8Js7d25561vfWnbYYYcyfvz4WAKkJTfbbbdd+etf/1pmz55dZs6cGZYsO+64Y7nrrruCLDnxxBMjj4985CNB3BC05GfMmDFdy3iwRnFYFAEj4h5hBIyAETACRsAIGAEjYASMgBEwAkZgCBBgWQ4Bq49x48aVrbbaqjz++ONlp512KpAZECdYhbDcBtKDeFzPmjUrltlAgLCc54Ybboh0xMeaZOWVVy7HHnts+fWvf10233zzIGm4D1GzySablH//+9+RftKkSUHSZN8nXsLTuCOYQGmMjZ8YASNgBIyAETACRsAIGAEjYASMgBEYUATkb4RlOCeddFLZcMMNy6233hpLbSBMZBUifynf+ta3YsnOCSecUPbdd99yxRVXlL/97W+xTAeihfhYp9x7771lrbXWKptttlmQM1ioPPLII2WVVVYpa665ZtfSHqxSsG4hyJeKfKMMaMU7MHMTKB3YaBbZCBgBI2AEjIARMAJGwAgYASNgBIYHArIukd+Sgw46KJbzcM1uO5Aa8kfCshrIkw984APlqKOOKj//+c/LEUccEb5QIEwgQ1iOc9FFF5XXvva15e9//3ss4yE9liUcIVH23HPP8v73v7/MmTMnfK5gmYIVisrRTkDDA+HW1cIESuuwdE5GwAgYASNgBIyAETACRsAIGAEjYASaRgDCAosRSJEHHnig7LPPPuHTBBLlsccei6U6BKxPCDiIJf706dMjHmGNNdYIh7AQIzfddFMs5bn//vvLgQceGLv7cM6SHTmLxQEtflCwcKFc7rOUCHKGvAlYq3gXnoBikWACpYqIr42AETACRsAIGAEjYASMgBEwAkbACAwCArI+ufbaa4MQecMb3hBEBv5K3vWudwUZoq2JsQqB6Jg8eXKQGyJVEBPCY5tttilXX311OJR93eteV9Zbb72y1157leWWW67cfPPNZdVVVw1/KWyNzLKhX/7ylwWHs+uuu27UFCsUBeTKflEGAYqOKGJUDeiFHSGphTQCRsAIGAEjYASMgBEwAkbACBgBIzCMEMAChK2KcQwLqbH00kuHRQiOXVHVIU8gTeRAFkKFOFiK6J7gUDqusTghHiQIhIziUgb+TWR1wjXlE5AhW6CQFiLF4b8ImEBxbzACRsAIGAEjYASMgBEwAkbACBgBIzBECGiXHW1nrJ15sAjhXKQH8QiQHCI7tNSGY5XwgDTR82ytIlLFy3R63+AmUHqPmVMYASNgBIyAETACRsAIGAEjYASMgBEwAiMMAftAGWEN7uoaASNgBIyAETACRsAIGAEjYASMgBEwAr1HwARK7zFzCiNgBIyAETACRsAIGAEjYASMgBEwAkZghCFgAmWENbirawSMgBEwAkbACBgBI2AEjIARMAJGwAj0HgETKL3HzCmMgBEwAkbACBgBI2AEjIARMAJGwAgYgRGGgAmUEdbgrq4RMAJGwAgYASNgBIyAETACRsAIGAEj0HsETKD0HjOnMAJGwAgYASNgBIyAETACRsAIGAEjYARGGAImUEZYg7u6RsAIGAEjYASMgBEwAkbACAwvBBYsWFC3QtxfuHBh17Pnnnuu3H///eXggw8u++yzT7nrrrvqpvPN1iKgNpg/f/4iGdMeDp2FgAmUzmovS2sEjIARMAJGwAgYASNgBIyAEehCAKV8scUW67p+5plniggV7o8aNSqecW/xxRcvr371q8uWW25Zxo0bVx544AEjOQgIiCihPZ599tnCNaQK7eHQWQiM6SxxLa0RMAJGwAgYASNgBIyAETACRsAICIExY8YUSJTnn38+iJQllliiCxzuoaiLYEFxR2lfc80144gy7zDwCAh/yCzaa/Ro2zEMPOoDU4JbbmBwda5GwAgYASNgBIyAETACRsAIGIEBRwCChN/YsWO7iJKnnnqqPP3004ss30GJlyK//PLLhxK/zDLLDLh8I70A2gHctYxH5Ank1n/+85+RDk/H1d8WKB3WZLGOcbGFZUxhnePo8miNbR475mWFoW/UMzUGeYmaid782jrHhbXj6FHl+dph4egxZbHnaxGerd0fVfuNfb48w7E8X4KfXlDj0SJe7b/nx9TM/F4AhSz+G2rsde3f6FhD+UL8BbUjDFxEI//ao2dr1oMYEI5+sSgeLqj9WO3Hb2niOhgBI2AEjIARMAJGwAgYASPQEgRk1ZB9nbzsZS9bJG8sVNAjZJ0CccI1SrzDwCIgzLH2gTzRsh3Ol1pqqYEt3Lm3HAETKC2HdGAzXGxBjZ54+rkaX7GgzB/zfFl2iZeVZ5+vnbOGbuyY8mSN0li81qpLvMih4JbouRp1sViN0VhyyVFlwcIxZczzo8sSL46VcCoLx75AegTJMvqFBwyyC2sD6phRo8uo0VAio+Lfv2vs6eIvcDBlMTgc2JMaizJ/9ILydE2mZWBsateQL/NrP0iXxWuRyDvKHON1fgPbQ5y7ETACRsAIGAEjYASMwEhCAOJEfk7y+UMPPVRuvvnmcuONN5all166rLvuumWTTTYpyy67bPg/gWSpOjUdSbgNVl1pm9NOO61cd9115fHHHy+rr756mTBhQpk8eXLBEsihsxAwgdJZ7VWzHqkJPHZxaJI4JYwNguOF0GWEVyMv4DawMFmiZq+iMIabRH8xifKI57Gg64VVXWPGLPJEyV+wICGPF4kTPajZuNSsYGqZvpA8Hi/Subj/4rOuzHxiBIyAETACRsAIGAEjYASMQL8QEHlCJnJOitXDKqusUlZaaaUyZcqUgmPZJZdcsqsciJPlllsuSBSHgUUAK5/rr7++bLTRRmXTTTcNJ76yQqEd8Ini0DkIWKXtnLaypEbACBgBI2AEjIARMAJGwAgYgZcgIOIEPyiQJ9qFh2UiECx5txeUdq5ZxoN/DoeBRYA2uPXWW8Pa5HWve11gj6VQdfekgZXCubcKgVG1xsOphYMRMAJGwAgYASNgBIyAETACRsAIDDMEwodiTeXD0gFLFAgWjrNnz47lPBMnThzwGuelRfgCyQ5tW1F4PUsO6i2nubkMSCNZ41TTCR/tVtQK2chr1113DVJr7bXXLquttlp5z3veE8dW49AKeZ1H9wjYAqV7fPzUCBgBI2AEjIARMAJGwAgYASPQsQigpFe3zYVEwQ/HYJAnEAdYwUAkQFjk3YK4198gckhEEflp5xtZ4mi3G+LmpUyQSjyTRYjIpbzEpr/yPfroo2X99dcvBx98cPn2t79dVlhhhXLhhRd2bTvd3/ydfnARsAXK4OLt0oyAETACRsAIGAEjYASMgBEwAkOCAIQFhAqEBpYg2iFmIIWR9Um2CIFIYatlLGBaEWQ5omUx2S/M3/72t3LMMceE9cfuu+8eDnQhWJAH57oXX3xxEBoPPPBAEB0bbLBBWIwQ8F9SJZ96Ky84Ix91Rb6HH364HHnkkWXPPfeM8ryVdG8RHdr49lgztPi7dCNgBIyAETACRsAIGAEjYASMwIAhgNIOCZC30IU8gDzJS2sGSgBICFnBUB4kDlYorSJPkBtCRGQQdZNj1scee6yccMIJ5bbbbivjx48P8oQgKxTkOe+888oWW2xRttlmm7LyyisHsURo1TKeq666KgirzTffPJz28mM3Hu6ZPAmoOyp4CU9HNZeFNQJGwAgYASNgBIyAETACRsAINI8AZALkCUQGAdJAVhXZUqP5HHsXE/IEEidbomi5jWTqXY4vjc2OQhAf1JWf8p01a1aQFZtttlkQF9yXw11hcd9994U/EsgV8oDcwTomO959aYnN34Eomjt3brnhhhsKhM6vf/3rkGedddbpcvbbfG6OOdQI2AJlqFvA5RsBI2AEjIARMAJGwAgYASNgBAYJAZELEBta+jLQRVOmrEIgMkSmtILA0TIbSCEtE+L8jjvuKHfeeWfZZ599wgLl7rvvXmRHItLxI80RRxwRFiprrLFGmTZtWhyffPLJlliIbLjhhuXvf/97mTNnTpAnSy21VDiRhfSBWHLoLARMoAxyez1b5pfFFixWo35HlcVq9j8LR/PS1tjSMrY8M3pUWaLmR2nh2JqjpZozo8eWKmWZUtt2bP4SpSwYW0ot2fwxtRe9rsyjy8Lav/m1+IRa1DjjWMuxYGpU28Ssls+LD2R7xB5M/MiUH4l4VkuISydu1Uouo0jHxYKnSlm8Jk9tUHqkFneZ2q0l5z9f/jNmflnquZpzqDGL1wamF7KpPYqsRmmfJ462eQIWByNgBIyAETACRsAIGAEjMCgIYHEBoaAdafLONIPhA4VKYtVB+Pe//x1+R+TcVaRKf4CAhNFuOiKHsPTArwkOW1/+8pdHufL9kgkX/JGstdZa5W1ve1ss4Tn77LPLSSedVD7zmc8EeSKLlP7IhyXLDjvsUHbZZZeXkDKtqH9/ZHPa3iNgdbb3mPUrxdgaVbLYYjXyBOqqhv6o2n9jFluyRliMLkvAPIwdVbtXe7jUuLJ8GVcWLzXHSmNqA06Ns+B2zQCvRmjU+xFlVFm6Fo1fLUclqaWhlBeIlWBUcquLMEEexrXFa78XWJc4pdhIyT1uLPmykJWbK3DJszGjy1Ikrg0Oi9fukxXRReJEBiqH+A5GwAgYASNgBIyAETACRsAIDAoCKPAiTbA40c43g2n9oLKwPnnooYfKV7/61fLDH/6wJfXHmgUiQr5eIEiuvfbaWDKz6qqrBhGi+rPjDmQSafittNJK5etf/3oQHJA6+ClhyQ9pCa1YxgMJQ70J+F6hXIJ8rcSFQ8cgYAKlY5rKghoBI2AEjIARMAJGwAgYASNgBF6KAE5UFSAQpKRzT+dyHAspQJwqgSJSIefz0pL6dkcycPzxj39c5s2bF8tkspx9yxnD+BdUWh3B4sEHHwyC4uSTT44lOZdcckn5wx/+0EWMYLUCBlipXH/99YGFrHHwfyK5WrHESNY31A+iR3nm+1pKJAwyLmrPRljVu8890vEjZLJG97hfL61k8LE+At7GuD4uvmsEjIARMAJGwAgYASNgBIyAEWh7BLR8BUGfeOKJrt1tsLbA30YOWkKT76FES6nHOiUr+a2ovJy7Usbpp59efve735X/+Z//Kcj3iU98ot9FSH7KwdKEHyQB1jZYfvzpT38ql112WSznYakOBNJFF11UJkyYEL5JLrjggrLxxhuHY9ezzjorltl89KMf7dotqN8C9pCB/LYQTWSJrGRo20y0dJeViBFwzsQP+XMtgknl9Cbv7sodac9sgTLSWtz1NQJGwAgYASNgBIyAETACRmDYIADhgZIMgaCtgSEPIE9keSALFfyPELCyQIHO5An35SdEFgytAAkCAOX9gQceKLfffnuQExAb2RdLf8oRcUA5mYDgmjq+/vWvD1xWWWWVsDIBK/AAtzXXXLNssskmQbIccsgh5W9/+1t5+9vfHuQL6QfDQiOXIV81IjyaJU/AT8RJJk/UpuQLNpBWHLnuTd79aZ/hltYWKMOtRV0fI2AEjIARMAJGwAgYASNgBEYMArJAQTFGeUYhx5JES1KqJEneXQaiQM8hFERqQDKQXyt8gFAevj++9rWvxXbB+BvBIuSf//xnWKD015GqHNLWI2SqdRcxBIEAVv/617+ijmAlCw0RDHQgcGwFBj11RhE/Ij/UlrlOIlqqdVLeVeKEPFQHEUeqt9Jk65eeZPTzFxCwBYp7ghEwAkbACBgBI2AEjIARMAJGoEMRgIDAogTlGOWaoxRmCAAp1jyDMDnhhBNiO937778/4kFuiGyRg1kU91YRBzhxPeecc8pf/vKXsALBsSvlYR2j8voDPbLKwoI6ki8/EQ7y9cI9sJCVDdfjxo0LaxgsMxTYwYcwWOQJZYnYQD7OM5kluXim5zrnWCVURBIpLlhTF5UBsUJ/EcHSVXGfNIWALVCagsmRjIARMAJGwAgYASNgBIyAETAC7YeAFP1Zs2aFf5E//vGPZd11142teOtZZeDrA/Jg/PjxZeLEiWW99dYLHyCQGwQt7WmVLxSWyxx33HHl8ssvj+Uz/JZffvlQ6D/84Q/Hzjf9CcgrUqSaT9XCAtJA9zjnRz2RBUwgjUQ4kRdEg3bQqebdqussI/IgiwIyqQ1FmuiZCCKuJTPpRajktoc4E6lG/Hr9olX1Ge75mEAZ7i3s+hkBI2AEjIARMAJGwAgYASMwbBGQwvyDH/wgiBOsKn7+85+XnXbaqUyZMqXLkgSiBcV55513Lvvss0/ZbrvtIi4WKFLAIQwgEbSspkpAtALE3//+9+W6666Lct/xjne8xNFtb8vIFhjV5TwiJFhGlP2u5DTZ0kT3IRwIsszprUy9jY+cmSBRW0GmUCdZk/QmX+qi9lP7Ui/6AO3LEqqXv/zlvcnScWsIjDEKRsAIGAEjYASMgBEwAkbACBgBI9CZCKAkoxBjycFOM+zEAwnCEh2OIgg4R1FnuQrLalZeeeWosJZ8cJS1hSw1WrWMh3KQAznXX3/9cvfdd5cVV1yxJY5Ms/WFLCuydQn4UF8RClrKotZWHbH2kONZESeZaBnI3gEeLHFi+dAtt9xSrrrqqvL//t//C4wef/zxsErRj/oil35cU18C9eeHVQ6kEbsu0aZgQN8Af9od8uo1r3lN+eIXv9hvHzQDiUs75m0LlHZsFctkBIyAETACRsAIGAEjYASMgBHoBQIoy+wigyUKzlEPOOCAWJpDkCUGcT74wQ+G9QEKNLvQ7L777nEOkVAlDKrXvRDHURMCtAukCNsnY3Vz3333lZtuuqk88sgjsZUypAZkCeQSWzxvv/325Ze//GX58pe/XPbdd994zrIndhOCCFluueXCeoh7ECyQLbQt7Q7RAnl2/vnnhyVSvQDpMn369PCH49A7BEyg9A4vxzYCRsAIGAEjYASMgBFoYwSqpvAogAR9pc+iy7xdR55lc375DeipujkNcaWsVs97ysfPOxcBrD60hbD6Q7VfDGTt6Of0O5TxG264oVx99dXl1a9+ddl///2DGJF8KOzshsNWvVisnHnmmaF077XXXqGMK+SdfbJPjoGsQ6O88/tJnEzq6FwWGFVZsSrhHpYXqpPKEWZYbNBWxOO8OoaQDsJB1i25/GobkxYy46677gqLEogTfNM8/PDD5aGHHir/+Mc/ylve8pYyY8aM2F75la98ZXnta1/bNT5JRtV5o402iuVOlJ3rynPalfbE5w2ECY6B58yZE2VDxJDX2muvXaZOnRp+bjjH+gg5IHNOOumkiO/QOwS8hKd3eDm2ETACRsAIGAEjYASMQJshIOVJPgSkGCGmlB4UKJQdnmGmT5DzSRQnFBJ+PJPjyPxFPitxnCtv8lM85FB5WXFrM7gszgAgAHmCcspyCfqa+gUOVFkuMRiBvscON/g4QRYUa/omSzlE7mC58NWvfjWu6cfbbLNNXONYdqmlluryjyEiokpIDEY9qmXoneI+uOaQl69IVt5zAnXXu652ID3EqPy+kLeW7ihf3mP5gKk+I289w4oHsoLlN1iU4NsFQoOw0korlQ022CDIke9///uBNw5+TznllPLDH/4wiBMsR2iPKrFDemS89NJL43jGGWdEXlihXHHFFeWee+4p8+bNi3KpMzJitbLWWmvFvTe/+c3l0EMPLXvssUfIQn1UJ8rD78mf/vSnIIWqBFAkcOgWARMo3cLjh0bACBgBI2AEjIARMALtjoB8IFSPIlakPKEsoXDkL8jUjXT6+oziiSJZ/epN2kyckK6e4sN98pLiVi2r3bG0fH1DAIuPK6+8stx5552xs82HPvShri2C+5Zj71JhUUA/f+tb3xoK/rve9a6y3377RZ/F/weKOITCb37zm+jf2267bSjVED70Y+KRTmSF3qXeSTFwsUWc1JMrkzzZkgRpII9Is/TSS3e995AnIg6qhCoY8BPpwHuM9cgf/vCH8te//jV8lNx+++3l1ltvDayw8tlwww3L+NqORltttVVYlbziFa8IIChX4wjHt73tbWH5o3GJdqB8ETKkgYDBmoR+dNZZZ0U5hx12WCzboQ677bZbedWrXlV22WWXKAvSZu7cueX4448PC6IjjjiibLnlll1jlcY+ypcs1F9kGX3CoXcImEDpHV6ObQSMgBEwAkbACBgBI9BmCKCooIjwJZbAtX4oKygMPJcSxj2UHxxFatcRESQoFjxHKZPSSbr8FVzVl+IjIkVxSI+yIlKmzeCyOC1GAGVcyyZQXi+44IJy8cUXh7I7GEHkBzJwDjnyq1/9Kqwf6JO8F8iDlQm+Tljqwf1NN900zrfYYotQynMfbzfir0qcIJ+ICOSGKIAMECGg3WYgjxTIg3eV9zJbl+k5FiVY7bDshuU3kCYcec/f8IY3xA8/JVh4sNsRRAly0P4QLZJJ4wf5alyibMpUW1EW+T/44INBzFxzzTXhlwZCCyuRSZMmRf8hzqc+9akybdq0sGIRsYNM1Bnihv72hS98IXZVEk46MvYJC7Uv8jL2VTEdjL46HMowgTIcWtF1MAJGwAgYASNgBIzACEZAS25k9ZEVGGDJxAlKg5RK4mvXEeLw01da0uUtTLMpP/mLoJFvCRQzKSYoaPmr+AhumhFRdRRjrAHWWWed8sADD5RHH300/IoMVhAZgjKONQKOSlHwsYKhT9PP6bP0YZaBoJzjwPTEE08M3xi77rprWDjkQP8mbTso2SINkE/vlt5jyZyXSRFf767GAkgEcMD/B1YdP/vZz2IrZ9qLZTE4YCXu6quvHkTJKqusEr5K8CUCqcoYQ9n1lmNlazORFCJTIDnuvffecuONN4ZvFHDHKoZy3/SmN0W/wYrl8MMPj7aBJEF20p199tlhdYIsjFMa50Tu0p7f/e53y0c/+tGIQ9BYBz6UA4FU3YoZeSF/kBUiO/NxAAAgAElEQVRcqs8X6Qi+eAkCJlBeAolvGAEjYASMgBEwAkbACHQSAnnrVSlYEBuXX355KEd84UVp4KvtTjvtVN75znfGNct1UIhIA3FCXJY47L333uFTAMVYxAnxOUfJkkULZvYoQltvvXXknU3/yRNlBkVI8nUSppa1eQToO1glYLnwk5/8JKwcUI4JVTKv+Vybjym/HPRrgogP5BIBQr+XdQZKNb5PFEQaIjeBfky6TCZ2RR6Ck0xIIlMVU5EjklkkAkQW5AU/nOtihcNyHIgmrnn/8RNy8MEHh+8Y/JLwnov8FKFKvrzDwlJkKXiCFfEYB/A/AklCeWxFTBmQHuQNaYX1D6QMJM1qq63WhSTtR1D7aNkN97TzjsYX7lFfZD/uuOPCSbC2o9YzWZfQznlJIthRN/KirEw0hQAOTSFgAqUpmBzJCBgBI2AEjIARMAJGoF0RkKKHggPJwZEvufgJ4IdpPFuCXnLJJYt8beXLsgJK0YUXXhhKD9t/4rRRpvnyl4ByhbLEDyWGNORN+ZJByhf5SvFqV9wsV2sQ4Es+yipK6eTJk2MXHJbGQKoMRqBc+qTIPhRjCESchYps4JkUdFkccA/ZZTXBkfgKIiIGow7dlZGJHMmq+NQBkgLLDpyrQmLho+TPf/5z1BdyATILp65YnUBOXHbZZfH7yle+UtZYY42GRfP+QjZQPoFr0mPFghNWHLmyxIaddcAUsuONb3xjOHPdZJNNwrqEJT8K5AOm5ElQvdQuiicrF1mdsBRLYxBpqPP3vve98slPfjK2MiZoCZPSalmhxrjczipHhJmufWwOARMozeHkWEbACBgBI2AEjIARMAJtioCUKhQcmdMjqsgOfApwH4WW5QooiflrO3GvvfbaMON/97vfHZYr7JAhZYQv1ygo22+/feTD1q8oJq973evCuoUvzqeeemoocOyAQhkoRfKhkkmVNoXQYvUDASnGKLoo5CjTKPRSevuRdVNJpYjTN7WzC+SJCBUyYSlI7vPZykHKNu+PrCxI0y79Vu83FiVYeUCO8M5BYuCjhMAyGMgL2gArD0gMOXPlOWMB7z158Y5Pnz490gkT7lP3THJgTQIZg8UK7zZWJZQLtmwBDclKWRAlLIGSnCKhZIWm8rkWvnnpTO4nagvGIixWkAcSRiQZGLCLz0EHHdRF2hGHsUp1oXxZw1GmSDTk0DnEC/1FfSfAcGgKARMoTcHkSEbACBgBI2AEjIARMALtjACKgRQH5MwKEyQHitenP/3pqAJKBYqDvvwS97rrrosdTFiOc8cdd8QWopj3o5Swq8ppp50WO2OgGPPFe8qUKeFvgjJPP/30OH7kIx8JpU5527dA73qMlhvktkS5lCUAuVWtJrhGWcyKIvgTqtYKvZOm+dgs/UKBxeqAgBUKfUKWBs3n1LeYuZ6QhQoiE+nfwlDYihyURYTiCEfii0AREalr8M3P6xFFUsw56n1TGo45jcqW3JAV/CAusO7AoofdaUgDaYlFCUfe1bXXXjucrmZyQu8+daWs/KMM6k5exAMjdtbhvWWMwIKF9593HVxxrgvxuuaaa8YOOuNrTluFHXlVZeeecOKcsvMxLmohjw3ZAoX8CNo1CBl0D8sXlu0ccMABYe1C/Qhqf/U3la8j8TjPsopQG6x3JAQdJsEEyjBpSFfDCBgBI2AEjIARMAIjFQFIDhQEKRAoRygNKCk4Ujz55JPDBwHLevjyKx8AxEOBYLkDFih8vSYdDhnPO++8MnXq1FBk8I2AOf0xxxwTEONrgiUbfBlm+1h2MWEbWxQxdkCRgqYvwyO1XZqtN5ij3GHpw04yEF60BX47+LqvoHZmiRWkBXEhLdhGlh1IpJRKKRysr+v0DbYwRhHGd87MmTPDOoE6IXN1iUazuLQqHv0cokCKtPKVU1KupaRnYoT7smLhvhR24ko551z10/uUyQyd692EmDzppJPCUov2nT17dmzFy1KY++67L8hH8IS4wCkv/kLw14Jlj3a9UbuKnFB9JB/3MzGgOmBRol12ICMoE7KENsJihfKw+mAnJfodJAVB/U4khCw9qFNVBsnSmyNyi+QRTsKV+/hXgcBhHMPihfGIgJUKY1pPQW1FPMmbLfV6Su/niyJgAsU9wggYASNgBIyAETACRqCjEah+6c8KKzuSYNmAgp0tTlRhlIv//d//DcXi2GOPLbNmzYrlOuSJoodVCene8Y53xK4l5LPjjjvGc8zpUWJQ8vhKjd8LlPoPfOADobCSDmWrKl9Hgz0AwoM9yyNQoCEeZsyYEdjj0BfFFkUfDKX0QVZBWuEDAoWX9oI8AeusPKNEDwb+tP39998f7Y+fDXbA2WuvvYJkyMrrAEDXVJbCTbJkAiITJ2DHtRR64pMWAoJQzUeFk0a/XF/IStqOd4JlN+x+w/K32267Le6BFe3IrjcTJkwI0gKHq5n8QFbJRFvyjJ+IAO4hL7KpbIgS8mf5DeQD51iW0E+wXIHk4p3dd999Y9kPZKjKVFlcc87YAYmqQLmZ5CBOf9tYuHNUvchXcoHh9ddfH/JDJjHmQNJCnjRDEirP3F7ZiqapTuRIXQiYQHFnMAJGwAgYASNgBIyAEehoBFDwUBIgLLKyB8GBj4RNN900lA19gdcXeeJjfYJiwrILlF78G7BsAD8o+DuQAveLX/wilDzu8RV9q622ivIolzw23njjsFz58Y9/HF+JUaq9RWhz3QoMaSeWYuywww6RaL/99gsihR+KJO2AskzbYTWA4g15wnV1OQrpuU/7DAZ5hT+cPffcM+TOu57kfhkPhzDQFyEFwIP+DikgS6lMONIWIhPAG0VexImIlUwaEIf0WgZDO0JYsCSG9w8LMNppfG3py9ve9rawPDnqqKNiuRzbCEu5p70gIlR2ljfDpveReuDvhb4AecV7CUFD+eRJeRBZLPHBSollP3LomkkHWc2of1EXkSfkA07UOxNEIkx4Lvn707TkQf4EjspX/f53v/tdEEBYxBHob70pV3GVN3novdCYGBk7NIWACZSmYHIkI2AEjIARMAJGwAgYgXZFIJujcy5lh+U1+CxBgUPBQqkiEAfFAaWJpSAoSWwHqh0r2LHj/e9/fzhqvOaaa+JrNXlyTXysJdZbb71QHLnPkhIUNRxZco2/BgJWEVlpaVf8hlou2gLlEMVVBASWQCzNQYmEoBIBhjIIriynYtmMlnhstNFG0R4irTjX0o3BqJ8Ue/qQrF5EBgxG+d2VAb7qi8SDOJETWXDKVjpZoZaSTd24T6AteJfwEYLPECw8sPSgfVhigxUJVkMsZcOyRMtgJB9lYXmCPFhS8O6Rv0gcyaLlWDzDooTyIEogEkSUIB+kG2QaS37wicLSLy1xoUzlh/z0LfLN7aJ+wlEYCQOOpM/ji8YW8u4NiaH6NzqSbzVQLmQuONNmvA8iBombz6tpq9fV/MEVIoj3xdusV9Hq/toESvf4+KkRMAJGwAgYASNgBIxAByCAooPCg1KFYoOCAJGB4sH2xCjbKHf4UuArOPGIgyKJ8o3iyzXKFUodigWm/iiHKDDssoGyhtk/ViYoc1xjdYICx3ITlgthycJuPQomUHruPFoqQkzOsSLAgoG2ggTJ1kNsG80yDHBGST/llFPKzTff3KU40weEOQpoJgd6lqRvMdRvSE35Uqy1tKiVinZfJBQhABaQCOApqx1kF1GCvGoLrEfwEYIjV0gLESbEp11YasWP3WiwzEIJJx+RE7nfi8jCGgVCjHhaGiMih3rxvvKuQdBwpEy2FWcJC2QMpCVk6GabbRbXIkqoF+VmSwvy45qy1AdEkCIb5ANHiJNMkJBOZIOwyNYwuS2Jx6+/S3hymTl/zvEHhIPrb37zm11Eh+QR6dRMnyAv1Ytz8EdujiZQmkHwv3FG1YB8Kd3Vuzwc2wgYASNgBIyAETACRsAIDBkCUhCrAqAcoGRIKUFhQGFDkZJS193XZvJDeZPFSlZYmEKTh76Uq2wp0JQphbEql68XRUBf0lF0WQry85//PBTfD3/4w6Hog2W2Jsm4Pvzww+Wwww4r73nPe8ICQYqiiAHaKSulA4W9tg8mf+qBktvbpRYDJRv5yoonlwFGyI2VFvjiYJVzHKyCGxZVOFbFLwnnEIqQFqSjjrwPPZEH5Kt3UG2ILJQFQUJZlAlRw3MsuVhuA2EJUcMyHJbVEcCUthThgRxcV2XI6q36g/pAJruqWOS8iEc+mZghPu83oVpmzqsv5/Xkor70f8rinICMIqnyO9FdmXoH8jgJAbz33nuHY1qsdxyaR8AWKM1j5ZhGwAgYASNgBIyAETACbYgACkZWlKX86ItzVk50TwpVViq0/IdnSqOvsygtKI1SYEgHeZIJE33pVlr5MGiXpRxt2HQhkogpyJCf/vSnobDjU0TKK22rtrnkkktCocT6hKN8Z2ANBP6KCwHTrILZX1yQQeWTF2XLqkNLkvpbRn/Sn3POOYXftGnTyrhx48pvf/vbMmfOnFgaQ1/Fogeygh9OkyFK1HfVNvn9ol3Up0lP4Dr7MSE+dceCZN68eUGQsOMOBBntwtIrlqRAzOAzCGeuVQzJl3zUjnrfhIUIDsWTjHq3FS9fS27e25w+388kBXGUP8dMnPCM+qutVV5fjjlfjUkiZ/EdQxmqn8a3quVMT+VSL+UNkcy1iJme0vr5fxEwgeLeYASMgBEwAkbACBgBI9DxCNRTklSpegSGFEMpP1JglE+9NFlR0vOs+Oh5Tlsvn8EGW4pX3rZWVh96NtgyVcvDl8aBBx5YJk6c2LUziuLQJnwp32233eKLPDuSoGyjdOPsF0Uc3xe0qRR6yJRMiFXL6811xohzfmp3FFK1O/eRQUQaZfBMSmsV60ze5fOqbDl9VWHPeUI0sMSJHW9YBoWVB75kIErwG4IzUrbgxsExTpAhL1ZeeeWu4iiHwBHMc110j3rnMrlPPNrvnnvuCZ8dOHaFNIEsgYhh5xjKYdek8TU/RFixZPzqvUMSCjkyUdAoLvHyGFDFsHqd88nPqveVZ728udcK8qTaL5ABXPmxvHDKlCmBueJlsqcqb7WeXCOnSF3OlQ/9FCKlp5D7M+cE6s05stTDJueZ09NHkTnjln25qA8ib/Vd0ntA3lVyND/L5RE3P6teC5csb0/nJlB6QsjPjYARMAJGwAgYASNgBIxAByOAwnTqqafGrij4C1l//fVjyQtKbU/Kz2BUm6/gWCfgVBRyhOUFF1xwQVgmsFsLShp+aVj6MWnSpLB0uPjii6NOWKvg00bLPFQfKZlVwqEv9ZECKrJAZUipJU/uiZTjnLjIiRWBSB3uZwVSym9WoIkrhZI6cK66kB7Fkzhs+cxuN7QpPkrmzp1b/vWvf8Uz2hX/JPgKOeSQQ2JL6N///vfhqHennXYK2QiUjzyUATGlcqokBXGkKEPQ4J8GcgaihiU4OFWG0IKQwc8Qy2522WWX8FcCgYKSTnpkz9hx3gwB0Jc26/Q0YKMfVnCc009aEcgH6yD6ivpCd/nSbiJfRXwondqzp/Tq9yLD6KtYQ4ko4Zj7g2QTGaIjYwXvlPLRu6J+lEliZCKdZCQu+cr/T5WE6a4O+Zl9oDSLlOMZASNgBIyAETACRsAIGIEORADlGkeU7I7CF+0zzzwzLAXYVQhlpBklaKCrnZ2JUlZWblCaUJBEUMgHipQlfWEmHnGIq3uZnOhrHfIXbBQyKXOZ2MjKqOSkPO5nMod7ukahI2+UUt3LMmLBAUkBYYGFB6QFR+rJUrTxNWsOCAt2jcLBKiQGS2Oov3a4qdYZ2SUDZedywZO+gIIpJ7I4MWX5jZzIgifl4jiW/gSxhc8SjiJ3ch2r1gA8ywROVb6ReK0+mvuqyDmc9B566KFl9913X8TyB5x607erZAHWSLz/3//+92ObZwURFLrmXYPUZPyAtIMc23HHHaPt67VtvfZDTvU10nBeb/lRPRyqZRCHd0pETk6D7PRdnvMOVMe1/B5Lzt5gqDS2QKnXyr5nBIyAETACRsAIGAEjYASGCQJYCWAJgJNVFJd3vetd4etCX2LboZrZEgGlKX9hli8IlEARJMjMl3kUIBEm3FM+sv6oKlF9qauUWfJCcZPyRl4oZfpynr+gi8yBoFCcTFbIqoP6YNUBOYJFCYQFS2BYgsOzFVdcMSxJIElYerPmmmuGpQd5gRNl8suYIReEhr7O6+s/coOPlEbS4XeG5T2QJ7fddltYKEGe8Gy11VYLp64QJtr5Bueu1Ifycn2Ec5UIokxZoPCM8iWDiZRFe2NVmVd/AnOCMFaq6vWiuS16pfcJzPlhgUIfZXkXbal2yU6x6RM4+GU7eEiWD33oQ7GNOz8czzY7fqgeEBv44sFCCusy7iMLFkz0QZzaqp7Z4oU07HL2qU99KnZf0vsn6ywRJ8hDXejD1AdSkTI0FuR3RIQS9zLh2R2GemYCpRmUHMcIGAEjYASMgBEwAkbACHQoAizdQMmQEsUXZZbxVK0+hrJ6yCarCZnzc+Q+Sg5Kk+TPiht10BIHKX9VRbS/9RIpoC/YyCNyArm0Aw/KmmSXLMRFHpQ0LEpEjkCUsE0w16SjPfjh0JVtsfnS/4pXvGIR5ZZ8skVLJnJEHBFHmFCmLArkmwRrEpZIUTbWLMTHeSzlantolFRt6009quVyXbUgyHE4Bx/qhQyNFO3eEAD9bcNOTA8+/ESg9LUO6rfqO+QJgSBrDfoRzwh61zin7SH1IO6wXEMO+sjMmTNjyRjWMcq7O9nUBymXsq699togUPS+sxyPPkheyEHfUf8jX/z4cP/cc88NqxnOyUfEh/oX6XiGnDhKxjKKd1fvCUf6pvolcXtLniCPCZTuWtvPjIARMAJGwAgYASNgBIxAhyOAci0SAMuGa665JnZaaaTYDnZ1ReRgNUGQ0o7MKFWSHUVMChHnKELaJSkr41nBz4RDX+sl+URScFS5yMHSGQJf6o8++ujwL7PHHnuUM844I6xLWP4AWcFXdRRQvozzBR+LIBzhUm+eUVdhQH7Ug58CdZQMek4afiiCKMXIevvtt8fSH4gdlmpggUQcLEpQhlFWsSihD+A7RkqwFFjykqJJOZQL7sJY7UEcfclXHMWvR7CQv54TP7dZVyVH4IlwqIcHGC+//PINUcnt1CiS+gz5Kz5+c+i79M8cRE5wj3QQbvQREYIsGaP9WdrTbFBa8sOnEf54fvGLX4TFya9+9asgUliixPM8ViEL7w79ZssttwxrGPq33hGIFYhBfCCRDkfTWGetssoqQVay9A0/Sffee2+k/+AHPxgi633O71azdSGeCZTeoOW4RsAIGAEjYASMgBEwAkagAxFAWUAZOvHEE0PJYEebql+EoaqWvoTzBRnFG2WoulwH2VDEiKNzFKys/KMg6lp1kbLfn7qJaOLrPGVKIWT5y9133x1f6Vk2wBdy7X7zrW99KxTEZZddtuyzzz5hUcKXcdpBSirnKHPITJ5SdKXYUR++mqtesnqhLo888kj4JUERhiCBFIMwIS1LJCgPwmT//fcPsoZz5Oen+lA2ISvY4CUlO2Mn8oP4PJdcyM0zKf861zV1JX+uq21BPvxUfn/aaDimVT9g+Z3apK/1zJYl5MH20izjYblWDrLIEPFIH99+++27SAvainu0syxLmpEJgpB+B/G46aabBtmIJQrWcFpayDtPv6IMbf8NScKW5cRBZkjJ6dOnRxwspSBYeAcuuuiiSIvzZHy1kNfZZ58d79V+++0X74sc14rck2VKM/LnOCZQeouY4xsBI2AEjIARMAJGwAgYgQ5CAGWIr7w/+clPYrtfnECKBGiXaqBgS7HPipkURxRAFHBZWohoQf6shGclvao09rWuKF8QJWzTi7KGvxKW3qCAYc2B0sb2wGzXe8ABB5SDDz64vO9971tE6UXGvOyHNuGeLFmkLKOYck49iMPOQ/iHQNGFMJEjWZ6Nr/kmWWeddYIwwdEoDmTZIpi0IpKEn/IHYy0r4lwyKZ6ID2GlfDKuyos4eq5z0vNTfkqnNDn/all9bZ/hkq4eHuBGXxee1bo2ul+Np7xluQXph6XSnDlzFsk7k1m0LdYnIh+0VA4LD0idZokv+ippyY++xxK1G2+8sVx66aXRVyBIOFJP4hJYwsNSM/o7llK89/gBQl4svLiGFKTPf/e73410+HbCZxDvJiQPVlZsc461DD5c2PVHxKzwkTVKFa/urk2gdIeOnxkBI2AEjIARMAJGwAiMCASktMt5IZVGuURJZnKur5VMwFEKpRjmr6ZSJqUEZKVzKEFEmcB8HSViww037HZJQCvkrKcsK18wIkj5kgKYFXHIHRQt4igeWKJkgS2KVrbGID/i8zxjTpvl/IknRVL3s9KKooVDS75gszQAqxJ8lVAmS2/44g1hwnIAljJo62TylTUPiimWJ8pf9ylHfYk6SU7VAysSlhpgJcTSA0gT7pHP+BpRwo/yJ0+eHDJAmhCQrV4/E26qn8onTf7yLouDjENk/GKopyTnuPl5Pq/mV71W/o3uZxlGwrn6gd4P1Zn2py9iRZRDtf93hxF9RP1ExCnLyPARwpIu2oAfZfHL/ZMlZpB3vHMQbjfccEMsN6Pf8MvvbSMZ1D/1PqvP8b5B+OU+oLjk+7Of/SysTo477rhy4YUXhly8E2eddVaZNm1aWMBgSXf88ccHiTllypSudwEZcbjMEiUc0PJeQnJCwhDAAwxF2jaSvd59Eyj1UPE9I2AEjIARMAJGwAgYgRGDAJNpFAuWXxx11FHx9fLAAw8sEydODIVCCqeU+vPPP79cUduJgkm5SIntttuuy6pDSkAj5XawgcUMnjrgQwBLCsgAzOg33njjRUiAvsqFsiMljDy6U4pzPOJCMIA9mEmBy5iLiFCexEOhQ/HKZEwmBfSVHaVP6aQYco0pv6xI+LoOUQIuPIMYQRmDpAAfFE3kk9k/MtdrV5XPTiXIiGwsQ5B/E329pw9hyYITVywAIEzwCcEXd76ms+sNRAnKIDKoniInhJHaqp4sfW1HpxsaBGjTHDIRRb9jaRYECn0KpZ/+KBKiHsFVrQX9Ue8XzygPB8UQgPhX0TvGs5wf9+l/LJO5+uqrw8IKqxBkYWysxq+Wq+tMsoig5j3BH8oFF1zQRWLIYow+TRqOkB74OGH5G36EGMOwXtlrr70Chx/96EfxvmCpddlll4VceueRleVHvFdY32H5AoGi5UEapxvJ3ei+CZRGyPi+ETACRsAIGAEjYASMwIhAgIk7k2m+6vOFH9Ny7hGYyKOQoyBLiUaZYDL+yU9+srzmNa8JPxaymmDyrok5RykFQwnke9/73sJPBBAyilAYSLmk7FOusFPZUnL0RVxKFgqciBHhLxxpBwgJlLrqF3jKoDzaSXmyRSvm/FiRoHyxTS9ECYqZlt6wpAmrnAkTJoSJP3nQnhAeOkd2KXQormpfySmlliPp5GsBcmjevHlxjWUL/h4gbFh6QHmQM1izfPvb3w58kJ16CAswQlZhxn1+XEvRzcTOQLal8x44BGhPEXD0OQJH9TkcohKqZEn1HehJQvUj4kFIQGaw5EVl6p1UPtzH9wh9FmfEbCcM+QrxIXmbkSGTf7wfpOEdhuzIDnLV/4mPTxPqj/8S7kN6aEvtK6+8ssyePTuIEaxYPv7xj4fFFqQkFjN6X9ndh/d9fM16i7x4DwmQlQrNyN8V+cUTEyhVRHxtBIyAETACRsAIGAEjMKIQkMLNRB2FGgUanyEElGVtqYlyy4QbpRwCBfKEa5mBS4EnnSbmUjTaAVCUCMkj5ayvX2FzfaqKXbWuUvIpE4yyQsU9ZMhygDNEBQodPy2DURx9QaYcSBUsUth1hi/OkCVYlHAN2QJRgg8FvjzPmDGjrLXWWl1m/EpP+9NetDnn8kvCcxEpyKGv/tQBGZGHuiAf27pSPsoufhewLMGBLGQJfQrLFr6m02dyPqqf2qW7/pJxkgwcTaJUe1xnXdOGIi9EZkCcEXg/IAJlaaS+wzPF7U1t9U6RD/2GX5U4yfnxbM8991ykCGTifaE/ZnkayUF8gt57pcHSS2SHZFD/Jw7+fXSdt9Vm2RHEJJYoECZYoEDssKMPy+8oh3eOeJDdvJtsEc7WyQTGDMqlDn15d0ygNGpp3zcCRsAIGAEjYASMgBEYMQigjKAQrLrqqotYMaAo86UWZRhFgIk+SvYxxxxT+BLKV1BM2zfaaKNQJuRLhXMp/kMNYvbDgSwid6hzK2WUQidlSMoa5aHU6JfxECkCaYWyxC8rNaRhydTMmTNjNxvIKpa+sIMHviEgU8gDJQpliq/NfDXHugOli/arR0rQpqQTeUJ7SbGjHsiM/NyTogU5AnmGkoZvBr54Y1nCcgj6B30Awuazn/1sKHCUXyU46EPIRN6qO/WtKsMim8AKDKSEkkb4NqO8DnXfc/k9IyASUW3NUX2WtsbKQn2Ga/oKx94o/0ojaURI4AxW/akqqQgP7mfSkvsaQ6pp6l0Tn/KzDJyzQxRBfZ149G/GgqlTp3Y90zjCM3CYUSNCVXfSaqncu9/97i6ye/PNN498GAuIk+tCxr3FL9fLBEq9VvY9I2AEjIARMAJGwAgYgRGFgBRmFAsUUybqBCbtIk+YhOOUkK+dk2tLfdg94pRTTgmLBxRm+avICk4jBX4wwUXZQA4p3HzN5rw/SkRVfilI3K8qZFVFv6pMoeDIigdyAl80+KHhyzHb82JVgnUH5+xuA/44kcRJJOcEfRGXokR9yRdFVKQW8aSsycpE7ZzrgyUKPlLwcQNRwjIAiBMUNb6KQ9SwEwmOebFuwdJFAUKKMpFDmMsni+5LRuGQr3UuckX5VtNkeX3e2Qjk90XnGkOwruJdgOiTVUomA5odX0ibiUSIE0Luu41QzOSJ4qh/1iMnGuWTCRSRknpHlUZjAUdCo7pSH9413mPVhbFbshlsC3AAACAASURBVJI/YwplkoeWYSJ3Jiz1vJHM9e6bQKmHiu8ZASNgBIyAETACRsAIjCgE9EVTpvJSsJnI68sncVCcv/jFL3ZN2t/+9reXww47LJR5vnZqyYcUm6oiPFSgijhAQUOhQMEgoFRVCY/eytiIPOG+FDeUHcoRccOyBLblhRyBMMEcny2CsebAL8OrX/3qssMOO5TDDz+8nH322eUTn/hE+eEPf1hw1qs6UCd9Cc91kFJEPTnXEi1k4ae2FjlCuezugbNMZEFGLIvYpYT2njRpUhA1nBOy0opiJiseyspWAVwTVL6uhS8yS+58znPF5X49JZX7wj0rmcrbx85BILef2lt9AOKQJWH0f8YSkSi9rZ3eQ/UljW95uVqjPCEmMqGhsYT4zfY99XOVr3GR+xpzeYbVCOWp/rxfGjMYq+jz3IMcQXYsyTgnD54prUhwpSG/XKby513ujSUP6UygRPM4GAEjYASMgBEwAkbACIxkBDSxZzLO7hRM0jWxl2LM8ZJLLgmlAesTEREcl1tuuVCsFZeJeyuXx/SnbahbVhLyOc+k3PS1jKryTz7gQP3BBAeUfEnHogNHrvfWtuslDaQExBPLXvApwzIcsCdt/sK96667xnIdyBPdF3EixS5/XSe9FDvaEOeRlI0lCc5ksSbhGiWLsrEo4fjRj340LEqQQW1PXdQ3hE8uC3KE8giydKFukk9kS3c4V60IlJ/aJbeP6gsO/W031cfHoUeANld7ZlICguC8887r6lvql/Q13uPcF7urhfJUGaTlnsi97tJqHKPv6Zy0+R3pLr3i6b2gbJFBHPO7LrKGchiLSaNfHqMpTxYonAsHESlc81PZqr/eNfCujovd1SE/M4HSLFKOZwSMgBEwAkbACBiBEYqAFDqqX09py5P/PEHNimy7Q6c6cmTJTlZiqPPJJ59cdtttt5jUs5sKhAmKN1+H2cWFJTwo5EzYCfqymbFphEGOkxWARvHr3ZdCIGVEcdQGkovnKA7c5zzXU8o5RynomQBQXJEDlIESQ71FkGDBAUnB1rwsx0FZYmkTDh3BCN8E4MbuG40UMLUF+SML+X/kIx9ZpNrcUx2En2SgXLYKhijhCz4BggRHruNrPlK22mqrIG6Qq1HIOGaM6sXXO6FlSMRBPoIUu+7yqCrB1XcsX1fbtxq3nny+1/4IdNeOWGJdUds2nd1vRH42Q3zkWqs/qhz552nGAkVl0ocz+Vrti41QzvG6S5/fFb1L+b2pvkM5L5VdlUnX1fcRHKpxG8lfvW8CpYqIr42AETACRsAIGAEjYAQWQYDJJkqqFFtNwlGu+TER5Ysoa9GZ5Eqh7U4paCeIqYNIA87ZsYFlJJnMwFfAE088Ecs5IBDYIvPUU08Np7M777xzWC0QVGdNzsmjqiBX6y68uJ8n9dyvphf5oTwoD8ylEJBGRAh5ZXl4JkKE9NQD2fAbgMKisrOiwnOcWMrPgLYGhpiApMCSQyQFpAg7a4AfRAk70LAURwG5qI+UGWGe609cZOaZSKgq0YI1CtYklM05PmhYjkN9sGrBioTdbibX/NSw9SnKYj1li7KqeXcJ6xMj0AYI8D7Rp7HigkBpVdD70Oi9aFU5wzGfUbUB6wWbs+FYO9fJCBgBI2AEjIARMAJGoCUIMGXkl5VrrA/44QOE8KEPfSiU104O1BFFHCVeij7kEPXWtQgFzOv5gouyz3Ot1+dc96rkQCNshC/lVokn8qp3X3lJjnp5Q44go/KUXMStOockH+JBpmDNwS4z+CjBqSr+QbDo4BmkCNsBs+QGAgmLEllzQEhQhrCCBCFPkTySkTgEYUX9IXA4ijQiDn5Sbr311rBmYfkP8hBe9apXlXXXXTesWvBXMr5mWYIMwlt50T/z13ryVFmSxUcj0K4IQES+5z3vie2xp0yZUjbbbLOWiMo7jWULSxKbcSTbkkKHSSa2QBkmDelqGAEjYASMgBEwAkZgIBGop8CjpKIo45vi3HPPDaUb5VcKc7PkwUDK3Zu8pbxXv8pKAddyFZFIchgrEoCy9AwShnRVMqRZeTJ25Mm1SAflwT1+2XGtiAtkJZ2cKqpdvvrVrwbhAPGA3xEsSrDggDyBoOCcdkRuLEiw4FhppZVi9xsIC5y85vJF7siyhT6RrWjqWd9kqw+cRoKT/JRg1YKPFHbgwbkrlj1sE40DV+TV0hvhXCVEMkFEHapLHdRWyKv2Ul7Nto3jGYHBQIAxhMC7iuUbVm+tIlBsgdL3FjSB0nfsnNIIGAEjYASMgBEwAiMCgUZEiJRlfEtIkc7KM+DkJSPtDFa2nBBRIUsF1UFKR/Z1AQEgCw8p643walR/YZcVeZE5kABgWiVi8jUyIBPkidJVSSC25Z01a1Y54ogjgoRAZjm+xZqEZQLanhnLEogXMKFOmZSAmKFsyhJRxlFkDucofqRBBq6FJ/WDnMGSRX5KWIbD1tAQOVizTJw4Maxbpk6dGj5LMtYZv5wn91Wm2gDZaTeuOSdQvmQ2adKoN/p+uyDAu0ZgaRzECQTK7NmzW0aikLcI13apcyfIYQKlE1rJMhoBI2AEjIARMAJGYAgRqCrvKK8ozFJI8Y/BT6bgKPSyTqlngTCEVWlYdLacQPFGsZCSLVKIJTqcUyfOwUVOGDNGYCMCI1tbNCq8SpzUU/LJs0oakB/3RTJQFtYbWG7gE+T222+PZTj8VlhhhbhP20yfPj0ICixMuC+ChCN5iIhRnSQfJIWIkxwXOTJxRhyWB82ZMyfKhiDBqSzWJcRj+Q2+HSBL2M0IOXDySpBflnp9jue6z1Hn2UdLJsIkU5YtCqkFcCNUy3nxsQ9GYMgRyAQKwnz84x8vRx99dCyd684BcjOCK+9m4jrOogiYQHGPMAJGwAgYASNgBIyAEeg1AlnxHDduXJANKLIQC9lqQFu79rqAQU5QJTqkYIsoQhysGWRWL8uGTD6Aia4lfj3lvVHVKAvyhjQiLVhaAyEBaaO88IcAGfGnP/2pPPjgg0FO4MiVZTAQIjhQ5YczV3YO4jhv3rzwJcISnUMOOaRrW1RkUVnITxnIoXOeZwsXFC/IIdKABbJAkjz88MMFKxd+7MJDPCxdIElkWYJ/HPkpoa9Qlqx3tKSGumaCTu2SSSbhpzaSg1u1jb6q1yNJ6t1r1B6+bwSGEoEqgcK7gyPZY445pnzpS1/ql2gmUPoOnwmUvmPnlEbACBgBI2AEjIARGDEIZMWzajHBtr8owtyX8soEHaW/6oOiXQFTnahndfkLMovYoH6ZROBZJlkyYdLs8iXFg7QQfpAIkBJYjbDjDJYlECBsE4ysECQ4b8Wa401velMsd9GON7lcziEhJkyYUNZbb72yzz77RBOQRyaNRJpULTKQA0LskUceCYeuOHHlB2kCaUM++CeBHEEG/OHwhRzfJaRVEL4imOgzBGQgyFIpY8l94SlSJeMrWdUewo505KO8VLcoqBZyHavEmeL4aASGGgHIZwJLeBRatZTHBErfW9cESt+xc0ojYASMgBEwAkZghCAgBU3VzUqXdkBRHJ6hLKKkacmD4meljryq+bYznFXFWrLqvhRi6q56UX8pzgNdNxRsKee5zCqJUW0D5FI6zlUf3cvXKPlqX+Jynu8pLmUoPec5X9JkLJGVHTEgJPAHwtIbjvgIIR5OWzfeeOOw4phc25YXqw5Z/OTyqKfKlEw8h3AQSZEJhurSKuQk3uOPPx7WLZAlyIE1Cc5lKZOlNuNru93gowRZOM9OZaOiKdRr++q9TIhknJrJS3HqEV7UXfhkvPM56avlV8v1tREYKgSw/KoXWrGUR+RMvfx9r3sETKB0j4+fGgEjYASMgBEwAkYgLBJkUcFRS1RQfOX3A4U0K90iT+TTARiryls9xa8T4UZ5xwKFSTlKeLaiGIz6yDqkSgpQdiYTpFTndsjkSbZUQNEXEUJ8XUvhxq+HSKNsJaF2rmeJggNVrEkgJbDeuOWWW4KoIH+sSbAkgZxg61J23sCyg2fIQfnIyjl5c1QfI44w13KbXL76pvoiz3DaCjGCHFi5IAfECfli3fLmN785lt9stdVW4bSSNPwkT8ZqMNrYZRiBkYYA5DyBZXLytcQ1S3kOOOCA8IfCsS/+UBqRMyMN477U1wRKX1BzGiNgBIyAETACRmDEISAlOium2iI2K+EAw7WIBCm2KK+klSIM2YBim60COhVU6oHyj8JPEEGRiYqBrFsmToS9iAYp/o3Kpz1ELEheWWzktNV4LFEhoIjwTH5BuAc5gfUGTlwhS1h28+c//zm2CoYoYTtgtgb+4Ac/GP5JIOF4hszyCZLlRa5sSQOJh2z0HZEo8jUDuaf+yBHlCx8pTzzxRMiEDxSW4JCeXXdYdoNlySabbFLWWWed8KGiZT/aRUdfq3O7DlbbNmo33zcCwx0BHDETeId5R3PIJAp+UXq7vbHImeGO4UDUzwTKQKDqPI2AETACRsAIGIFhhQCKqBRGlNZMkMjJJ0onirR+KLJSbgED5ViBOPqiOFy+5G+66abh7wTFXAr8YJJD4CgsG5WrODrSHrSF4mfiRG1FGxLnO9/5Tjn00EOjbuoLWG7gxBX/JNlHCc/H15a3QJSsvfbaZYsttohdZ0S6qF8gB+QE1/kLc+43KFH0JVmREF9xs7UP1lBz586NpT8PPfRQWLcgE23Csh/ILQgTvlhzjfWMcKjiRX1FSlHf7MeGNNzjSKCumVTs6uQ+MQJGoF8I8E4TIFDqBZEoOJVli2OW9jRrjSJypl6+vtc9AiZQusfHT42AETACRsAIGAEj0LV8gyUYN954Y7nppptiBxQcZ77zne8M553ZQgAF8/TTTy/XXHNNWCPwlZ+lEFtvvXXkxeQVBZUv/CjB2YKiE+FG4Zc1jkgI6jFYVgoiTqrl0Q5S9nkGztU4yIn8sg7KzyHH+J177rnljDPOiPYiP3a0wVcI6fBNgoNWnLnSviy9yUqM+gW4YK0CWSHCgrK0HIx41IP+wX3iIxO4yuEj5fPDmSz9jx/LcPCbArECaSNLICxKIG/wUaK8RH5UCQ/qIXzUbsIUeXIgXjV9J/ZZy2wE2h0BdqoiNCJQeMZYw448s2fPjiU9zVqjiJxpdwzaUT4TKO3YKpbJCBgBI2AEjIARaDsEUBpx9Hn11VeXbbbZpuy3337l8ssvL2eeeWacyypACvOcOXPKtttuWzbccMPwKSGFlKPIBirZ6eQJdRAhIGsNsMoWCgPdmFVShDYQtpkAkEyQILIYEqEByQDZxfIWlrpATLD0Bb8gbA8MWQFJstdeewVRAlnBcheRNNRZcuS6q315LuJBZArx6Qv1SDTygBihfHbAofyrrroqLF7wk8LSHyxJIOYg6Nipg7oij+qspTcqt0p+QMxQTj0LE+WRiUG1I2n0454JlYHu4c5/JCLAuEPojkARLizhYfcrWaNgEQiZ0iiInGn03PcbI2ACpTE2fmIEjIARMAJGwAgYgUBAPidYHsFXfSwOlltuubLyyivHkgksUvjij9Kpr/34vGDpxhprrBGKNb+s3EI2cN0p2/z21BWoS1bQRSbkOveUR1+fS5kXziItuJ+tL3jONZZEkCQ4dOX8+uuvDx8hWIjwRRfnqZAkM2bMCAuRK6+8spx66qnlxz/+cVlxxRWjnlJAOG9EglG+cKBuYEH5kDZyPsx9ETT0GfoTvlPwm0LfwFcKlk6QcN/97ndjGY7qVa9c+qAcyapvSQ6lEzkiJ8bIRBAJlAmwqgUK8YRzJHIwAkZgQBDAeozxiaWCJ598cliT6cc4xTmkL3E48uM+5O/3v//9MnXq1LLbbruVd7/73TGeZT8qImcGRPBhnumo2kD63wW5w7yyrp4RMAJGwAgYASNgBPqDwNe+9rVQrvnahz8LvgweeeSRZfvtty/bbbddKJYiRvbYY49QmFnew5fBKVOmhNUAoapY90emdkiLAk7dpWxnHx6DVVewpixZQ6BUYLUBIYEjVyw5IEwgSvD/AbGF5QZWJVhyoFywHId6iOigPqoT97HGEMmQp9A841p1zaRJbm/JxM43ECQoOshFGRAkOHEdX7NsQTasTFCQlCdHWYMo/0wOqXzVX3XIy5YUR3US6aU6I2uVMFH5PCO+Ammq9WyHvmgZjEAnI4CVI+MCVmd//OMfY5xYZpllYtzBogwyH4KUpYWNdtJhiSjOoquBMQ4iBefVxPnCF74Q5L9D7xCwBUrv8HJsI9ByBPRlTkcVwADJFypNSvOEqN4EteWCOUMjYASMgBF4CQI454Q4kfUAyyYYp5nMSplk7GYZCA5EIVYmT54cy3ywYsB6gKU+EAztZnnC3yH9LcpKdCYNAERLX4ij+PyN0n3wkGWEnkvRJ30mBDhXWVlRJz73MzGhePkZOGIJwlKbf/zjH7HTDZYlOE9F2dBSF6w4sBqCyEKJqOabCR+RCrRjlon6ZdKgXj1FRECUQIxA4LDkBvlQhEiDDBAlq6++etlyyy2DvOnO8aP6FUctlVLH1Nwgy6Vn4FUlQ6rx8vNqXOWj8rluFEdxfTQCRqB5BLAswfqNsQIfJvzdgNCFoIc0gaxnuSjn/M1huR9/P7iGBOYHIcyPcZC/QxAj+DfhGisTxqKDDjoohKI8LOkgaPjbxfjj0HsETKD0HjOnMAItRUCTESZmTIyYxMlJHAVVzXOZ2BGXONWJVEsFc2ZGwAgYASPQhQDjLuMvCjkKMYor4zWORCFC+KEcc48lH0yCDzvssJjoco/lPUcccUR87WNZj8iTPKYPJdwiSap/c5BJ94jDT05PM+nAxJ2JPeS/HONKuSdNXlIjUkIkBmWQF/jxd410Sssz/X3EHwgkBOQIJAnkBKQJRAlkxEYbbRQOXCdNmhR+Z1hiRVoRCWpDMCf/TCaILEEOnulvs8gDlBJtL5yx4isxyghyYOnC12OOpMOKBBKNI20OeQaRQ9CSsFzPeOBgBIzAsEVA1iWMEfjPIkCQYH2GI1jGi94GESnVdCJnWA6opTtYn7z97W9/yXKealpfd4+ACZTu8fFTIzDgCOirHJM3Jlxaj0zBmlhzrgllntzmL3oDLqgLMAJGwAiMYAQYexlz2QpWX/awREGRly+UrHiza8u4ceNicsz4Tly+HmoMR1HnnHE+j/tDBXH+24JM1BWiI5MZxMnxqBdxIRsyeSLCBFKF9NSvHmnCPX4E8hKJwTp+ltrceeedYVGCIsA1pBP4s+yGnxQPlt0Q+NoqMotrZMvy5nOeUzZxCCJTclvIqgjCiHjsvoQcfCVGEUI26g15g48SmcdD4rD0RuQLaWnvTJrlciCA2s0aKUBxMAJGoM8IdGddAhE/bdq0RXyS9LmgWsLLLrusnHjiieG0HEfTjFX8vdlll12CvGfr8uz/pD9lOW3to4JBMAJGYGgR0NcnJlpMsvjpHpO7PMnyF6uhbSuXbgSMwMhGgLEZp7HXXnttueGGG8rGG29cHn744QAFhZ4x+5e//GUo9kxWr7vuurCA4Ksf95k044CWIIVdSnY7ICtCA5mqFo4iSpATc3Em5+DBOQQShIv+jomo0K5Eqi/5E0/Psd5hjT/+QCBLICewMKEsLHg22GCD8uY3vzl2mWFrXpEj+huZMSNfCCsCfyuRBWJHZA5HAmmFOcdqXvi0waKEpVpYvLD0hh+y03brrbde+LTZfPPNyxvf+MYwg4ccIVCv3J7CDDmQHRlktcM9PTd5EvA5GIGORkCECaR6q6xLugNE1iwQuhAo559/fpC7LBH88pe/HM5jHQYGATuRHRhcnasRaBoBmQI3mkTLkz4ZaoKqzL0WuWmYHdEIGAEj0C8EGH/5ofTOnDkzFP077rgjlOrdd989LCNYo37RRReFso9Z9W9/+9ty6623BkGA4s22khwzGYFQeSlMv4TsR2IIgnp/h0TsQw5Q/yrhwN8wfj/96U/Lxz72sSAaRJKw7AWihUk91hoQJhAlODfkHn/DMF1naQs4QppASmCtQyAf4tSTS1VVu0gurmXRWS8P5EPef/7zn7HUhmVAkCUQYizDoS2QBzmwLIH0wl+JSCLyr1oMVduTckVGcY78XNf7m8190ldxVf18NAJGoD0RaLQchzEDcr2VFh+QM/jQwroEXymMq5C3ssLDAq43y3/OOOOMyIe/Y/y9gqzedddd2xPoNpTKBEobNopFGrkIMIliooU5r76S6UudzL01kbTJ78jtJ665ETACQ4OASIZMbHMPiwesCBin+TG5zfcZrxm7q4q3/IYMTW26L1UWG3nZC3WiftQDJ4UcISt+85vflE9+8pPl85//fNl7773jSyikEc4R8VeCZYh2uMFhKl9IObLMJYdMmGRSQrjzXBYlkBFVUiITUZA3WnoDSQJpg7KAPwCUEdpDhA0kzvjazjcsvVlhhRXqAkMbUqYsc5CPIFJEeJFvPdIHWQm5DsKWeyZQ6sLum0agLRDobjkO48ZAECZV57I4mmbMwiKvuiVxb0H63Oc+F8TJ5JqDcy2B7G0eIzm+CZSR3Pque9sgwMSMiVS9SVeeWMk5H4J7wtU2zWdBjIARGEEISIHP4zHVz8o75IJ26alCk8mXdiJQUPBFVGSLD+7x90bKPsQB5IScpWKuzq4OWNoQsLDBdJzJuQgKrDdIl8kY4nIP3EQuZdIknyuuCJMsH+1BXMgcltxg4YJFCQTOnDlzwuEvX2pROlAU+DoMYQKpA2mhv7sqj6PqSznCJLdjLpP7Pf09boSt6l7FJZflcyNgBAYfge6W4/TW2qMZ6QezPMajnXbaqRx44IFl6tSp3Vr4NSP7SIxjAmUktrrrbASMgBEwAkbACPQaASnKVeU+K9D5XEQK8VG6UfKZvEKaayebnpTvXgvZjwTIiXyyhmD7S6w3WOrCkpt58+bFlpgQPyxzwewb3y9MxvHxcvjhh5fvfOc7Zeedd458CCI9JFa1jExQ8AzSokpcVK1hIEUgSJAJ+bR1MXlhSYIpOyQJZA7WLrJWUf55KQ33+NUjMciPZ+CRz1UXyU4cgmTX83wkjsrN9SROxqBeWt8zAkZgYBEYzOU41KQRYTIQy3+qyDF+77XXXmE5iT8nxnCW72AVmMfGajpf/xcBEyjuDUbACBgBI2AEjEBTCDDxuuaaa8rcuXPD/8eECRNCWUZp9cSrKQjbMhLLbPhBSLAtL+2LFQcB3y5sCYzzXEgTJtvVpTeq1NFHHx27PbQqsBuPCBKsS/oqV6vkcT5GwAh0PgKDvRwnj2MPPPDAIg5mB4MwqbYYvp6+8Y1vBGmCX64zzzwzfEJ94AMfiF3FHHpGwARKzxg5hhEwAkbACBgBI1BD4JJLLilXX3112XLLLeOHM1UmXtOnT++yqDBQ7YlAnsSzc9Att9wSOwjxW3HFFePHshuOPRElra6hiZJWI+r8jIAREAKNrD2wUhuI5TjnnHNOmTVrVvytxB8WgeWMm222WfhZarW/lN62NBZwWJ/IChJy+itf+Up573vfG7uLOfSMgLcx7hkjxzACRsAIGAEjYARqCDDRYltZlm4w+WKnEiaLKONMCh2GHoFmyAgcpeLsFcshfoMVmpENSxd28+nO0mWw5HU5RsAIdB4C3S3HmTZtWkt3xwGdKkGDjyhI6IMOOqhMnDix6d1xWB555JFHxpi8//77vwT4Vu2cc/HFF4czbHbwkeVod8sPXyKIbxQTKO4ERsAIGAEjYASMQFMIsMSDL3Y44CSwzSs+PB577LGm0jtS6xDIZAQm2TfeeOMiy26YuA8VGdHOsrWuBZyTETACQ41Ad8txWB4zGIQJGEBG9Kc8nIv/6Ec/iiWLLI2tF1jCOGnSpPKZz3ymXzvnsASTLZHx+8SHj0svvTS2aufjiENzCJhAaQ4nxzICRsAIGAEjMOIRwC8GS3dk+su2inxtcxg4BNrZaqOdZRu4FnHORsAIDBUCjaxLWI7zpS99qWlrj97I36jM/hAmuXw+QsgPyfbbbx9bxFcDjqZvuumm2E0Mv1T9Ceuvv36Xr6vTTjstiB/8oSyxxBL9yXZEpTWBMqKa25U1AkbACBgBI9B3BJi44WRUW/Ficswa77ytbN9zH9kp25mMaGfZRnavce2NwPBFYKisS7DOuOqqq8rs2bPj7xvboPfXwqS7VmJpLHV93/veF46y8StWDfzNheDAUTfLZvuzcw6OYtk5jZ9D3xAwgdI33JzKCBgBI2AEjMCIQwBHeM8991z517/+FVYo7CjAFq/41HBoDoF2Xt7SzrI1h65jGQEj0KkIVH2JUA+Ii4G0LqlH0mBZyd+6Qw89tGy99dYt95mS24ed7f7v//4vthOmXMKTTz75kiZ84oknwjdK3jnnN7/5jXfOeQlSg3PDBMrg4OxSjIARMAJGwAh0PAKrrbZa7CzAGuotttgitjJeaaWVwi+KQ4ltgD//+c+XqVOnxsSbcP3118cWwY224B0qh6kyS4cEazfZ3JeMgBEY/ggM9NKYeggOBUlTTw7dY2e7P//5z2WjjTbq2rEHCxGWxmoHH+LykeKII47oWj67ww47xM458+bN88453QE8QM+8jfEAAetsjYARMAJGYGgQwEICD/MccZLG8hK27ZOX+fnz54dgPCNwjSd6eaPP6Xj+zDPPeG1wIFXCWSxfve65556Y9LELD0QBk7/+BtZ4aykQa8IJWLcQ9Ix25Fz3ecY9BbVh140Xn+s+cRvFyfnSB4ib14Qjk9Jyrv7Dkqa77rqr3H///eXYY4+NrZ5ZY85zvpyydSVfF9dcc83YmUHWOuShetSTC3lUb3BR/IwT6fhRluJXsWCbYtoL+VBYmHBjIr7qqqvGtsVrr712yITjQt4bfvUwypj63AgYgc5DQGNYdcml7jOWaEziHmOKxjlqm8esPA7xLI/NjJ8ExhKNbYw/jD2Q7rfeemv54x//GBYV/P2AkMe3FmQ8aZSfxiG23B07dmyUpOrLQwAAIABJREFUzz39Teea8/y3HLmUB/nwd4pd4u68885YloNs2267bThN3WSTTcLRNjJqfqD5A2m1VLXe+BxC9jJUMcOq5PTTTy8XXHBB1OHxxx8PaxfqOGPGjPhIQRraBEev1AuZsf7EcfgXv/jFMn36dBMovWyHVkQ3gdIKFJ2HETACRsAItA0CmuTlyZ7OqxOhHAdTWr78KOS41YlP21R2EAURHsIM4omJXXUy3leR8iQWvAnKW2VX7zcqS6QY8flpgp3LyG2vfLhHHOLnsplUY6mBhcmDDz4Y69WZlN99991BsuAbhh0MUAC+/vWvl8997nPlrW99a+xWxFdEySGFoFqPav1y3SWb+iBH5MyKDXFYfoNyAlmCfLfffnsoD0y6kQuCBAJnvfXWC0IHuclLMlFH2jPLqDJb1caN2sv3jYARGFgE8ocAznmnGRuq7zbvPIRFJo+VlvuMD4w9efyEaOAeP84hO/Dr8dvf/jbIZawWGVsgk9/whjcEmQzJTF757y5lMw6JFMmyiUTRmJTRIg/yp1zG5Dlz5sT4B2FDHjheZeyjfAgTgsbceiRJrk+rWkXjNnIiL7Jm4gd5+PsCmcI8BGKE5+edd17ZdNNNY3eeK664IsgfxnA+ZOCDbN999+1qy1bJ6nx6RsBLeHrGyDGMgBEwAkagQxDICmFV+daEL0/AdA+v90svvXTUkolMNdSbtFXjDPdr4amvi5k8aQU+VXIh46lneUJdLZNJvqwnMrlAvByXcwXd12Sar3ost4GA4MhXS4gTzKmZ1EI8sGMBR76Y8hWTfgMmKhMiY/fddw/yhPylfCA7xA73iMu1CJ1cvywfcnItYof6YT0iCyCUBb7kIi8KBorJuuuuG192+XqJo8Fs8SL88hEZKCN/tVW5w71Pu35GYKQgIEKEMSiTI3JOyvih8bO6GwvXpEPpJ3Cu8Y7xDYsIrEogLiCYf/e73wWhAXGhnWoYM+sFxlVZfTAuqQziIhv5IBf3s3UI4xbj9YUXXlhuvvnmWCqJRQcEDVvzbrDBBuEfhHL5+y5n59QT2at/U7hG9m984xtlww03LO9///sjv2WXXXaR+tarQzP3qJswQxaNu6TVfVkq4rSWe4z7IuC1xfA111xTTjnllCCEdtlll5AtL/VpRhbH6T8CtkDpP4bOwQgYASNgBNoEASnCKIScM/nKkz2tK2YSxTN9DWISx2SFn77KcS5FU5OtNqlm24ghbDPG/RVOpIaIA/IDf5FdtAnP+Kld1NbEzW3PNemIRzoREUyM//KXvwRBgtUG5/yYpPOFEuKB5Tcsc+G4+uqrdxEMlCUiJCslmvDSt+hPVYsmyZblVl15VsWQr4sQJZAkfM297bbbyn333RcOBpk8oyAw4ebHNVYmCpqc078JWfHoitTDCbIR9A70EN2PjYARaGMENH4iIqQH7zfjV6P3mzGDcTP/DdW4AnEBaYHvJJYFMi4xDkFcMBZNmjSprLjiijGmyapTf091FGmAPBoHOZKGkAldyiUdS0ghZyiTLX0Zsxmbl1tuufKWt7wldpVh/M5jqc41N1ATVYkUSJbvfe97YVm44447hmVHKwNyiGjPdZPFDfLx94d41FV/W/I4jPN2iHni6ANGtV6tlNl5NUbABEpjbPzECBgBI2AEOgyBPElk4qFrKd1UhwkLk6dlllmmq3ZMQvjlSZ3S9kX57DDYmhZXE12ZU1eV/qYzqhORPPWVrtGkvk6yuKXJvtpcX1K1rAULDYgIlrQw6aZtWWuOGTlkCZNSzpm0MuEXMZMnqpSjr7WSLxNx2USedPQn4iEL6ZCRr5kEKRGUg48SZMPSBdlQDrB+oS5rrLFGmGtjUcIODcjIkfT89LVW7QJBSB/Wfcpkok05yMRRdSM9QeSS5O0t9pGJgxEwAm2PQHX8ksCMBYwDjAEiXfWMMY5x6YYbbigPPfRQue6664LEZTkMlhoQzFiZMO7kv6EakxgXNe5U887joMbuPEbJwTXk8eWXXx6WLpAzWNnJ0o4ys8UM+XCPoPIYF/OSGclGHMZFZJw5c2ZY0FAXLDr23nvvSC/SotWNqzmHiJCcv/6WVB3JkgZ89PcX/LhXtR5stazO76UImEB5KSa+YwSMgBEwAh2KABOKPEnTNYr0jTfeWH7/+9+HgsrXe74yoaAy+dLEhGr/4he/iLiY86Jcs/54ypQpI36SwqRT5tqZVOI+k9BWTuLIj3w1mda5iAnu0860myaRTPCZ2LPmnrXvTPqJxxdRzLrxU8JXUpbdQEJQB9IzKe8uqIxcP5EP6mtYm/AcJaKqpGiyjuxM0DF1x7oE+VjXDmHBlpksv+FrKvIxicexooImzFznyT+ykW82e1ea3EbZGkbKUiZKyEfX+T5lqUywdDACRqBzEWCs0EcCjX8aO/TeQzJjXcL4dO211wa5C4ELYQJZgsPw1772tTEOEarjBff55b/D1TGrOpboOQQNliWzZ88OSxDGKsoTWcPSFuQWYVIlFHLLaGxkXJaMIiYoT+c8g8Q+8cQT4+88YzQWNp/97Ge7PsC0osWxcJE1TrX+5N8TKVK1aMzkSv770ApZnUfPCJhA6RkjxzACRsAIGIEOQECTsCqJguhXXnll7I6CiTHOPWfNmhUTxA9/+MNdX830tZ6JE5O2yZMnx7KI6pf7DoBiwETUhDUTBnly3J+C8yRQCr0mvipXxAMWGpAPLL/BugR5+CJJezG5h4SA/Hr5y1/eRbI0InjIm8mtrENE0qAAZCWAulX7FnHzF0SukQXZcGKIvJicswQHYoXtnrEogTDhB7kDmUPIk2opIfm+iA/hDTaKR1rOq1Y8Wbmptg2ykgb5603oic9zHRvFqebrayNgBNoPAY2hvPeMdyx7IUCY8GGB5Yz8XcSnEx8NGJ+wMGGXruq4p2vGB/JlDNG4pDGRa85F0IgA0H3GY8ZIyBLIgLPOOqtAkDCOsxwHnx/4b2IMozzS5TFcBAhliLgWGZ7/lohIJg/ui8RQej6u/OAHPwiSCAet7NTDPeYGjHnkmcno/rZs/psh2esRIPy9UH10Tnx+3Oce2IJ/tpztr3xO3xwCdiLbHE6OZQSMgBEwAh2CABMlgpRfrpmosf0fPyYbfOnHyoRdApis5ckZFirEk0+JrCB3CAQDIiYTNU3CNQmlICZ0jciJ3giSyQq+CEJw4QOEiT2EiXaUwZKE7ZMhSCC5mPjSVnmSLzk5EpBPk30RAZrIci3yhDjVyagUA/IRIcE9ZEQufjJtZ+LNZBvfKZBwLBM68MADg9BhmVAmhMiDsnOe3NN9ySm5hQ/xNfHOaTmvmrJnRYfn5KV6VOuptspxlL+OiuOjETACnYUA7zXjBuQuYyo/dnVhjMAaU85eGV+Jq/FBRANjKYo+yjtjkcYWnTNeZWWeMUMKPs/Yovfiiy8Op9f8PeaHRSBjOGWeeuqpQaCIcEHW6lilOjCeM9ZxLfJGZAMyZIs8/W0inuKoTpAQENxY2TBeU77KpWzFz3+b+trqGrNVJ476+yR59RFHZau+WQ7ahfu6p/lOX+Vyur4hYAKlb7g5lREwAkbACLQZAkw+mIgw2ZHyyYSPgPKN+bEmf3z556sXaQhKy5GJ3/HHH19+/etfh4XAtGnTQklv95AJBGRlklVVsDVhEz6qU70vYDwjT/JQfE2q+YIpLKvkiSZ0edKZJ4+ckx8/nAIykYYseeSRR2J9PbvM4OQV8gHTbSxKtttuu/KmN70pvh5qks5RE+g8ieSeQlb8VQ/do/yMD/mpnuSHnEzS6RNMsFl6Ix8lHAksAcOqhOPBBx8cMuM8sYoveWVZqs/Ji+c5Tq5DdQKfyY96aZSf0ilOo7gqS+nytc+NgBHoGYG+WCkwzjDuNDOG5vEpS5PHeeJoHGFMx/KNcYuPAoyt+BRhPMW6g3GLrXL1oaDR2CBSljGLMb9KnDDG8NPfEJEAWN+xrJIlOewcg5yM4yynZJcyCJs85kl26qYxXufVe6o/6ZEnj6f1xtZq66lOyMpSXaxjTjjhhHLsscfGmI/lC0t5+LhCfs3kWS2jeq0xO4/dmeghfrUfUL98r944Xk1TLdfXA4OACZSBwdW5GgEjYASMwCAjwGRE2xHzhYlJD5M6vrjxpQnlGysAJmdyFMokj6AvZVgQYLLMWmiW+pxxxhnl3HPPjS0NSdvOISvZmURAZiZe1JugyaDIIyZg1F9p8kQ650k6mWFr617yA+P8NZA0TGo10eY57YJfEo60B+f3339/lMtEGmsSiIf99tsvJvbZ/4cwlwIhsqQ6aa43ueSe6kk+pKW+mvQrbxE8kGooHBBuWJiwNSYWJliUsC0wBAlbc+alN8KAvGWZg6xcM1lGhkbWHirfRyNgBDobgazIaozi3dfYy3ilcYF71XGIMYhxSX6mQEPkSB77NCbzN41z8tFzLPbYEQfrSpyu8nzzzTcP/0pseavdxPT3jjyQhTGafPQ3oEoYSG6O2cpNYz1H/pbiM4XyWQpEXttvv31Y3zGus1SRe/wNkfWEykYeygQD4iCLCBmuyV9/z/W3SrIKj556D/H1NwkZyAfLQ7Y6ft/73hdjNNYxLCniHJKJMvn7QTrJ3FM5fj4yEDCBMjLa2bU0AkbACIwIBDSJ5YsXEyEmYXjUZ/KDtYMmZRAlTI4w2SUwSWLSxNe4ww47LHxncA+P/9/61rdiYoX/lHYPmlSKTMjy5kkxdeNak0+cr2pXIuVBWp1rIikLEPLHSofJZ17Ow9c8iBGOECV8+WR5CxNQvnyOr1nyQFDtsMMOYbVBmZTBT2SD2oO2RE4REJI/KyqSkTiaHOdJOM9zfCkJtD9WJZixQ5bgR4UfzgMhdDDnpi8ccsghsfON8s94Up5wJl8m5ArIyrN67ZDz8LkRMALDCwGRGfnd1zjLUeeMeYojshUksqJOXvw0FuaxjHiMXZC8jF0XXXRREAKQJZC9WJewpS+BMZEgIheShrz420gQKZH/Rmh8455+xGVMRiYIZqxLcDiLpQkB3yksr3zve98b4ydxIVwgLERSq0zqz/KZK2rLiPDBgm+oQw89tIvgl0yUdf7554cVC39TGJuJy7Ij8uZvOvXKsocwlaC/I9xGBvLV3zfhAkEOyaSPLcTlWfVvTjVvX488BEygjLw2d42NgBEwAsMSAU0Kqdw222wT5sJYPPBV7uSTT47JEoo9S3n4SsakCAJFE1SeX3rppTHBJT1H+a3QRKvdgasq7MhN/QjUhy+O1FsTQjDjvsgTxdVkNOenNJBJ+I458sgjY4tHJph88eQLJOmZtEM6MJFnCQ5ECWvdFZjw6otezl8YQ+ZkJUKTWykcIrs4MskmD5EnlKH4nDPJR96//vWvoWxAmrD8BjlxkshuTHxpxKqEL6UyZ88O/DTxl+JDvpI1y48M3JeyoWfc0/0uEHxiBIzAsEOAcYX3vjoOU1HGPe4zPjEeMK6IdGXMIK2sTzReMOZorIH0hbCYO3du1y5jjGGQJYyxJ9SWoEAAEPJ4qPGL8jWuZcJBVpt5vCIPjXfkxQ+H3RAY/FgORL58VGD8xEKTsTOPvcitPCAkyINAHQmQH/zdgFBnqcyZZ55Zzj777LLHHnt0xSMOf3cgT1jC+elPfzosFZWviH/93YqEDQLy6m8HeepvnEh65OXvPfMGsCKQb26nBln79ghEwATKCGx0V9kIGAEjMBwRyOuamQwyQeIeS0L4WsWXLpzVsb6ZSSBKvawLzjnnnJjEMYHSem0cyWKKzK4AKNrtHpjsZQKE+oNDVvyrXzeFWU5HPbmGEIFw4AcRAWnCGnommliZYK3B1893vOMd5WMf+1isbWeinJWCrEhoIp8tNZhUUxYyckRmkTmyFtKyIeXFJF31YgKNnLJ4QTbO8auCrOQLYcaSGybqTI75QoqFEYHyhRNppXiAE/JK4UG2XBf1BdLovnCWwsNRzzVZb/c+ZPmMgBHoOwLV95xxgzGA+3nc416+RolHqWf8lELPOAZRwd8qlsaQZuLEiWXChAlBMkBQM+ZkgkTjF/czWaIxlJppXEU2yAyWY2qc4khcxnvKlYUJ4z3EBX8TITJY8sK1/s6KmNDWupRBnRmrJYewyUuAIK35u8E4zg9CXlgoHnkxnrOklr/fCtQb2VWfnloNWTLBQ/356e8J+VB/sFM70Ca0UyakeirHz0cGAt7GeGS0s2tpBIyAERj2CDBRq05UmSARmChCkmCFgMKNAr3rrrsGMcLkaObMmbGshK9xLDvhaxu+MCBb9t9//zCNlulxJwBJnTS5lbxgkC02NLEHD/x8YKWBtQ7155zAF04IKEgIiCRIJybXbPX4jW98oxx11FHhL0YhkwzkT+CIPLJg4V6jCaksZDQpZjKLPHyphADDwSzOZrEiYfJMezIBZ0tOTK/xpYKcHJGZds4EUiZMRNhIRmTnORPz/IWS51JSokJ1ghSQ/Ih7ul+PfKmTjW8ZASMwDBAQ4Zrfe8ZfkQIahzgSUOIhK/ibw5LHq6++OsZvLCGxLoE44Qi5wN+4TJyQXlYkGnOqRA5xGFurJALxkZUxlQ8HEBWMt4x3EM5YmMgnFX6pVAf5EEEO1YEykTmPhRo3Nd5nskO+UFhGyTbCLLE9/PDDgxgiH9WRPHDkTnz8qLCsdqeddorxnb9nIqnyOF+vC4GRlpvWw4c0mWjK5/lvRb28fW/kIWACZeS1uWtsBIyAERi2CGiilhX0/MWNinMtSwx97WKCRBoUZ55zZCLIRKuectyOAOY6V+WjTnwdhBiCJGHNPJNlbQ3Mshu+LGKGjQ8QJrFazkJeOW++EmKp853vfCd2niEIIya7YKmvq+DLxBYcNZkmLvnlr4GSlwk6W12yAxLWP0yucYKo3XqYWKOEoAzwFZSdEg444ICwMGJyDakieZSn2pHrPBGuTorzsh0pQBz50R+QXwE5+OWJOM+paz2ypFpWV0Y+MQJGYFggkP9OVMfiTJ5wjnUJJDCWJViZMKYyBrMcB2IAwgTynvGTMY2xhfFJ1nkZMJWVy9d5/rtGGt3n7wBLGzliWQhZgIUHxDN/ByCjGZ+7qxN5I1+2KFEZPFPaTGxgZcKHCMZNLb/BkhEckIMltQcddNAiSzj5e3X00UeXnXfeuWy77bbllFNO+f/s/XmwrUd1Hv7vb1X+CwYR4tgKxFHKJJRSUDYSRKFskABNgGYQCAuBmCRAgJEBMYfBYKAAAwVhdoEA44hJoIFJsiSQkMGAiYFKcCIPxAnEGBcInP9/+rT93N9Sa59zz7333HP3OWd11a699/v227366X7ft9fTa60eFpDPf/7zx/O2yriRgVSf03knZY7gW5k+Obav5W9Ehs6z/RFoAmX792G3oBFoBBqBRuA2BKoCbNJjEmciFOV1ngiFPMk3EOfJaF2F2i4gx/UGOcKyhCl2tt1lQcKFRUBXE3VkSXa8gY9UCQDYSSEKMuGMqbZzlRhZRh7UPH5X5YJFiQCC3IT4v7MEsvJpYn/EbQFnKRRWYQUnZFnyrW99a+wu8eEPf3gEeH3DG96wuPjiixfnnHPOkDP11z51PH2vPSE/6nhIG1zn/DJyZ1SwJC3DTXnKifIwj70lxfShRqAR2MYILHueaA7Lh+zo5ZkscKrnjGcasoJ7ISsPz4oQLVXJn8kYZeb9FquPvOPq+6q+y/7bf/tvCx/1f/GLXxwEhWcr6z3PVTKs9YxSjvJDIqfOPGtT91pdl+ejNimjtie/tfvzn//8iO/yile84g4Wf3nfeMcjXlg/2gr5gQ984FrV3uF4nvH5lqFaxMzzgZBAlQC6Q6F9YNci0DFQdm3Xd8MbgUZg1RCYJyLLJkOrJvMqyVPje1TldTbXNaEzcYtLSSaGlOY6WZKv7jCjrXWSWZXxveEgb61zLUXeJI68kaNOpGsdrkc+mBAjG5h9Ixe43jhnJRFRgoQQ9wNRwmpE2dowY7JM/jrRzPkQC1YRtUfKsUyolZ+PdsiX7YuteiJ1WJmQn8m668gsnXzyyYvHPe5xY2JsFXSevIpZwy3n0ksv3WPCzVJmblP6NnJHttruHKttmK/L9et913KSbyZgluVZr8w+1wg0AvuOQFXOXT2/U/Ncmp9/az2Pa3kpy7dP7vEo3nk3eCZzx/GcYyHHWkJwV64niBK74yTY69zCWHMoO8/++RmoHnLN9StLXvVxebz66qtHjCpt5f4jxpeYI+eff/6IXxIMkBfSWs8oZUaG+bnmuhnLuU0pN2XkO9ssCzSu3YhygWQlxEbq+tjHPjZI/uOOO25PPJL0l7zVumeuu/5PebUNNQ5NnQ+4bm/tWq+uPrfzEWgCZef3cbewEWgEtgkCUW5NyLzYKe8mUY7PE8Nt0qSVExOOPvGdDmExK85rTSZNXiXn6wTLhM//OjlTtqRs52r/mkTm+tRllU2f+5/Js/L4p1s9ZEVicsytJcFckQy2dGRRYoJpomxyLGVC73fK8zv1mYRGRhNYx2GTtpExZdTjrnM8E+GMTWX5sCihRNg1gmk2+R1nkn7ssceObShtV/nud7978exnP3vg4LjtohE+8iUpO9iSUTtY0XAxgocVycMPP7wnu3sQ6x+NwO5FwDPJ82lZCtGR559niY93QZ7FIUlyvfLyfJMnVo5+x3rhZz/72SCEs5UwNxTPYs9mpIBdapSb56Wy52eo/+rxrsi5SpCoz/XqEo/LuRDciGjxoTxzvScQ6tp01FFHLV71qlcN4qYSNp7d6gjxMLvgLMNuM45pQ7AkgzZ885vfHO8bGF122WXDIkdC0CNTWMkgfa655ppxrXhbtmv2zEe8OBaXzrqAshnydhmNwHoItAvPeuj0uUagEWgEthCBTIiqK8oWVr/rqpony3XinUk2UPK7kieZhIZsCHj6UDkmwpWoSJ86VstmZeS/yR8rDRYa3FlYkgjm5zdSRTBXRIldCFiTIBoETg0po34KQiaR5PDf5DLKwTK3m7nTs/KXayoJI28mwL4ROeT17cOv/9Zbbx3WL3aKMMklq/8m/VIwNwl++tOfPibR3HDOOOOMPcqJOskepaHin9+ve93rRn0UB8GBEUidGoFGYPciMD/Pg0R9bjvm2TU/t13r43nkWe256TrPw1kxv+WWW4arieez+CWeU8cff/xwgxGU3LNa+ZVMT72+Q6TUZ2tkn5+/y3oTcaxuFofXXXfdqP/UU08dMVSQDSwPQ1YgSdSX95G2zVaV3hXy55m/rM7NOqadIa3IwmXTO0QcFIQPIt0iAHk//elPjyC25OV2lPcMF09BZZFCmTPle7Pk7HIagb0h0ATK3hDq841AI9AIbCECUVBZGFASrTiJ9WDSUFewtlCkHVOVSZYJpaB8mSRHIc/q5P40Vrkmw7Fi8Tsf5c39JiCqlUJuN3/zN38zLDZ8JD7piBKTcBPJbLlLPuVUZWDZhJcsUp28O6adrjeBzUqnfPBwHiZVAXFcGa4RU4V8vq1ysiohN2IkO/SIp4LUManNGA4Jolxyk1ebH/3oRw8FxJjm9163phzC35Zm5cL/yK+cD3zgA4srr7xyBJplKo9MqsRUyunvRqAR2F0IeFZEoc6zx7MMOeEZMj+PKzqxKskx1nNIWs8YZAkLQMQwF0PuhCwmEBfqVFfKzq44yvEsze5nta75GVef556hIXTU6XnJ3VH8FEn8FJZ8LDc8Pz1rXZN6/J5JEfJzm1EOy46nPOUpI54Ii5mtSMviidX3bsVsLZxyXP9qI6LrQN7dW9HurmNnItAEys7s125VI9AIbFME6gTuqquuGuaqVlvsRNLpwBGok1almYhlohmigSKeT60xk3LHKtmQPPWYyR2ywGrl9773vbGLjAmslTYTPquVyBFm3qw0rBwiAVyXiXDKJXMIiGUIqDeT7Zwna67JpL7Kr455FRYpYscDE3afP/3TPx2EiZ0fkCMIE5N1q4JknrFUt/FLlpiFV1KDVQ2TdsoIBeT3fu/3BklEPtdJSKgoI/MKrvPKVqYdhB7zmMeMALnIsE6NQCOwuxHwTMuzzjMkaSZWPUOWPf8o8MgOJIUYIiw8PJce9KAHDWLb85r7YOI/eW8oW1nK9Oxi5efZV5+5fstHprxjHMvzM2WQ17PMMzjuOMhqiQzIapZ9ccdRrxQ5xp/b0vy+SL1vfetbB+Hjef7+979/cdZZZ43dy6Rl77N/LG7Tv2KNGYJdBXkXxa0o31k4qORSfY/5HXw3XdAusBFYB4GOgbIOOH2qEWgEGoGtRiATLd9W9U0OTG56leXAeyLklIlygsfFamQmIFJblHnfUehNAE3olMEqgzl1tqVkXm3yy3JI0FZ9iHgw6bVbDFeTGuOjtsqkMeU6Tib1ZoJYJ7l1klwJoMi4jHzIMTtCIB747MdVCNEDC4QORUGMkeNu8+NH9AjaWok9dWc8+k1pgIXyjVsm75nk5jr1PPKRjxxEEqWAX35VHFyvLMfyCQa+M4H2DX/KhJVUljqdGoFGoBGYSYmQFZ4Znld5fnrO+TjmWY0o5ip54403jmcXqw5ExZOf/OTxfAlRESUf0iFIlBnyxPMLuSJVQtj/kDvKyPPcb89FzzHuKQh2z2QWLlyBkNTnnXfeeCZ75nm++qivyqAdynKuPkP9rm22TTHyRFmsQWydLGU74fHnIKZKNKlGvwTHVJv3clyonJcvhEreK4kXps3a47q8Iw5iE7roRmAPAk2g9GBoBBqBRmBFEKhKqlgSVvtNDEw8ouiviKjbUgyTTCkrhP6bPHJfMfnKqmTyhaTIN39zfcRn2y4LLEycsyrJggRJwo8b+WDibXKnTHky8VWPSa3jIRwy6Y3VBhlNFOXLhDITcOfk979OGOVVXk2CuAooiCzx244QrExMuMmIhCAzc3ArrNnOOGVkdc//WQ7jERa+4SdlkltlJSPC5hnPeMbYEcLqLuUkGJsg1+vmNqRfIhPZKTlCul92AAAgAElEQVRIK4nVjlTrTN7+bgQagd2FQKwbPF9CVkDAc4b1H6Lkj/7ojxZf+9rXxnPJO/boo48ez8Jzzz13BODOs851s1uJZ2Ke4Z5F4nPkv+8o+Hlve1Y7HqKADNwhkcjeIc55HtpK+EUvetEg2z1TXZdrZhny3E9d8ud9kecq2dN+z0bvB+Q9opzln2coYkY9SJWtSNqTNkWm/M87gMzeK94DaSfZ4Jn3jf8hqrRbW7SjUyOwlQg0gbKVaHddjUAj0Aisg4BJQiaAFEPKvUlDduOZlct1iupTSxAw0QzREIVbAFMTSxNYlhcsR1iTcDNBPFihFI8GoSUPlxOfpz3taWPSbfKprBBcWfGr1WciWL/z28TPNSaS9ffc1zW/fDnvN3kRI4gd7kK+rWQqE5GjXb6f9axnjbba9ldyrQlrnXxGQVCfOnKOjFImvH5H0XCNchBA8XMPGWil8BWveMUwFb/b3e62OOaYY0Y5ddV09mNPXVEG8u14lAVkEBmRV5V4HIV3agQagV2JQCWlufkhkMWbQt56ziAouCCeffbZgzyuAWI9ZzxjPM/zjEUO57mcZyJg6++Q2fXdEvLCs5llCeKCO654I2JciUFy4YUXDhnyfFNunsl+Zy5Ahlj8OZ53TJ7PqbdeW9sQ4sKzU33cgVjbwMTWxiEvlH2wU2Qkn/dHsK2LB5XAyvsHRjOJT9a8j/IOPdjyd/mNQBBoAqXHQiPQCDQCW4iAF30mPKqlYJpg+TguMNwJJ5wwJKKc+0RB3UIxN62qOqlTaCZ/+W1ilAmkvD4hC0yynMt/18DCpKkq1SkjK3JV+DoBq2Xzb7cK+Nu//dvD+oK7Ddko+TGhRjyYYPqO202IF3VEvqwY+j8TH5VwmGVXRuQLLvJXjEyc5TF55P6C1LGKiiChHDD9DlFiJfWI22KVPPShDx2uQ2QOdrXM4BMM6wR+lj/nah9UfP2u14RIyrEXvvCFwyQe3q9//ev3XEpmbUu+XFf7PFirW14BY63a2nUHFpKVSNgs6/tZzv7fCDQCW4eA51aeefX54VnkXH02Vqmcq89S+X08K3zXd4brvEMRt3ZqQXgjBlgHsrDgCoO0Pf/88wfZKilbSv3qW+85pw31+ZRnV47lv29WLSwVxZD60pe+NMgJO/QImH3OOecMmeq7S3sqDvVZXMmd1EXuiqX8ud5vbXM+MoV40QbHkeePetSjRvsRTFKtcxw4iCl1hQyp8i+rdtl7Zxle9diycvpYI7DZCDSBstmIdnmNQCPQCKyDgAmBj4mTRAEUWFOQWKswVtNNKjLJzIr7dpggLFvJ0hYTVOcyIcyENZMjbTXR0/60HTbyJU+uyaqbCbPy6gQrE+wo5jDjumIF0oSWlYZdCExyreqx1pDnqU996uIhD3nIIFKqtY+yU28U9NoP9Xcm2em39HHyVCsJZc4YaG/ykDlWJBQB7irIEnUk4CyCRCBWK6rZRcGKpfrgME+Kl01E1xmm+3UqSk9WTj/72c8u3vnOdy5OO+20xQdu2zWHnLWv9XfGjG+YZIwEi6uvvnrxvve9b2xpiVgUO+W1r33tMENHHmn/snG3Xw3oixqBRuCAEPAMCCngmVMVf/e0ezzWBpXIiOKf56hnmOe4suTP88u35wsC2XP9m9/85p4dzU4//fTxPGDtxkowW6en7DyX1nqXyuccGcgZYtx33tdkkscxz51Yuditx5a8nrvqFztKkGukjWvI7bq5TepKPI/5mb0/HaGOtCPYe1ey2NMm1if6wbbxnq0sK+MGuT/19TWNwG5FoHfh2a093+1uBBqBLUcgE5v1KjaZMnnMCg0F1Ar+Ax7wgPUuW7lzIQnWU9xDIkR4EzupmvDmnLxSJWJMakPQIB0E4+OCw1xaYEAB+kwoTWZNrBOrhAk1ix9WEW95y1uGT7q+UUet2zHlh0gx2fU/VhNk8T/XRJGv7fLbBBZRltXAtInMZEWWcBNKYFcTfTJzEbJimR17WCNl8q/cKCp+GzeJRZLyg89mTMxT5t6+00am6094whPGqrCVWLs/kD1Y8etHljhGzoyTKFn65yUvecnYDQN+SayB3AuwpiSpw+ruVrZxbxj0+UZgNyJQ72Pt91zyzJSyEFCfne79/J/xqs8397pnI8LEsxJp4dns+cgVxrOFZYXnJgK8JjL5zPWEEMlzR33KlOa8IXM9oxE26hdHBRGPyBbDhIskcoL1okTmlJNndsVHXT7L3nW3a8A+/Knl12c/XFjuiT/FhZNFzEc/+tEh/3Of+9zxDK4E/z5U2VkbgV2LQBMou7bru+GNQCNwKBDIpDIrUmTIJM9EpiqCJj4UUJMzE58ETjsUcm+kzkwKtSGrX9qmzSEh8q28kB91kh08ci4T3CjmXDdYY7AeoaQjQcQroYwjGgQF9E2pFijVKqT6fUxolVsnzwiU5zznOXua55zJpLx1Iu1611ZSpWKiDTW/CbRjITUy+bdFJcLGbj3KS/wVE3ErgZQBgQwldWXynfY7llXaYJkxEwsU11TFIO1PWVXug/Fb2y+55JLRF5SN9773vWMVORhWokl74JaVUH0pVstnPvOZ0U8nnnji4tRTTx1xA2AFJ/3juqosVeXhYLSpy2wEGoGNIeDedD9W65Nc6bjnV4gD97JnWyV/uSh6XnoWiNXhWe++R5x6pt/nPvcZZPhMdFTp6jN+mdTO+6SM+vxIHCcBX1mV3HTTTYOQ9y7xPELiIuS5B0nJ77e2e/YqL89bz+Ucq2458ngmIr+R43mOL5N3f46RJe89MnB9RJp4ZwoczmKH6yo5t+rdsD/t6GsagVVEoAmUVeyVlqkRaAR2DQJRKjU4iqWJlclPzIRrgLXtAkyU9hAhmdDOk9460c3EWxtZkphAc9Mwobb657+J4BG3xflANFjtM7FGlnAPcb2JoLrrBDaYBWvnTNyru8h6k0j5tWOe4MY0O5Nj57ncIElsbxwFgLm5Cb/VUiullABtqNsZR3Z1aaM+nye1ZDYmgqn2pO6qlNQxIo+UvFsxfv7kT/5kEChketnLXjZismhXSB0yLFvxZDF03G1bJ+vvY489dvHqV796BHysq7SUjRCJ9fdc/la0s+toBBqB/z8C9V0WIsHZPOM9zyrRnGeAZ+W11167J36JfKwukRSsO7hWrvUMTtnqUWdIcrKoyzOnPkerjPMzw3MbcZMthb1zkNrqZ7Vx8sknj/I8n/PuyDs75HXqj1ws7eJKFKSWEcCbNY7UW98Fea+k/Mg77+yzWfV3OY3AbkGgCZTd0tPdzkagETjkCJjYmMxVRbySBlmxM8mbFd5lCuchb9AkQPXlNlHT1hAm88TZcZNRFiVifCAZTFhDmMCFi4ZVPnE/rFBaebTVbgiEKOQhHGaCI+LBDp5IiSjdIRZSlu86oXaNNJtYy0O2n/70p8OKhLzMyyn/CBOJxZBJN4sJMrOIySSezJGzyuC6ipH/ziNpfBsblYBwjCwzyZLjGT/1miHcQU7wtR2nfoLH+9///lFjJvJwo1DAV3/4JqO+p6T4/cEPfnAEfqwuT1FaKmnivPYre9lq90FuahffCDQCEwKzwl5Pu9fdpwhSz3zWaTfffPN47iFOEeGIE89PKc+2vCPrPe75lmfcRjohz1YyKNe1nt+sMQSd9c2izfPa+0asJc9vzyOf+o6p1oDKslseN0Xlce1hLce1kCXh/K7/2Mc+NrZQ9r448sgjB6nusxnWpXl/1T6Yj2l3ZNImmGpDiJWNYNl5GoFG4DYL6ttupt48u0dCI9AINAJbiEBVimelPxOcKIf5v9WK8P7AUSdnud7E1WoXxZf/uHYhHZhEC+oqIUpsEczlg6UG33a74ZgIun4mD1yjrijVlZAIIeLaYFaxM4EOeWNy6eN/JpqVRFEPS5i43DAlN/n3LZ+JPksYK6VIAZPvww47bNS7DItgku9lr9+0ZS1FxHF50ib/lWMSnLYvG1PLyJZZns34T4F4wQteMOR51ateNXYxqhP2asIeQpHicdJJJw1MmewjX7QJeZU+Uob+jqn/POHfCN6b0b4uoxFoBNZGoMY28swXvNvOOJ75Apl6fv7CL/zCCJruOY8g9xxd63nnvnbOMzrP9LWeb457v8hbiWXXsXIR1NrOa57n3gPk4BbE2o1FoHhTlbTxjFVm3gkhe7MoEDJX2y6//PLx/EcEIYC1mwVdZAr58/znP39x1FFHjfbHHTHPuQN9x1fCmcyS78ibZ2Qlg2bSfu2e7TONQCNQEWgCpcdDI9AINAJbhEBV8vz2qYqwyZtJ2mz1sF0mOeJYiE/iw5WFYmzynImmFT1kiQkzNxa+5IiHZZO8uUsywZ5xqxPsXDPnUb6JrE9diQzOIXmsiLKaILffJsH65F/+y385JsfkNslmXWJ1Mcp9JqhVZvI6n4lz+nWWbW7n/F8ZrqkKgTy1Tf5nbPmWlikZ87G5rgP9T6bnPe95w+y9Wp84LhnrmeSnH1geUTok2xTDmJxpT71WnkqcOLdRsmpU0KkRaAQOKgLIiViYCATt2RhrDs9Q7wDWFvX5lft4ftblOIErOeB/nqN5rs+NEh9LAGpEvcCzZOI+yW2SS6Fd1/x2vWdIJXBCwjgXmUKmpO4Q+77tEObb9sCe0yxSLrjggsVHPvKR21kVymNHsmc+85nD2s77Z9n7fm7Lvv6v84U8P+d3SM3jt7TsPbavdXf+RmC3INAEym7p6W5nI9AINAKbhIDdY7itIEcE2jNRRZhIrEiOPvroYUFCGbay57MqaSOym2hn5x7WEJ02hgDrk5e+9KUjs9XXve0cxYydMiOFPNlYTZ2rEdi9CEQpnhFYZsFAOaY8h8j1P9Zqub6SByEu57LlcY6SzYJBXaw67O5i9zM7vCBDkcs+LArFL0I+J9WyyaGMyByyJJaXji+zMksZIYP9R9CTiRsNsgRxI3EDRNIj61kKbkYKVuQnAyyrnM4L/M7S5cUvfvE4H7JHvrPOOmuQNawWvR8f//jHD4zkWdZ/myFzl9EINAKbj0ATKJuPaZfYCDQCjcCOQKCSDdxtBAetRAlTZGbQq0g2bGfZt+vgYZ7OxUYwxksvvXSvzbC7DvP3Jk/2ClVnaAQ2bK1AuUdIxMKOch5Lh2qFJg/CIkHKY+UhvzKQLlH+KfcIEkQJ4vO6664beR74wAcOAgBZyiWlxilJl1Uri7hdOqdsO9jMAbOVG2uImWhxnTLIIuArt1DxVLyX7CqT3de4gi4LNn0gw4i8MJutAR2XYMu9065jgt+eccYZI28sMBFOb3zjG4f1C7ehD33oQ6P9T3ziE++wBf2ByNnXNgKNwMFHoAmUg49x19AINAKNwEojsJ3Jhu0s+0oPiv0QjgJBiTn//POH8rBeooA9/elPX7zzne8cCkWnRqARWB8BinoIkFiExGoB0TDH0phjXSg9xAqyRFmIilh/OB/yQvm33HLLICdYmQiyKl+sOmyDizyXDwFSXWyU4YM8CKEin/oiL9nUXd1GUoZ65K1kBRm4hrIw4V6pPDFUBGBlXcJqUP5lbihrER/ro738LDJIeTPppL1cPj//+c8PFx6kCCvMWNSkv5xj1UhWhMprXvOaxTnnnDMIl+24295ylPpoI7DzEWgCZef3cbewEWgEGoGBwHZ2X9nOsu+G4UdxePOb3zwCNNplopruz+2P6w5T/yuvvHI+3f8bgUZgDQQo75RxaSYLQkD49okFxhxno7qcyCex4BDkVfynm266aViZZBc0yn1IitnCpJIv6iFTdctBhFTSx291yhf3FvLU4NIs2Fi6cAlknaYdyBruftxxxFJhYTK3Hy6VUApZpE7nZsuRNSBe83C1jJGplokMed/73re4853vvHjyk588ZHO+4nX99dcP4kQAWTv+iBn27Gc/e3HhhReOY50agUZg+yDQBMr26auWtBE4IARsE/r6179+TF68tG2htyzZZs/ExUTKpEmUfKvKnbYPAtvZKmM7y759RsjmS8o03erqpz71qbFivV6iCLFAoRy19cl6SPW5RuD2CMyWHNXFRs6q1Ff3F7vjcK8LySLIMxcYH4QnNxP3ouDY97vf/YYrTIgP5cYNhcsJ5R/p4TyrF2UjOfxXp++QFSFoHEMqVMIlLRPw1ZyDxYvYIZ4jgosLOGtb4xNOOGEQssuudSwuNDNBgtCR5qDsqXdfvysRFRyVIQbYG97whmFFwqUJGVLPf/zjHx+7kcFc+1jxmH8hnWH36Ec/evTNTAjtq3ydvxFoBLYOgX+ydVV1TY1AI3AoEbB7yCmnnDL8bimpayVxLkTNF8/g8MMPXytbHz/ICLznPe8ZkfzXSxslGy666KIRtG7VAqIyDzeBR+6tFV9lVWVfr19247mrr756+PWfeeaZ6zYfceJDWWvyZF2o+mQjcAcEKkmALEFYVCsHCjnyAWFB4Y8VigURxKbdaCj8SBAkCWuO8847bxAnlP64kVRXHgSFcny7ruZTR7YWrxYaCBbWINWFx5bwZEOUiF3im7WL8h72sIct7nnPe445im9tI4syQpDEugQoiBNJO+vxBLhFmmwWcZJOSHnaln4gJwJIvSxMWM9cddVVe55vwexOd7rTcDmS94//+I8XV1xxxcDtCU94wti1rFMj0AhsLwSaQNle/dXSNgIHhABChF/uWsnL3iTrQQ960NhNpdOhQ+Ad73jHmCRa0bKjQcgGwfOW7XrDxHlVyYZK9DAVt9rIRNwuBIIPGmurKvuhGwHbp2ZKgWCwFAHxT9ZLb3vb28bpl7zkJetl63ONQCMwIVAtMLyrKfFR5BEZyAouJO5HhLR3BusS7wxb9p544omLe9/73kNpNxeIxUMsVRLLRJnOpQ5iJGaJc5WwiatKLEzkjZzyue4zn/nMsLZAmkjcb8jButXzgiyVsEmbHIsMSBZESQiTmUxJvuoKpK5cN1unDEH2I5EpJJM6fU466aRB/FSrE8RKyB8WNDAhm3xwiUUQEZZZ1uyHaH1JI9AIbCEC7cKzhWB3VY3AoUbASj9T07PPPnsEX5sT89zHPvaxY+XKJIfVAvcdfsd1wjJf1/83B4EQDSa9z3rWs8Z2kCG8KtmwirveQGAjFjEsoazEIYU67QwEuO184AMfGMra3uKfUIBYnnDf6dQINAL7jgClnYIeAoTVA0s+hIn7ynHEOwsT2/j69v6uCn4sOPJen8kZ/5eRDo67h8mwbE7AOoOrikCvf/qnfzpIE2SBeCos1I4//vjhjlNdjeIWpEyEyzXXXDOuRbJ7V9ityzuvpshPFp/5nPMHwyWGjOqrWIb8yTnfUtytKskVK5bg7bta9Oz7aOgrGoFG4FAg0BYohwL1rrMROEQI7M2Fg4ntEUccMUgTUfY/8YlPjJUjQdGY7nbaHARMMH1MEH/0ox/tcV/h+y0JSCddfPHFeyxQNqfmzSllI0TJKlvEbA4KXUoQsHWnWAXG9HrBYxEtSEHkYKdGYLshEAV5PbljeRCSIcr9MguLlOMcJTukwDLiInXLk91ofN94441DURdXyL1l9xdWKLGSQF6E6KiWIyFIUq48VamvBEclCEKcpH1cg+zQ8z//5/8c5I0yuOmI8SEWiACpdsiZyZbaxswtlK0cbkasYLkS2xKYu4sdu+ouNXN5tU+cW+/8ev23t3Ppz9kKx3U5l++ZwKkuRZHPd+++szfU+3wjsHoItAXK6vVJS9QIHDACfHCtRnmRM5V9+MMfvqfMF7zgBYvTTjttqQWKyQ/rk5jB/s3f/M3iVa961eLcc8/tKPH72CuVZPjbv/3bMcn07cPf3EeQXt+xKFGFCaRVfBH99xaMcx9F2ufstQ0//OEPl7oOmRyvqkXMPje4L9gvBFi0sSjyvHn5y1++ZhnioyBRskK7ZsY+0QisIAKVVDCG/Q+hgBCou9sk4Kjz2WWmEhQUZ+dYH8yxOhAW7iVlItlZcSAqLGYg3FnxIRfcc0cfffRwgVSWOucYJoFxrbrSDnWpN8SA4yEC/A7hYk5AHrFLWJnIL44KSxEkKotJBE4SixLlaGPKW69rufv85Cc/GYs45iGuRwp99KMfXe+yPtcINAKNwJYi0BYoWwp3V9YIbA0C/Gx9lqU6uannTZK+8IUvjAnRgx/84D0rOCY9G5n4LKtrNxzbiDUG//PHPe5xw7rHZ70kQr+P/tiqtJE2tEXJVvXG9qtHUNi73vWuQ6lbLyFPzjjjjPWy9LlGYGURiNVEyIXZwgB5ERIFYeC3b0RArDji+oHskJxP/BJkwV//9V8PEt2WwogKZYoVwqXWLnrZPS+74pDlpz/96SAt6nsaQRPCJ2ROiBoyuC6khrwIEu/+GjPE9dx+bU3+3e9+d1iCeA8gS1ioCnLO4qzGQdGmuK4od45JsrfOZUkjhQjybEHMwGZfy9pbXX2+EWgEGoH9RaAJlP1Frq9rBLYpAssIFNvs8U3m4vPFL35xTIj+w3/4D4trr712TNhMYHZ72mqS4WC4OWx1G3b7mNkN7TempLr6vqzdcd8RcLFTI7CdEZgXFJAPSAOJ4u9/fvtGSiBfKgmArBBQG0kifgnCRCwTbjjilrAs4baCfJeQEdxxJOWHDCFLdsHJsViVhODJ8cQaqVYm5FY2+VzHDY88gtCymnTOtsasJZ/0pCeN3XiqywlZXFddcvz3CQ75PxNOozElkSVlc2f1YUkrBluTJzNa/b8RaAQOJQJNoBxK9LvuRuAQICAwbLY2TPUmVBQgE7fE5LjsssvGdoJMaXeTj+5G3FZW3RpjJ7ThENwaXeV+IGC13DMlq+BrFXHDDTeMnXr+zb/5N2tl6eONwEojwJIDCYBUkEKaIA/ikuN4rD/8jtuOY9w3BUdFTHz1q18d+SxUCPJqG18uObEWcW0sRZSP/ECU5LxrWaF4d8dypBIj+R0SA3lT3/ve9+SxIxq3GYSJ9zx3IBaQxx133HCd4aLpuhrDhVyIm4pF5HVsf61W004xUTxPPvKRjwzLNth0agQagUZglRDoGCir1BstSyPQCGwZAhu1xljl+B47oQ1b1uFd0UFB4A/+4A8WV1555VDGxFdiybYs2Tr1gx/84OI73/lO78C0DKA+tm0QqC4qETquOflmdYEwZM2BNGFhghjgjsMFhoWJWCaxyoiVBmIE2eH/HLg9LjnOJa6K+kPS+EZekEG5+R/rEDFLbHH8jW98Y3zEM2GRSh6LJ2KlCQDL2iPES8giBIrf+a/eKnPtvOoilOPyzpY7c4enHbfccsvi6quvHnJw+WOFUy1c5uv6fyPQCDQCW41AW6BsNeJdXyPQCGwpAhslGS666KKxkr63nYq2VPhSGVNmk3E+6VYLmX9LVgyPOuqo4Zu+6m04VNh1vQcPARZrAkcam3e5y13WrOjHP/7xOCeWQ6dGYDsiQMEPeVIVetYhdrCzI45gr74Ff+V6ct/73ncEYOeO4z5BIuRaZSmTVQmywDlEQ9xVkBYSMkQe51wrnzyO+c3axDnkhvLisuMdgTS5/vrrB4GDLGHtQiaB5BE4sS5VB+JjdgOKdc0y95tqaaL+EDexfiF7SJy9kSfykh9+z3ve84bbsODU3mvS3lwER6ZOjUAj0AhsEQJNoGwR0F1NI9AIHFwEdorbSm2HCTATa5Pxe9zjHosHPOABgzBpouTgjqUufeMIIE6sqlvR3huBQoFbFoNp47V1zkbg0CFQLTCyO44d07ix2Xr+hBNOGATh6173urEzGdIhlhchFyrRgJyohEny+pYqaRFio5IqOSYvgoJM5LG98Ve+8pVBOjzwgQ8cO+497WlPG4SJfNX1yLWxNlGe365j/RKiZyYvIl/qzXclXxyTqsVKjq31rW4x2LgM2eUHphY0kCl28OrUCDQCjcCqINAuPKvSEy1HI9AIbAiBjVqUrLLrjYZupB0mvMyr+cZ3agRWEYFHP/rRY6X4zW9+8+Lyyy/fs2I8y2o7dYkLT6dG4EAQiKuHMvI7wVDXsnSo5MScp1pJpLyQBPKyMPmLv/iLYc2BMBT4VT5uOHaj4f7yS7/0S0ubhPBQVqwy/I8VSS6Ia47/M7mRPJE/sUiQGuSxa48dchAOjp144okjzpDYKt4fEusYrjlS2pdyHEvZFdeR+R9T3JIip2vhEoKlxm2p182/aztzbr1+ma/v/41AI9AIrAoCbYGyKj3RcjQCjcDtELAbgI9VNStRVrir24rJ63ZwW9kpljE9PBuBZQi4N7kmSHuzQLnPfe6zrIg+1ghsCAGKPMW9WmawcAhJEYUeEeAjxWrEdSENosj7pvwn1kiOIyXELUFQ3HzzzSNWCELeOwcxIZ6P7XtDipCrJvWon0VGrFCQG/mfvPK4Nm40lYhALNQ4J1xbBJ4V8BUJSWbvP/cUFyGxQhAniX2i3dnqGHkSQshx7ZQveASr4Ecm+fI/LkIV31ibKCtl760TQ9AEC33iExJlb9f3+UagEWgEVgWBJlBWpSdajkZgFyJQyQVBKO1O4Nvn53/+58fH9ol2Alh1t5WNECXboR27cBh2k7cAATFQegeeLQB6B1cRRT5NrIp3zlHIq6uNvPJR3kO8IAKypS8iAiEhRsgPf/jDES9EPqTEkUceOVxHxDJJvJEQByEdlF8JnVqPYLDIkVhrIBtCrIQMyrbHZK4uNEgb1i5iX5FPQFpEJeLmt37rtxYPfvCDF4cffvhSi5XEVKm77sAAYaIO8kghRPIdXGEZYoT1Crc715A9uwHJ653Hxcb1GyFBQjiRIUSOa8lV46ZEjv5uBBqBRmBVEWgCZVV7puVqBHYQAhtxVxFp/3GPe9ziiCOOGJ9VTRtpy3awjFlVfFuu7YUApY4VinTrrbfuCYBZW0GRFBuCu0OnRmB/EaBoIx4SZDXlxAIixABF3zFKeqwcKOqO/+Vf/uWeHWj++I//eATkFsNHnJB//a//9eLDH/7wICpq3A/1xkpEnSm/1oLORwcAACAASURBVK8+pAMigIw+ITBmF5dadqxXBAdnYcLi8ktf+tIgFY499thBOv76r//6iH9Vr1NXLEgqnqxmtAFh+YxnPGPBdY68IW7kVeenPvWpESeFlec973nPESsl2wXDKqRKYhalblspS9qbgOsho6ocy36Tl9ywDKmlnkpALbuujzUCjUAjsGoINIGyaj3S8jQC2xiBjVhhbBdyYSe1ZRsPqRZ9xRGYCZTsmlHFpsxZQacYcn/o1AjsDwIU7eqiogxkQKxPQmxUhZzri5glxp84IQgAVo2IiZe85CUjfgmlPpYr/+///b9hbRLCRPkpDwFA8a/WEupE1EixqnDeR/5YlihX3cpTNuKChYmPwK/cbU466aQRJPwtb3nLiKmirhBB6olMypUilzJDTLCa4Wb0yU9+cvH3f//3I58yktdv5cAEQQMDixdph/Nxq6kuRK4JiYIo5a7nGnWz4kGSzsTWqLwkMgQrdcTSJeRWzs3X9f9GoBFoBFYNgSZQVq1HWp5GYBsgsJOsMHZSW7bB0GkRdxgCghxzM6AAUqyWJfeYJN9mpu9///tj1w4K6O/+7u9uZtFd1goiELIkij0lvBIDFPof/OAHgxwQuwRpQrlHmBin55xzzogbEuVd/pACCAgpFhb++8RlJ9YergnZ4FtCOshLFkSJmCPqQMTECgWR81//639d/Pmf//mwgCGXLYXFMDnvvPOGu6pyQiaEcFFO2p3vShCl3kpGKBfBIb9UCQoyK5Nb0FFHHbUnflGIHfWSGZmhTG2Q4BACJ7GOYKcdlWgZmddJcCRDyBa/yacdTaCsA1yfagQagZVCoAmUleqOFqYR2DoE3vOe9ywuuOCCdSvcSeTCTmrLup3WJxuBLUTA6rWttimAaxEoLFAk270eSELAWLHn5pDtvVnA/Nt/+28PpNi+dpsgQPGXKO0UfgSa8cANxzf3HDFCECYPechDFr/5m785LDoo5iE9QkIox3GkQCVHHPNfXSFPEARJzkfRV2bIDMcQIFxekDhkMl6Re+R0n9ghh0sNKyzxS6plS66PXCFy/I87zWz5QsacCxGEACGD47FUSZkhaJAiCIuPfexjiy984QsjQC73WTLecMMNw7VHIF2kqGsuvPDC4eKD9HBdLHH0w1VXXbX47Gc/u3juc587ylkv/fSnPx2B4H3EmNHmZW1br4w+1wg0Ao3AKiDQBMoq9ELL0AgcAgTe8Y53jEmliZFtcqOcmOxt1x1vwNiuN4dgMHWVuxYBSpMtXimEcRmYwQiB4t70SeyEOV/9v4wsucc97jFiQfh++ctf3tt7rwfgDjwnsCrLCbFLfBAQ3FWQEo94xCNGLJOQLGl+rEQo65T/kBB+y+u4chKnpLq7xCoilhcV0lhyOBY3oT/7sz9b/OEf/uEoz3uVJcipp546vtVTyRvXh9SRfxnBgxQhr2tDkMQtKCROZCKjMhAvITq0RXINoiLYCJaLdDzrrLMW97vf/QYBwuVHzBQkzymnnDIC6l533XULCy2uV2aIppAeMLv66qvH8Y9+9KOLF77whRWiO/y+053uNAgZc4zaZhkdn/vuDgX0gUagEWgEVgSBJlBWpCNWUQwvbFvmMTm1cvjv/t2/W5x99tnDN7fT9kQg5ALlhA/405/+9DHpZLJ717vedUT2v/vd777yO94E/ShZAvBZ8avbHDNP3i7xVrbnaGqpG4HFUMS8HyiJVpiXpRAozsl7zDHH3C5bkyXLUDs0xyrhEAkot45HcUYs5HeU6uSt52oLXK8cin8UZdf6HSIjhIX/Ymp4rttOGFlyyy23DEWdy8uDHvSgYRXBYiKWG2sp3/V8SIdYYpAv8mYHHHlCbsRCZCY+YvlCLtYarhUg2UKEOVJ2m3KdMsimzmpBMhMg+V/zVOImvyPTWqMj/SR/3IdyDRm0l7UYlzd5yS72ip19uD0dd9xxg+iBLYLk4Q9/+Diffk7AWOfElFG2WCpwML/g3mNsIFS0yfbKyhPY9rDDDhsxZxBh+vODH/zgeGe7/txzz12rSX28EWgEGoGVQ6AJlJXrktURiP8wk1iKKEX7Ax/4wOL3f//3Fy960YtWR8iWZCkCG3FXMbFh9vzsZz97cfLJJw/T51VNtT0mXDHfz4o0M+1V3+Z4VbFtuRqBA0XA/Zkgk8vKqgSKLcrdvxSu+T5uy5Jl6G3tsUoyULBDblCKYyVQSZIQFwgPynjyUbSzXa1yquKfOBuVoPBcZ/noneSbkk3Rv//97z92h2HpZCcnKQQHeZZZLlDYpUpGJJ9rK3lB3rTH8QRD9TtWKbby5erCNedzn/vcaKPFhvve974jfonde5bVWetfi+DZzN4NGaVMcVi0tSbnYX7ttdeO+1UbECPuSVZhIZFgJcitzzOf+cw9ljvyctuR5NVPXHGOP/744VZ34403DrIFPoiXd77znSPui5g0nhGPecxjBhlmcY7rD3m4DrHgScyXzcSjy2oEGoFG4GAh0ATKwUJ2B5T7ve99b6zgW5EwmXj84x+/eNrTnrZnJWIHNHHbN6ESC0xu99X15t3vfvfiSU960srgsJH2tJK1Mt3VgjQCw6KEFRsC9tvf/vZYVT766KNv5xbIijFJrITf+I3fGEE92w1ntQZQtZig3IZciKWI81w5KM/IBXlCEiQoqDyui/WDFpo/hPRwDTcTCjerQWOGlQnChWWJLXXPPPPMYcWRstVFhlioKK+SIBT+SvZU4kL9IS9iRYEkQSC4Ttl19xi/WUckhomthdWFJGCFKxAt6wzXwkGqO9CQMfXAYStTbSdCJLiFqOKm86u/+qvDBe4Tn/jE6CeWM0gNcz1klbaS/8orrxz3MKuREDGVBEMmsVB+znOeM5ro/v/0pz893H/kh6/Pu971rlEmyxzlis+CUEW82JVLeuQjH7kHy63Eq+tqBBqBRmB/EWgCZX+R2wXXsUqoExXmmswv92ZCugug2fImZjXIpPNHP/rRprmrnH/++VveFhVuxEKm3W8OSdd0pY3APiFg9Zry+3d/93eLt7/97UPJFNhVioXYYx/72BFbgSUjEv7iiy/epzo689YggHhADCABKOPe/5UEyG/nQx5Q0l0jb67xO6SGawQjZWXw3e9+dxBuFGfXC/aKbOOOg7gI6ZJrQ0TI6xO5goZ8qTuy1WNR/Mnlt7lLJUwcF7eHNYR3LLJE8FTxfMQw+fVf//URF8S7SLnLdptxPFhELjiG4CGzPFs1b1KXdiE/kCjpC7KRC/mjHcgqCy5ca5Aq4qGEgBEThTueQLyZA6Zcfamf3vve9y7ENLEIc8UVVwxcWZGwVH7yk588rhOk/oQTThhxahBQsECwCTbNasd88uMf//jiy1/+8uKSSy7ZmkHetTQCjUAjsAkI/H+3PRT/IcrUJhTWRexcBFg3WEnwwnv0ox+9cxt6CFtWSQVKybe+9a1hWuvDlNnHhNM3c2axBzYSjPEQNmnDRMl2ac+hxLLrbgRWBYHELGFZ8l/+y38ZFgRJzPYTmLrKK26E+EpcBy+//PJVaUrLsQYCISJ8Ix8yVQxZQBl2fLb2UBx3HJYlPhZeWCsg0yjSLEuOu82qlSKfRKleVo7zqb/WFdmi8DvnQ2mv5I7rc9xvrjjIA+5jyAPvWIo/MgHxZ37DTQhBoJyQQrWt1dVEWYgb5MgyFxTXSVtliRKSQ53kIX9cbmp/kqfKBiM4RFZEqPkFa5KkXK9MxNZLX/rSYXXCZUf8I8+EWBO99rWvHfVfeuml45iyTz/99OGKxX3ommuuWZx22mnDPVxQYFZrrNL0Q6dGoBFoBLYDAm2Bsh16aYtktArjJWhSIqo9H1aJL7LVBhOeHNsikXZkNRtxU7GCyzf4iCOOGJ9VTxtpU1uUrHovtnyNwB0RQHww8RcPa45ZIgaEnTc+8pGP7AkCycJkWaJs+XzqU59adrqPrQACswtPCIoQABTtJAo10oMi/t//+38f1iWsTCjI8gkUzAriDW94w+KXf/mXb9c6Li/yKD9WHXETqmSDY6knSn9IjcimYOeqBUp11WG1GflYvrB0YXFh7LKUQOyETFCm8lOm75Az2gqfbC+cOC6Rw3FEATLFMWX63iryhKwVk7oNcogV8ocAI1clReLG5F7Wl+Z73usWaUJwyS+xOFGO+GmwlpBPyDFk6uc///mBL1cdMVS+/vWvDwufxLVRDnci8W4QNYIFi9nSqRFoBBqB7YJAW6Bsl546RHJaOWKSSfl91KMeNfxXO20MgY26qWwn64ud2KaN9WbnagR2BwKxLhED6/rrrx+NFmySyb24JZTiOXlPZDWae45V6WXJKvMf/MEfDAsUliidVg8Bym3IjZAJOUbp5oIjwLxxQllGsCH8WZfYoY/Lhv/IhCjrNUZIyI3a8mol4nfiqFS3l7WuCzmAPFCPLbXJSDbWDYgPMXoo97/2a782LDiry81sOaIe7Y4cseCIjNXqRBu4r6m7xlGZe5WMy9x/5nyb9Z9M5EHi+GhvJVdqm9NebdZnXHJY58BNm+16JC6NbaJTBreff/Ev/sVwy8l16pD/Qx/60LD0URZyxA47+tEGBPqBPLZ65iJu0U5/OS42UqdGoBFoBLYLAk2gbJeeOgRymhTzWb/f/e43TDmt2nS6IwI7kVTYiW26Y8/1kUZgdyOw3vbBFE5K8UZ350KyUJYoWYLDLkvXXXfd4qEPfWi78SwDZ0WOhTzRjxR/MUGQEUgTCi8CwlyAxcGRRx45lOvqflOtWCjnSBdlUZxjPVJ/hwDJ9wxDPV5/K8McRdwSFg+UfmSHoKesX8QvMYYt/jiea7XPb58QNH6HIKlEQ2Sp8uaYa6SaP+XOZcz/5zZu1v+QTNUliuzVOkc7Z6uYSnBFlhBgrid/JdP8D17JXwmuZWRXlcM1kTHlVMJts/DochqBRqAROFgINIFysJDdAeVaZTBh+slPfrI44jY3EhMRE5MEl90BTdynJmzETcWqzHa1KFlrF5/t1qZ96tTO3AhsMgKzYpHi5+NR2qpyskyUKGrORRFTlhSlhsLi3KzoUFooiZQVO4vEcsAOI4JRe6ZThsVWEjhTTIL1UhSjWRmy4i1GlpVnu3vYupQs8strN44oYqeeeurYvUMb5KnuAWnfejLs9HNR9LWzjpmqFOdc+jz/fRsT6xEC6Tt5Mj6q8oosYRXAjQM5IdmpRZwLO6dwtZiDvYYYGZlvS1WB1gayZ9eb9HElWlyTMU0uCr4y/I6bkGN/9md/Ntw9uJSRTawVhAkrCZZRrCQENo01yHyfRDbEy9ve9rYR+Pi3fuu3xrXLlP5/bE5/NQKNQCPQCDQCt0OgCZQeEI3AhMBOtb7IarMJKAXK5FP6xV/8xaE4Uaa2E/nTA7cRWFUEKG5VeQvRQd4QIpUsqMqs60I2ZPU+7aToSnFBoIQqp7o6uFZsAcom6wEBM8WBEByTNaF4FGJc+U/RrAr7RvGsBEquv+GGGxZvfOMbhyzPetazhrtEFNmaX9DZl73sZYs3velNwxolsRpmgmCjsuykfMGyflPsjYOMobnPQ57FqqBiXbGx2wwSAyHhtzGEQBCfgrvWzTffPN4JCJJYcHDb8n5w3UaSun0yPmucELu3xJWkWkCwfjBmfELkxCJCAHVyGcvil5CDGxnLKKSf+CXKyr2WMTRbS5AdpvKl7ssuu2y4kpx/20502ltl2khbO08j0Ag0Ao3A7kWgCZTd2/e7vuU7lSip7TIhngM/mhA3UbLrh38DcBAQWGsVm+IWa4F5Vdz/ZQpfxKOQ5voQJRTFrM5n+1UBPK3KI0hZDN7//vcfCqbVeUpnLYcsVWEkt896cRwiz0wARWFnfWIXDXFOWC2+5jWvuYOZfspQvx05WDhq+zIXgoPQPStfZCWzKhGi//X5HMuiNkj/ibMRQipjMf2OOEGUIM9rfBt9hjxHqrFGCiGjbPJkzNU+ChlRLU/qON4b0GRKWzMOWTH5IEpYSnH3Ur6tdMXSQMjd9a533UOYpL6Mx5kAqViSR36ftEd8FFZTgrXbSrm6Ie1N/j7fCDQCjUAjsLsRaAJld/f/rmj9TnS90XEbaZf4BWsFftwVnd+NbAQOAQKUtyjAUTYpbvOxqvRRHq2wU/Lkk1xT83zzm98c7hW2D2Zl4hsh+oAHPGCQJlwRuFpI1aJjM+MLVMVePVVxRppoh512KKhS2q8dUcLPPvvsxcc//vGhLJNdO9cin0YhuyTV8RFrI4p9tWACRTCXH26VWKnEifFhBxrjRowQxBU3HFv2srpAnOgfdfhWZ7U2mUmRue/Tt1Um/Zzxr1+NQzKJQ5JxLY/jgr2yLrGdMLcvY8cW2Eg/MUzsAJMxw2qGe46kHHWEDPG7WnSRW6q4JQ9ZXG+HmFe/+tWLJz7xiYNA2Y1Jf+v7il1wCF51TDonrz4x5oLvsucLnPVzylaO/CEC89/5+qzajf3QbW4EGoHth0ATKNuvz1riNRCwEuvDXJ1//3Z3U2G+LC6Jb5+f/vSnI8bAdm/XGt3XhxuBbY8ApSAKg+9lignlbr1zUUoQJJRf2wdTMBESCBKBO5EkPgJ5RkmtSvAypZsLBQuTqlRWS5Zlsi7rkKpUR8mKAnTNNdcs3vGOdwzlVmwJsTNgkp1MlEexsp0piwLtufrqq2+3Y8uyOnfTsVmprRjru9nSAjb61ruCOw63rS9/+cvjPWhXHNvJctFkXYIwqURVxiLLlaoQq9M5dfnWvyG5lo2t2j9RuB2rY4U8N9100wj4aiyrD8FPLiSagK8+Nc0ETmQnn5Qx67jfM9G01ph2PZyf85znLM4777xBKu2GVPu1khYhO0JuwMKYCJkWEqseUxbCSz+GyEJysYByXJycjIVcP/dnLW834N9tbAQagZ2DQBMoO6cvd0VLqtUFUoFiEYLB7gA+fKN9bwc3FZPJrMClHelIk+JMGE1GTjvttLGV6HZo164YjN3IRmAJAjPBQNHwoSwgEqLUUVYoqJQMLgtW4BELUX65LdjekxKMaOBiEcUvik2ta1ZOiLbs2BKRxyFlr6VwztdEgSV7LGtCCrFsOO6444ZiZYW/lh1FXF7KtPgTCBc7+DgWRWyub7f8r+SGNlNEQz45hyDwoZAi1hLrhqWJ7YRtIYyUECPEe6KmKMy+1yJi0lfGzTKiJuXp9+RRlt/KreOSPN7PrF98W9zgUiYoOSsTfY7QkWbiwzF15JyyJWMqyflct964JVvGZsZ4xu8ll1wydoRC5u3LvbJHiG34o7bT+EocpGAZa5JKsMAahskTa7n8X0aEmL+Yt6ScYK989/nc5/vy/NmGsLfIjUAjsMMQaAJlh3XoTmnORuKT/PN//s/HhOyI20zXfbZLEpPki1/84uKKK64YpIg21HbEksZuCJQLW4KKK9CpEWgEVh8Byi1FksJRFeKs8rqvWZaIVfLtb397uOHc/e53H6vgvuOGQ8GoSkX9HYWVQum4T9wiEsuhkhVZCZ6VRDJFEV5PYZ5RT7uqkhVF9VWvetXY0UcbuerMq/tVBjvyaD8yhbvGbk/pJwqp39ntxg5KcBII3A40rEyQ6aw3EG3cNFkkBVv94vo5iO+ycZDxmnFQ+0D+EDfGVcbwTFgog8LsvRYZlZNgr2RkOTWPSWM8Zalf+cZ05FRGHff1+CznWuM3ZIl6gk9cUAQ9RuawgFmr7J02JmGw7HkRbOozi9Wrfg+JNxMlggQn5k4sp+Co/DyH4FfLXObuI099luw0zLs9jUAjsPMQ+Cc7r0ndou2EwEaIEqtUF1100ZgobudJNuLkC1/4wugepu0vfOELl3ZVCCFBIe92t7uNyUenRqAR2D4IUNYoEUgEFmYUYGQJSxPKLmsS9/mJJ544FEvKBgXCddUKI8qflkeR9E3xRNLkmP8UoCi5yogCE2VJGVn1lXeua1/QjVxpZ5Rg38cff/yIb6J9XHpYpDieuvNNiX3ve987Vv/PPffcxWc/+9l9EWFH5g023HEQbVxdxImhlBordk46+eSTx7tQ/1alv670O1cV2LjihGRQj2ulkCw5lzHlnGOVmMjY9E5CAJKPhQlLGBYnZ5555iAAH//4xw/LKSnlRdaMlZTruPGo7BCCzuU6+eUhc5UlCr86gpvfIQgcq+Oy5ou7EuWfQi/VsseBHZjSB8HIGAmO8MoYiuXTne9854GC62AZC6BcU3fQyrmMEdfoQ/996lhVZupSlk8drzsQ+m5SI9AI7DAEmkDZYR26qs3ZSMDTnUKUzH1gq8i3v/3t47BJsNWujaRMXvK9kWs6TyOwkxHIanhVmKLMa7dJeiUggkWUsar4O7eMCDCZl1JHlIdaZ8pNGVbfrcYiSa3Ai1MkDpNnGisBboXufbEo1krLFIha56wMKifHqrxz+2ue1L1WW9aSbT4eWWtdKdPuP7aHpZB67nNN4oqU8+kLBJAAuB/60IdGHApEgcChVZFb1t9kSRl+h2Ce2z3LnP+u9VnWv7Xc1JNjwXFWBKs8yTuPofx3bbBLORRJwVSREXbHYcXhHGLJttN2iWGhuCxVpT/lztjMCm2umQmMXK+d1WIg9XLDQQQmHg/iwbsMGfiMZzxjbH+8bAwHt7UICsfruWXjfNm1y+4Nss5jex7/saIgP7LnLne5y+3ifSzDeaccC44Vo/o7/VdjFmn7jP+M8bJ+n6/J/xAtuUZZc3k7Be9uRyPQCOxcBNqFZ+f27aa07D3vec/iggsu2HBZG7Uo2S1xPChU4pycdNJJGyZOAvYNN9ywePGLX7z4nd/5ncVxt8UU6NQINAL/gAAlkVJKOZon35Q/5yiOvk3co0TNJujBM0pnVRwptlIm+iwmlEPxt0LLpeK73/3uUCpZllB+bc37y7/8y0OpZC2Q+AKzErfT+/FrX/va2CKW9QmcXv/61w8llfKEbMrKtf6BszgUMLz22mtHIFH9IX+sIxI3AW7OSbOCtkzpX4bzTG7UPBlTc3+lzhyPPP7PpF11RVDePD5ZJLHYQJogl4wbY4W7i3Gj/SxMJKSccWzMpX1kCak3Y1DdIyLHjIv/Ge++K6EDc25D4quwmEIGeodx5eAyi9Sxg49dcsQy0T+5p2q7l+G+KsfS9uCbsbgq8rUcjUAj0Ag0AquPQBMoq99Hh1RC/us333zzHWRoouQOkNzuQLU6eeYznzlccfY1mVxb2RMHxSp2p0ZgtyOwloJLKfShaIY0qVhROCUKZ4iR/KbUU4QT9FA+SlbK8RsJQOnlVnfjjTcOpfee97znuC8pvBRfMSiUrSyfqtxGvhACO7Ufo0TDWywUSjeigBUFgiDJecp+VrpvvfXWBcsVmCGOE1w0u3csi5swkxqx6NgbtmsRKFWxTv/rx0qA1DzqCZHh95zPMdeLafWVr3xljJ3rr79+BHlFshkv3LmMH+NiHtshOiqBN48f11QyJYROxh55fcg2EykVJ8GLv/rVr47YKldeeeWQW5DXxC6x25Okf2PRIo80Y1LLXbXfGZ++YZQ+g01bQqxab7U8jUAj0AisLgJNoKxu3xxyyT7ykY8sXvnKVy7e9KY3DQJA8LpvfOMbi//7f//vkI359dFHHz1WonaLRclGOgV58ra3vW2/rE5q+SbegsfqhyO2UZDcjWDUeRqB/UUgSqHrQ1akrChzFG6/sytIzldFvCrcsRTwbdWdZQmFVxwKBACFnoJP2eWOYhV+ViTrjin727adcF0UdfgJ0slNAiny+7//+0OJj+IaBdwxvynvD33oQwcELFhiGRDriyi4VWHfDMU3hIp6QzZEtvSHsRKCw+8QdVUBl1ce1hvGjDZw5brTne40xo6gr3lfJjhsyvet3KRKvpFJuTkW0sT4WyZn7o/qVpHxnTFvS2EEvQ9CUDmwJyO3HBYxNc3kovso99ZM9NzuwhX7U0mkEE/Bc35WrJjoLU4j0Ag0Ao3ACiHQBMoKdcahFKValFhdtUMMIoBZNWWBIu+7iZL1eynkybOe9az9sjqppf/kJz9ZPPzhD1985jOfWRx22GHrV9xnG4FdhkAURd81RdGMguS83/G9j1UDxYn7jUCv4jpQJn/wgx+MZxyl36q7b6vws6Kqvii2zkWRjqIaeax0y0eZXVbGTuyy9AtMbMksWDbCgEUKl56aQqgEG4r9scceOywdWG2w1qiY6kcf5EHFXJn5vx6mZKv9oOyNXlvL5VqjT703v/71rw8LpViZsExiYYJoEyz853/+58cYqFYhcQFybB4z6tHGuDzJkzFe2xic8+26GgemjnNjHDHo3S4+jXLgnPg8dk1Kyta2cAqpE9mXEVbkl3e7jO9leGv7PDb2ANI/GoFGoBFoBBqBCYEmUHbZkNiI641dIcTsqBYop5xyyi5Dat+bu5nkSWpfy4Vq36XrKxqB7Y/ARpQ196FVfyvKMdnXcgokRTfb5tpFhGWXAK9ccBDESBOKVFbqXRcLCcppXHQolFEY5Y8iXi0HZrR3k4KmrVHEL7744uGqgqR63eteN1x3WDTOimz+s7w7/fTTR9yND37wgyOwbCyHgvlMfFTLghn3+n+uc+4T5yshob6QFo4jeLKNMMsNx1hsICBYl2hntXKq5TuurEpyVNmC2TLrlOSb5Z3bSqY3v/nNY8HjE5/4xNghx5jkKsWNyhgXyJj1aCVHcl+lvOBccU1/kkE7EDTKRiQ5FmJrlmnV/pPbs0Ebya3t2lGfFasmc8vTCDQCjUAjsFoINIGyWv2xadKYhPqY8FEo9tf1phX4jXXJwSBP1JwtQdsCZWP90Ll2PgKUHoqdFDcGShAFznHKIss5lgF/+7d/O2I7cKngfsOVwvaqdjdhJVCTaylRdQcKZVIWN7q6PivoyoyCth65slN67e///u8HeSVF2fceQpwgqgQktesOMiFWOZUMiSLPDeY3f/M3R7+x6EDCcDGp5cfCQl0bJVAqzjMZMSvQ/iPZWCYhTVgrsTx54AMfbhZ2aAAAIABJREFUOKySBFTlvqotYpMYK66Z45Q47hMLKL/VHSKF7P7H5Sbj23gx9vz3qUSOdhiTrFS841mYwJl1CUuYu9/97iM/C5PTTjttYQHkZz/72SAO1Ku8Oh7J5H++YUueZWM2BFHykmUe9xXnVf0NA6kGK15VWVuuRqARaAQagdVCoAmU1eqPfZKmWpNQFKzw+fZhNuxj0up7f11v9nUXnn1qwA7KLFbMvmxRvNGmW4l961vfOlbKOzUCux2BWeml6FEc457AZURATK4fgpYiSay6+1AIo6D7rkrsXG5V6oN5lMQoXlnBdn4mWFLPfHw39F+IiEpqsIRAglDIX/GKVwwSohIWdXeket1nP/vZsQX8X/zFXwwCjDsQEgzJVfNVq4+NYEz5l0IQuB45ctNNN41gwcg3sb68O5FtXHG8Qz2HM1bI7zdixO9KeGRMLBtXlQhxPv9dMxMR9fqMyR/+8IcjNo+xTlbXs3xhPYUcZE1FplhZwEme1EPWEI/ZZhpBZHcgbWV9irSSUj/rky984QuDoEEqcW2DibzaPcs9Ll7BBAv3JJkz/owFx2o/rKDoLVIj0Ag0Ao3ACiHQBMoKdcZaomzE7cZuB/e4xz3GBG87KdvXXXfd4pOf/OTi+9///lB8fKxgVjNmAewQCUiKVUxWVU0uX/7yl2+6eEyxL7nkkt6FZ9OR7QKXIVAVNooFpSIkwDJSgUJCGVlGFCzLr875+FoKzHycwoMk9oygQLKqQxZzn7jvfe87lD7flN6f+7mfG8qfMtZymVjW/j62OQjMxAF3nFe/+tUjOCkyBIlCwY/lRrV+iGVDtXAQhPZJT3rSCNB63G1buosxxWVG0FOpBjn1P+QKOUJSxGLFf2OJKxfLDcQBgudHP/rRiDnl/WmbXoRJrEIqeVbHesp3zEc+x7Sn1p3rK9FQz5O5uvikHPcfC5PEWbnmmmsWd73rXYcFDCIJBqxN9iUp28d98cUvfnFsHf2gBz1oxET59Kc/PeIAwTftIQPsfvu3f3uQMyyByDBjU9u2L/J03kagEWgEGoFGYLsh0ATKCvVYJUqsMu2v280KNekOosxttOKHRJFMCk3QTOZMDK1yWVnm1/2ud71rmFKvWjpYrjtp51Oe8pThu05p6NQIHGwEqtK6Vl11FTd5KE9SXeWOgpUVb1YGlLYQGo5LyUdJk6JUU3C/853vjB1xrLRTnlmUeE5wTWBVwtIEWZJU3Tocq1YKezL1j4OGQCxJKvkWxRoR8Ja3vGVYSiDCkCj/7J/9syFL8tTxl9/Z3YjlA8Wekq/fKfoUeQq9reLFSqnWFcpVhmPeO9/+9rcH8caly39lCPTqPWMsGVcZ2xnHrkd0VLIgZEkFUR5pLSJRebF4qNchTWLBkTqMeS5ocUOThzWVMe97XmCIjOrYmxVFtfQRpPzqq68eRJYti2EJn8997nMLrrsIFSnWPQ972MMWz3nOc4ZbaYhV5/RdtmHeW/217f27EWgEGoFGoBHYrgg0gXIIem4jFiW2zdxft5tD0KQ7VFnbaCJ4+eWXj20qJauQZ5555oZ39RFIEIFy880336GeQ33gYLnupF3iAJjcnnHGGYe6qV3/LkIgq+NZCacYRmmaV+BnpXFWFJcpl44pOyv1yBIkiV1CuCZ4ViBLWAJ4XnBR4I64FiHiuHpr/JJ5hX8Xdd8hbyrsKfbIsqq0I5w9MxEBiAw788iDBMu4yXft65QRosUucZdeeulQ9lmfSGKSPO1pTxvxPpADrDZspWw8IWE8R7kB3ete9xrjqVq9uJ7M81gOkPNYyvjNfZF8CAUp7mJ+q6eW4xruQqwsb7311gWrEh9uNK5jUWXcC07LokqclbjczATRTFzuqWiDP+Ie+pCHPGT0AYuud7/73YNAQUhxBQpB88hHPnLIi2iCH5z9lirxtcGqO1sj0Ag0Ao1AI7BtEfgn21bybSD4RomSiy66aExEshq3DZq2R8SNtJG/O7NoEzMKzkte8pKFCdtGk5WxVUxcdyQT3YOV4MX8vVMjsFUIUFwpiJS5eUWZwkYBjILsm4JY80UJdU7ynwKcFXZWZaxKKLdWvAUKRRhzSaDgvvSlLx3Pw5Arua4q1LNCG8uWED7qdf1aCvFWYbnb6gnBod0hUFg46H9jxO47SBPvAJYjL3vZyxavec1rbuf2Il9IFOX5rYz0v/+Ud5YsCBPkw5ve9KZBlHDDeeMb3zjcuYwniv5ZZ5013j8zsed/Hbf+Z8wtGz8ZWyESKzGirc4nUGz6PeUHF0QhkpCVCctLlqbeb9xwnvvc547YMGSVZnlzTzoHCynWXMp3bK5/ZJqSckLisApC0iBPlMH9zX0Z8iQWXT/+8Y8HkfO85z1vWIdeddVViyuvvHK4Vd3lLne5HUk019f/G4FGoBFoBBqBnYZAEyib0KOzW8oy1xsKwnYmSsBE8bFKLF7JvrTRJO1LX/rSmOTuD9mwqgSKuCcCxx7MxMef8tGpEdgKBKLozcRJVqEpbCFPoryRi/LmGivwzPmt+DtvRduzwg4mCEfPApZ13CYowKeeeuogS9YiOkKUOF/rU2c9l/+z3Dnue606nOu0OQgYP5J+qKSH35JxdOc733nx2te+dhAGJ5xwwuI//af/tHjRi140ttZNCmmWchzX/3bhUQe3Ti45FHlWLY45//znP3/EMWHFEdeTlOk8UoIMyq274iBDlpEPIQFT/x4Bpx+u92FZ8k//6T/dY3WDeOCmSlYyuzdY3yBJ3vCGNwwrzDlVV7dqvUN2Y5js871Q2zOXN/93b7J+IadFGwS9j34JURJLmuwohGARUD7XHnPMMSN2CutS7ZHy7Jjr6/+NQCPQCDQCjcBOQ6AJlH3o0Y1YW+wEoqS2004EUXwEqUWAmOhulAwyuX3f+943fNetPu5PWkUCZSusT2BlopzVxv3Brq9pBPYFAQpaiAbKY5S2KLRRSo1Lv+XJ1qjqESCUsig+hcCflCoxjaywszxAmoSAyQq+8R2ChMLoeBREx+WvVjHqcbxaADgm30yShGRZRqzsCy6dd2MI6DcERVLwT9+kz8Tx+J3f+Z0RmJS1gwCzgnC73vM+1iD6zVji7iPY6/XXXz/6WByOI488cuzK89GPfnTxmMc8ZowR7ybkiVQJlASZNY4zltVBrhAnrC2UXS2v5vFkPKdN6nA+Y8txBIOdalhV+ZaftSXCkLUMkiJj21iPVQ3iBVkBn1o/2eQJwbPWGJ/lXK+3EqBd++FFRlj5z0IG/t7V2kImZdsNCeGiLbFKOeyww8a1Pvo8uK5Xd59rBBqBRqARaAR2AgJNoKzRi6ws+CQzt90Xa4s1ilvJwxuxnEGamNiaAO5r2qwAq6tIoGyF9Qm8KacmtZ0aga1AoCpoVblUd3UpoPx5NnLF4Y4gKCjyhMUUhZgrDqXW7mCUM8qX6xMQNEpk3DyiAMZSobbVueSnrCU5XhVHiqzzOZbfTZ5sxcj5hzqMmSjk3A+jVId08I3MQKBwF2GJ8oxnPGO4rjzxiU/c48by+c9/fjz37BIjHo5A2giTpz71qbcjIZTHOiJ9jhAwxowjY07KGPOb8u8cGWdSMNYWQStEUCXq6lgynllUCW5ursDKioWM4KvirJx33nmjjeqERSxLlO9aY5rc6omslfSJ9UnIymoxo90S2dL2ZeRK2lLbJJ8ytd/7nWWM/jjutkDliB/1iDfk/Mc//vFhJcRSRRtdZ6tj5JAtk7lIbdR1aJal/zcCjUAj0Ag0AtsVgSZQpp5jKWFCYZXmtNNOGwrBRq0tVnUQHArLmc0iT2C6arFhtsr6RNutWFIIOjUCW4FAXU2PYkbZY6pvy1cKo2DO4iQccZsbwlFHHTWsSgSF9u2aKH6UVOVRxLKKHqU1REhVTpM/ymFVDNP2vZEh9fxsoVIJoK3AcjfWEUuEEF6xsNCX6U/KeiyKBCVFnoiPZSthgV9tU23b+rPPPnu4uQgmHOJN+bVfjRUuYRkzrE9qIGF9IL+Pa0OSJH/Op69CupG11oME+dnPfrb4yle+MtxYyck6E0GCUGARc8EFF4x7IuNYG/0mTyVs5nFILseM3VicwC9ED1lCnsxy1TEWfNcbd2kT2SQWJeLGaI9g7YgThElSSElBbc0j5BMQnoXK4x//+DFPIuvcpvVk6HONQCPQCDQCjcB2R6AJlKkHTRguueSSxW/8xm9su749FETJMpA2kzxRvkmvCaSdFZgNH+q0VdYn2knZyPauh7rdXf/mIRACYVmJlQQI8TArR66nBK5HEtRr59Vp/3NsLpuC6MMCwOr6X/3VX43V5v/4H//j2BGHRZrYDciQmezQnliR1HZEoU57lxEhOTbLM/9fhtlGjrWLwR3jVBgjVSmP8g/P+jv41pgczvsYg8owFtLPGRf577y8LJWQb8gSv5ESYpYIJsvVk0XEO9/5zhFcFRlhq2EpxIe6IlfqkE9yLi4pxlId85Ez7ci1+e9bHimy2jaZjEgTllZkRS4IUIvgUW+1Wsn1Gcd1zNfxPo/DEDyRZa3rqqwH+rvW8djHPnbN4gTgTRKvaK00t2mtfH28EWgEGoFGoBHYCQg0gTL1oknQssnVKnX2RlxvDlUsls0mT4I7E+dVIFC20vpE2xOQcJXGX8uy/wjERH8ZgZBSq1IbRSfKWZTHXK88+RGMnlvV2qMqSZRCK92ul8d/q8bcI+yE8yd/8ieLv/zLvxwm/NxvrETf+973HjuYsMJTvmtjYRBZ1RlZItv+o9NXHmwE9FUdB/P4ynlKvd+VhHMdcswx1zlfx2HGiGPGBQsN8XC+9rWvjTGGkGAtYtcXVhtPfvKTR7ySkIC2IbYDk+2GbaP7+te/fvGCF7xgbE/M7cezMKRILFF8x0WGlYr3T2JtGeNV1hDRSA8yZryq373A8oWsZEbwSCysjrvNteXCCy8cu9BIaTtZlO87xw52/3X5jUAj0Ag0Ao1AI3DoEWgCZeoDPsyH2mXEzhVW4Hz7iJBv9YuSY1IqWWkzuTtURMmyoXuwyBN1hUBZVu9WHuOTbyV+qxIXHspDp52BQF2ppfxVAoIy5nwlPqIwRlFN/qoMVsU1imVW0UN4sBwQo0ScBrtpURQ9Wzw/bEsqboM4E9xwJPUkoGtkDlHjPIVTntoedXZabQRCKIS0MD70W8bXTNQZi66R/Hbet/Fn3IVkUUYsS4wvlhvyiAUiJs75558/3lnKQmB4piFjyEEG40msK9YntiPmJnL11VePrXK5mbzyla8c2xKr07hUhnc1Cz0kYNwcWU15f6sHucjFxG/yVWsR9QpK653q23VcWR72sIeN9yoLVNYwuWYZOajMSkDJE1xXexS0dI1AI9AINAKNQCNwIAg0gTKhJxr+VhAoguSZuJlohiiJKCaXmehup1gsb3/72xcnnXTSfu+2s95AXhUC5Yorrhg7P2xVustd7tIxULYK7C2oh9KFeKA0SpUsCRFS88gbawD5/Y4S6j8lVRlRbp13jcCuiVnCBYGSyZLE6r9tgx/5yEcujrjNBSEESMgcSmCU5CiP6lMu+aKMzib7UbybRNmCQXQAVdTxps8qeaLYECl+1yCmxkfGgd/GhvHFWoOLFwsTJD+yRGDRc889d4y3pIz3uHd5r+U+UGfGGiKFxQmyBJlhd57rrrtufE4++eSxkw33GeUhTyRjO8n94Jyxmrb6tvAg8CkCXDBU9ZDTrnK24RVvRaD0GsQ1ZeaeIGfa4VzFruK2R5j+0Qg0Ao1AI9AINAI7EoEmUKZuPZgECvcPEzhKuAC1Vris+lJkfExEMxl9xzvesXjxi1+8bWKxHGzXFpNlLjyHMiG99NtWprZA2Uq0t6aurGZXq5JYljgWxbIqu5RX5yh4UTbl89vqOaWQkpidw8QqYSnlGSO+BOUw5IbrojynxXXlXD3OV5LHtSFWZpQoo3U1fj7f/1cHAX0fIiTjL+RX/mfLX2SHMWBssC70jOeGc9NNN43YOCw1jDEuXwg5hMlM0CwbXynTmCGL/9laFzGXgLGsoh760IeOep/73OcuPve5z40PeZAoSBouZqw1yR5SR3we94m4JUge8nJ7RcKTlVvQiSeeuEBOk6GOffjkAxfn6tie887YrU5PtySNQCPQCDQCjUAjcLAQaAJlQhaBEh/qzQLd5JN1hmTCuZYFQ4gUE8DLLrts+F5vl3SwA6ua/HJlOpTJamtcHLZKjt6FZ6uQ3rp6qhJGeaRExqIjK+AUUb8pcxTZKKZW21mucZOw6i9uiTgSVv7tVmKVXpwJ1yA21FVJmayaR4bU739Vfl0ThTrIhEShNJIrZbnO706rj4B+MtaMORYmLDUyFowXfY7MQJRwb2Ehadcl/c2VxrbUL3rRixZ2ZZFCdqTlIQf9n8dPzjmesRmLlHp9xpJ8rvnVX/3VIYPPe97znsVVV121+OQnPzni9bAcCbGH+Hnb2942dpPJ7jgsrlhFsrpKu9U1Ez3wgEXkIUM+8rtPfOCQe6Wed1zq+yA92d+NQCPQCDQCjcDORaAJlCV9u5kuPFbPWC6YxDEX3kiy8wB/8O2SDrb1CRysbprwH8p0/fXXHxKLINtgIo+QKZ22NwJVwYwyFgUWYRIixVj/3ve+N1bRueNQZMUwQZIgWAV5tXWwHUEompQ7ylvKhFLKcsx5SiNFMcRMlOdafxTLqvxWCxN1zIpxeiSWBdu7h3aH9Po5fW08ICOMNXFMkOHGqWCuXGme8IQnDEumOna5yhhfnk3GVMZWypTXRzK+Mm6S17XGuPzOV7KPJYkxm3GWbYnJIpDrU57ylGFRwjXNu5I1jPJsJezDakW8FWUqP6SG/7knIkd6270gVUKIDNrgejLmPsk1xru03j2RvP3dCDQCjUAj0Ag0AjsHgSZQpr5k6WBydqAkSrU6edaznrXPVi0mr8zxzzjjjJUfbQfb+gQAmaAfKjB+8IMfjKqzreZWymFF+NZbb20CZStBP0h1RSmspIaqWJLYOpgia6WdIssijZsEqydkiW/KWpQ6v+uqeERWdsiUECfunyiQUXLlj5JLriiRKce1jkfprHnliYIZxXItYiXl9fdqIMDli2uLj2DCiDpjjXUkovq9733vIEykkCYhNDL24kYmj/HkvO+cNxaWjQd5QhRW65OMsYxRY09ZxqRvVlfuj//xP/7HIE4cs1OPmCgWJgRDjkWNMqSU6XdIw2uvvXZY1iiHdQqLLW49UoLTjj+3pUqMqM8nbXW+EirzvZAy+rsRaAQagUagEWgEdh4CTaBMffpzP/dzYztDBMq8olpXpDI5zAQzK1euEUzvXe9611gNO+aYY8ZEK0rN3oZQ6mSBYsU5KfXs7fqtOF9X9uyYoG0msZshYy0jv5WPRLDSuFaSR8pq41r5NnJcvcqJEuoak24m7FuVMl7IwlcfIXf3u999qVKyVTJth3rqKvP+yrvsXs2xeeXafymkxDwOcz6r8PLqUwqhFX/fN95443jWWDmnzL385S8fViYUwLk811fFdF4Vdz73gO9KllSFUr65rBzL91z2rBArv+bZjHtvlmG7/tfHyxIM5/Hlf8iqGeO5jPkZ61rkgH5OXyjLB/ngfNxxECaf+cxnxnMEGScuziMe8YhBniQGySxb5HF8HovJm3P6HwkRi5HskqMNVe6QIhkvOUdmY/R//+//PUjEkB3uIfIK+mrHqHPOOWcP6ZF3kTqU6/9MBDoHn2uuuWYsSijjoosuGlgILPvEJz5xtG12J6rjuRJCy8b5fC/M/db/G4FGoBFoBBqBRmDnINAEytSXJn/IEBOqqhxEqa7HqrKWSSPy5I1vfOPi4osvXiBjosBkkru3CXImZyaSyponzKsw9KLYmSzfcMMNYxVPygT7YMhochtl9GCUX8uc+0i7kFn86rciUSSMAx/9b8wdavelrWj3ZtRRSQI4SjOWtZ6qGDqu7+Wvx3O987n/ndc3laDw3PC/yuC/Ff+vf/3rY7eQL33pS2O7VEoslwSxJM7/xy1elWmM1+sdy3hcxWdBxbJ//4OlAwV+foYEm+qm5f2hT/V3JeDyHJ3LSP+nDOPbdVXx5+r34x//eFiXICHEyjFmf+VXfmVx73vfe3HhhRcOgmMmC8in3JAPxqH6MuZnMs3xvKvq/ZH3p3KySw45XR/5Kwnpt+DH3/jGNwbR89nPfnZscSw/9zQBX+3KE8u/mSCt9wo5Ij8M8xxVFixZ8SEoBZCFG+KIexxi3r3YqRFoBBqBRqARaAQagY0g0ATKhJIJGAsUk8lMMqNMmYRlkpnVNRM6x31sR/x7v/d7Y3VLIFrXZcK3bFVsWQcpx0QT+WIiLFUlatk1W3mMLJkwUwpNdpl+S8sm2fsqWyblrqu/4cHvfq1U866VZ3+OK1ebBZC1UrkVyRio7aGUCG58sNq4FW3a6jqirFXMqhIXeTKW8991OVavjUJG8Ypy6bfjqUs/xaokcUu44iBLBHkVyNKK/5FHHjmqy24nykiMmyiEnhuOzwriVuPY9e0bAjOBV5/dxk19D8xEWawYK3ESEiDvmFqG8YmUQz4gSr75zW+OdxB3FmPM9rzihRh/eTYndolWhWDMObKRV3KskoOOGechVTL2vQ/JVtuSGCYhvNMe3/LbTQ25w6qPBRY57ne/+y1+6Zd+aQRbR1THIkZ+SVm5H+QPCbPWOwc2zvnOPa0ubjsw8G6/173uNeKT+Y+g1oaK/ai4UyPQCDQCjUAj0Ag0AhMCTaBMgHCXEAOlJpOwTKwygazbLsprdcvWw0996lPHTgWS60KgmKRVv/Gp2tv9VYcylLlqE7raJubPp5xyypB9Xhlcr33rnVO+iXJVXv0+7LDDhsJ5sFOtO4qxyTpFhQK8Fam2nTzi8hgLMy5bIct2rKOSILP8M7bp4xz3XRVF918UsSiUvilx4pVY6U+gV5YmVsqt9gvy+qhHPWq44iiTgkZpQ4RJ6ogy7bw+low1/6tCmvy+q/zjgk4rhYD+cZ+GnKgkhP7W7/WcvPpcf+edokGVyPDfNT7GGyLA2EOcSMgH7i12pPGMmsdIypK3voOMa2XmfvEdQsI1/s8pxInj6qkWH1l0cNwn7y6WJch2cUcE4kaGI3d8kNKsQsih7hAZyncMLmlPlaeSHfKRtxKauWcjpzK817nGug9d753sWCx6Vu1dO2Pf/xuBRqARaAQagUZgNRBoAmXqB6t1UXacitJqAmYCZwIassB/53/4wx8u3vrWty5e/OIX7wn06bhyTIpNkF2XVbONdL1VOFYuq5i022qnCajYJyaga60E7o/8wbxeKybNVuCRyXoUCJNqk2yT9BBj+9OmjV6jXh/1BgcKBwKl08YQmBWh3KeOp3+VFEVvLtVY9oG/5L695ZZbxrbBXLm++tWvDrcD5IgtVmNZQomNUpr7Icoppc3zAFESKzbyIAUpcz5rkZCOk3W2CJjl7v+rgYA+17cZh/WersdJq1+REJ4vxplxIj9rFNYkiBIuJsYeEldwV1YUSLrz/9H1K2PNNVLGbcZ6fablmRKk6nObbBlrjs/3kWuMXeXlfL2fIrt3g/sFYYLkMW6RPLbXFqA2rpAhX+rON9W1qOKnnvyvMsNNyr1R5cn9lGN28EFghrBy3DPde8zvKkfw6e9GoBFoBBqBRqARaARmBJpAmRBh6SBGQVImW/k/x6IwmXv/+98/trc1+TPB9GHOH9LEJM8Eb18UIIRBJnv7ct3cwQfjP3n4qmdb5kyEozhsVp11MrxVFiiRXd1RROxSYVvMQ5FgbSyY5C9TaA6FTNulzpAXFTdKErIi91Q95173n8Jqxw8KK9ctliX/6l/9qxGLQRwJK/22EzZGsnIeTOKWo+6syCvXWPJ8kD+uEiFYXSs/uXyH8InSSNZ6L2wX/HernLOCX98hlUTPeDPm9Dk3LjFyWJlwyXGemwlLDbuxeQ6woEAMGEPGl+vUZ1x55/hW3rLx4liOh9TRR3nWZQym35KnfudZrx73EnccgVmvuOKKQZaIe4KoQJh4P3gvcimKhZWyg4Fy1Zm4Ke4Psit7liUyaXPuB/nIXvFeNubyHEc+cYv1fnc/u8fVg0RRTuKYLSujjzUCjUAj0Ag0Ao1AIxAEmkCZxoIJohgoJlazwuq/yZsJm0mZ/3bQEOzVjgaZyMXsWB75o6xtdIVLuawOTBZNll0/K2qHcgiTif/6k570pKHYb9Q1aaMyZ8Jb85uYqyvnlikIGy1/vXzKT9npZwSKXSDqufXKOJBzVcmJHMYCRaXT3hGofZR7NFchLKqS5L79/ve/P1bKkSZW+20nzKWANYk+54YTsiQKa8a7+0DKfe8eZXGWepMv97/8UXj1rfNZ0ffMyHXzcyfyr9IzYO89sTtz1PeG/jQ2Mj70tX6WvAvsNoOgy9ij2D/sYQ8b1iXnnXfeiF1i7NQxrXzvKCREJa7VEYsL5ceSJGPPsSpbfc44V4kI9dVx6nyu/9a3vjXed6yw7MDmXemeEnPl+c9//oj1Yytkqb7vat1kci+SP9jkvky9Oe6/T9qRNiu/to3MsRytz2/5ck5QWi5EiBSkCYIUucPdTqoyjgOdGoFGoBFoBBqBRqARWIJAEygTKFkNM+mSMknL5MrELhM1rh22WrzkkkvGRNBxE2QKUFYXMyGclbclfbHnkOspVxQm5UiRZ73rtuKc9nCl8Yk/eSbuayl+myGX1clgsRnlrVUGzNPn2qO9+plSUBWZta7fjOPp68hCIYB3VZA2o56dXka9Z1hzcYmwSs69gJvBD37wg+FOYFtTn4c//OFDmdL/MId/LSPKW8ZBlOG6Er4WyeGa5M84Vk9VCNVZlTjX5Pmhrw7m/bXTx8JWtS99pO/qswQxx+IBScdi46/+6q+GIs+6BOkg2KsgqsueMRmLxkLGUJ5R6pB8OxfrjuRzznXKyPNsJk9yvo4/7zNlclVDmgj6KtaPvNzFjKpSAAAgAElEQVTWWMa84hWvGLtISSHSyZ82eJfKn/Lz7Xx11XH9snarn8xpaxYTluUl+0zk5/q8T8nKBQ+J8uEPf3jgjbAipzL7/hpd2akRaAQagUagEWgE9oJAEygTQMyks41iJqOZ+MlqopUJ3e/+7u8O02pEglQnhXV1bD63lz4Zp00IlWe1j/WF8pZNHDdS1mbmgcnXvva1xYMe9KA9E86sFm5GPbBOebW9frPEEJCQ4uE/WWZF4UAnwXAmg3JSPwsUK6z6ZCtSMAgOlPyvfOUrt2vrVsixGXXAUJqxm8dy7jXHq+KZvqiy1DJzb1blz0o/qxLKKoWJwsrShGsBNxwr0aeffvriiNu2Ma1K1yzTWuN6bkvNt5Fr5mdDbVsdv+qp5c31bkb/7MQyjAl9WcmMtZ4L9dm+DF9j0fFcL7+k/PQNxd75/JfHeEOYGHvuXUSZ3crEATnhhBNG/BzPrvn+UFa1LEm981hIv6kzbViPYE3b8lyr91WuVxaLGM+7yO6+5I7jvrEFsmfvspT7aMZQfTP2cx7lVflq22pdedYvu77my/n6bnDMe/Tcc89dJv4dnk9LM/XBRqARaAQagUagEWgEbkOgCZRpGNiFZ97tpU4AM5H9oz/6o7EzDDN/CptJ73oT2I2ONhP2TMT5jSNQDj/88DHRnhW8jZa5mfm00yRbLIhMUOFT5d7M+lIW3K0UWumsx2pde5tY76tcUW4oERSEzS5/o/LAGb7bJZF1Xj0me5S2jBX4hgRDKuT+8Vse50M2uMeS4JGy9InVfZYltgzmWuA/kuSYY44Z986rX/3qEeiVS4Hy3F9RJNUpOX6o+ne79Ot2kXNW2MkdkiAEiL6uyn3Gou+ML7/zLA7BV8uuAYDtjCN2ibH3uc99blz34Ac/eAR85Y7Dgi1jrSr26kiZZPN8dYzFouMhU5In7xp5cm3ORW6yVssm52O94b7KWGddIuaKrXxZl6iTVYZn+/3vf//FYx7zmEGYRF7ldmoEGoFGoBFoBBqBRmC3I9AEyjQCrFIL5rdeMok16TzxxBPHqpZk8lsnxutdv5FzJsfInL/7u78bil2daG/k+oOVx0ScknrOOefcroqDQaBoc5Ra3wglfZPjURxqvs1ot/KklIu0Yf1yqFJ2bjlU9e9Lve4DymMUz4pj+ivn4FvvGb/jCiAPhU2eWqa4ERRVcSO44VBYbR1shdzq/sknnzziEUkhZNyv3LBYl9VkTKX+1FMV5H1pd+ddHQQqSaKP8yFhxl6ICMcyTpyTtz7LjEeEQyX1WJewwjP2sjOTsSdWDmsNz0YxNoypEBlzrCh1zuNf3SEGZ3cUcoZg8du1Gavkda+Qn5zqnNsnr3tA7CpbCnuGc2nz/uKOc/HFFw/ZBVet9666Qh7lWexYp0agEWgEGoFGoBFoBHYrAk2gTD1fd3sxkYwSXbNR3kxm+a9nsm2CLIDkgaaqXFKcs4XuPKk90Hr293pxI6zkx40mk+pYCuxvubnORD+Y+07ymwWKXRRyfiZQNmuCn3LybaX5zne+84E2bcPXp960U90JoLtZbdywMPuYMf1HQSRrtexwz9T7JP3nuPwUP4qjeCXGvmuRJVb37UoiYLPzYjCIVXLqqacOSxP5qoJKeVS2e8b9qVzkid81kW/+7GNzO/sKIrCMBKvPFPdzSEnHuUpm/IRMCQljvHEDY3GIvLvpppvGGEQ2sD485ZRThtWGOh2fiRLwqCNECjLCmJvJ9tSnnFhb5V6aLVbyzvHtOuM87qPKd9x/rjgIHvcOwsd9deyxxw6ih3UJ0keKtYt6QlqSIfVW2Vawu1ukRqARaAQagUagEWgEthSBJlAmuE2CTXgTKLYq8bKaYAsce9JJJw3FTTLp3AzyJKJkwmp1kAtPJsyOL1MOtnLEiCtBga1yRK7IeaDyRCmo5YRAufXWW8fhKEQHWtd616eNArgiMbaiTvLMJAlSD2m1VfWvh8lGzpG/uhDkGni6T+bVcYoahQ9RYoWc1dUNN9wwAm2KPcOlAGFywQUXjKCv7k3lqyekiPs25da6HTOe1KH+ii088wmRspH2dZ7VRcB4mPs591TuH+SJMVHHifHj2Y4kCWFnLIqlw8KJO45xyLqEO456jBllhtw21ioBqF5jNZYhIQZn9CrZ6Jwyazwt571rtEu9ee/4n7qRQixKuFeKX+L+UYbgyIj+pz/96eMeqNsJRw754BFLE79r/XDKuVn2/t8INAKNQCPQCDQCjcBuQ6AJlKnHTYpj6fCLv/iLY5JciYvvfOc7Q5kVEHA2ba6K4YEMpEzKKYsxIVdelIMDKftAr7WSaUIOkyidwacqpwdSj/ZL+fZb2UgMZMasBOd/FKQDqXvZtRQf7lTLiJ1l+Tf7WCxQ6jjc7Do2qzwKIwWvWkyR20fSVxQySh5lj8JqTCFLbNtqRxLfr3/968cKee1r458yGeUu/eGY347LYxxEyYySnPGa+ymWMXXsbAd8N6ufdmo51YIvY8GxkCp5RhszjtuGV5BXpIlvYyiknV2Z/Jbq2IiViuN5RiEwkIPOhaTw3HAsYyzEjbLyrCJXxmLKy/hWljYgZaS8b2IlwoXIPeSd5NvYRvSI92OL+bisqd99qRzlBSPlSyEXQxjnHoNV5Mu5cUGnRqARaAQagUagEWgEdjECTaAs6XzxLqzm/cIv/MKeVcZku/zyy8ck1SQ0SmEmpFVpXFLshg+lHLv7/OQnP9lj7RGlcMMFHYSMTMIpFpU8ioKw2ZPsqtwqGx6UBMejEGtiVbIPQpNHnayBNrt9y2RdRgJRvChAlVBadu0qHIvyl3bA7q//+q+Hkvfnf/7nI/6C/1zAkJBW88US+vf//t/vUeyiIFL2fKLguS984l6gP3Je2+squfERZdG3MeL+iTIqfxRZ5Th/sMfRKvTPTpehPpfm56VxwK0FUSKOCZcweR7ykIcMd5zzzz9/WJvUe7C6txgvsTIJjnkWxQLRWI3VSYgUhLt8xp6xttZzhHzkzz2Ua9SF4PHsFXuLW5u8CP6jjjpqBEt+7GMfO3b2SXLfSerSHnXX+8O5uOjsuei2H/Km/tmKbL6+Xte/G4FGoBFoBBqBRqAR2C0INIGypKdNhgUrNWGcJ5l/+Id/uHjlK185rsqqpMmstFkEirJSNyKnKgWjokOYxGS5293udjvz9ygRaykGByounGGL2KLASCETlhEOB1pfytcu5cOfArKVCnYlSyh5xlg9thltPBhlcHugnFoRFyvITh8CanIlQJI84hGPGHFL3Fdw1a/BNYRGVXzzW94on1HsYBIFETbJm/sy4zHfqS/truPVNT6z0n0wMOoyDx4CdbwYh3aXEWzYJ1ZOiLv73Oc+i8c//vHjWabfY50R0i33WiUEjRf55Jcybn1XcqFeIx+LxqSMTf/VkWeb/8p3LWsW1iW33HLLsNRyT/3whz8czz/xVp7ylKeM2CtkzztH/VLuiRCFkbWObXnIvOx57RwMq5z5vZXPv+DV341AI9AINAKNQCPQCKwaAk2gLOkRK4cmsZloRoG97rrrFqeffvqeFfBM1jMZ3UxlXpmJfcGkWl2bWf6SZo9DUSDq+RyjDPtt5VOKQmoinon6WuXuy/EoBfMEn1JgJbYqHSl3mdz7UudaeaNIbRV5od9nhUXdXIiQV3aJgssyJWh2LagKTxS8lJ32JI/jftcx5nftA2XIh8BAZFFO9QfFlIWJlXHuA5RT35Q8cSOUuyy45kxWzP1d+2TO61wlLGtb1ypnWRmpwzVrXbfW2Ojjd0SgEgnOGkPzOKpX5bxj6cPcA8ZannvL7vmUowzPay4zX/7yl8e4tMuMxDqDdcnDHvawEUdnvbRsPFXiLtfWe9Qx9Wds5T6SJ/dTrgsOynTOeFOn/9dff/3isssuG/J7/7BaQTqeddZZQ3b3VORTR8U0sVWCfX0WqsO9GvlyTl5lKNN3sE++ei/kd73H1sOxzzUCjUAj0Ag0Ao1AI7CTEWgCZepdE1fEhZ0XTjjhhHE2AWUT/8MqoYlolFF56iT0QAdMygqRM1vBHGj5612fSXJk0Ma0k+sFl4tM5KvCAY/NUkBnLCNTzNDXk3+zzqVObYI/JaTGM9isepaVExyj7ETZElwVeZXjcMo4lCfjpJ6nKDlOMQrBEqXQNca287XvZkVJ/yew5v/5P/9ncfPNN4/YJSxJKHa2PuWG8yu/8iu3W4mPokjOTrsDgSjguYeNJR//MxYrEjmfY3neeLYYkynHf+cSn8NzmksYsoSlhmCv3HOQdsYh4sG4jGsNgmWjyf2jXm2ZSTdtIEt99qV9rkt+95XkXaEsciMetUEesiIcv/Wtby1YNXLVRJi8+93vHtf95//8n0ccIG6kUu7PkCSOKUvdnouf/vSnBwbf+MY3Fscff/zioQ996HCTU1d1xbniiitGfSwb73vf+448j3vc40Ydec+NP50agUagEWgEGoFGoBFoBJYi0ATKBAtza5NKE2QTYskk2G44Jp4XXXTRHYA0ua0T2ztk2McDURoQOSbW8yR+H4vbp+zaUokh/6MgMCtnWSBFSd+nwvczcxR6wVQpTsvSrPQvy7PRY7PCT0ERvJYVyGbWs0yein2VQ93cyqQocfJWZa4qm/L5X8k3v6uS5/q4G1CeKFrax5rE1qf/63/9rxF3wc5L7olf+7VfGwrdy172ssW97nWvPfdI6lAfoilKcZRM/+d4Csva3sd2DgK5T4xVyTPMOAmp5nxIAeMmxEkdr3n+GkcIO+QAElfsEgQEAs+OYJ5JZ5555hiTaz2HPdc3+syq5AjZ3RvkU0Z9Fqct8muPc7l/c1+l/eRnFYOAZG2izVyJyM+VCDHq3sk9+cAHPvB2z5qQG+pgzRV5EDO2WEYkITOf//znLy699NJRxxOe8IRRRjBRJ1embAF++OGH327AbeV7ZueM9G5JI9AINAKNQCPQCOw2BJpAmXo8k/kogU6beLM+sUPI/6+9e4/2raruA74zOjpGRxNTH7G1IVUQwShqEkELiAKC8lAQjEp8JeCDVEUxmvggDkKMozWYBA0lvo2PQLSaIj5QQFFAhZiIaPCBQyManyigxrR/9J/ez7Lf08n2d849595zzr0X5hrj3L332usx53et/bt7fvdcczFkpWoAuK7G7qzJbbrUvl0Usm3vNjWyjZWqER9dyfPtb397LCFZpG81fLax26VqMb7m7Qgiy129puXKzuuu5Xrepq/YxgGJsBkpREj1CkEe0b1+Jc59hheCgqHEoMpX99w3nvkCzthLG/J9Bedd4o8RJnZJtg22C46YJWKXSPN5IU8f5PXnPH0Hp9xzvVoDNnX7uOshYA6aJxKDPEa5eZA56J4y5kN+RysR6L5lYeYmIu+yyy4bZXlWIBpOP/30ETA1bed5Ra56DvJbHFlCDK4FzRCBftdChqivzRAmOaZdOulb7JWPbtlG2JJPzxXik+cewsSzhNiww1olexYtcaNP4qdk2Zxj4pvol3yIJWTSfvvtN/pHpLzvfe8bAZsRNJGffALoIkDhaDxgB8d4p60Foy7bCDQCjUAj0Ag0Ao3AbRGBJlAWjDrPDy+fXtpDDHzyk58cL8DSopdNL9OLDMwFza86C1kTV/BVV1qHgjGANFV14vbtxb/mxdhXtp5vjxgxiHKMQRQCpRIc87Lb0++8bnCwlIon0JxYmZdfj+t4AMWw1CZjjhF08803LxlDMEl+DElzxW5BIVTUzVxVnzHHu4Rx6qu1LVwZXow6X+/FWmBwJZn/jDztmt9kq0adcsrI9xeCRB3XdEjeZmC3JHif7DAElvNiMP6M/xAFId4Iar5afsLbyZz80Ic+NObbwQcfPO2zzz7TYx7zmGn33Xf/KZ08A57RPCs1WKvCfru1XcnDn2pklpHftlqXTumr6qdf5T1PiEdH/29YUkRXO+Q85znPmQ444IAl8pU8acMxZCZSpD7TSBekqfaVoVu8uPJ/QogRnoFwUl7yLP+P//E/htecMp7HPIfaednLXja2Cke4HHLIIcODp/5ftzWM+n4j0Ag0Ao1AI9AINAK3ZQSaQJmNvhd8W1l6wfcS7drLvLgPv/EbvzFKxxj0whvSoBoE2zuh0r6v+dq1fn/+ZX97+1ipPn1rCpHgpT5GCrnmab0IlHm7rrWN2Jp7oKTsRhjo+pQQKFk+s0i29c5Lv7XdBBSWF6MrBpWxME+RJwwh+XbvYNRZOsB7inHHaHrgAx84voa/4hWvmPbYY49hYKofo46xpX95c68A+Rn/GJohDt1znrqZH9XgrF/c1xuzbm/nQCBz1zF/ITgcEQU8nULk2alJLBNz0rKVPffcc3rc4x43CAdzWaq/R/GakKe9zLla1rNg/nkO8oysBR1ya7t6nrhOHzxMxC5BqnvOPAtISJ4fRxxxxAhaK1VvFWVck8fRtWdDHxUr155vZEiIS88cvfNM+X/JOULbUiYYyPNHTu2SNWPh2p/fAr8BT3jCEwa586Y3vWn8NiBQQuBsxO/oWrDvso1AI9AINAKNQCPQCOzsCDSBMhshL6uMSi+bkhdL514sveRLeaGPsbjehmFeYr30euEWf2UzCZRKjjjPC348HHI/hkbu13rbOvFrm8HBkcGxUgyUbe1vpXrpPzFQViq7kffMAcu5eH/E6yQkCkPJ0iq7d4hZkjgRDFAeU+asAK8MvGqImrN1SYV2pWpwGosYYuoaX9eOi8Y6Y5fxCvGW8pVM2Ui8uu0dh0DGvs4P5J2teHlAXXzxxdPuW7xJeEnwfjryyCPH0TNmPmae0UAbeQbNO+fxCKwayq9zuy5xUS7kQy2zHEL6RFhrw7lnTtwVXiXkf+973zuWMXqekBACsCLc06dnAIHjOQqRoS99y6OH/BAqzqNjMKMjmSuBkzYcBYJFjpLNUhx9Ingd5TkiU/XhL15oyJM///M/H6rr9/GPf/z0vOc9b4yF3Yry/I4CnRqBRqARaAQagUagEWgEFiLQBMoMFoYlo9NLrZddL75e/g888MClF91UyQuvF09pPV5AaxsxGJYLnLpwRNchMzJE/xhFsAmR454EH+W9qC8yqtcqjnbSZgwLR3/5ervWNtdaPuOZfhk0cZtfa1vbUj6GXvDXBoPHMqIPfOADYyvtj26JsSA+xOWXXz6MJl++fb23CwmDlMz1C7g2QmjQL2SGvGCrTHR3Ln9OekS2Oub1Ocg8kFfnw3rND3J12nkRsJwEYSJgKg8NW58z8hnoloc99alPHcb9IkI45EhIOvPPHDaP8ptA8/p81vOKSsgD83cR6bISgoImhzChAznIj2iw1fDtbne7WxAm+Z3K72bIlPyW6SvPWfTI81HlD0mkPTLn+c+SvDy/xx577OSPJ8z3v//9gTGcLPGzxBKJqt073elOAztEjLYuuuii8TzbXS4edcojfPRZn/2V8Ol7jUAj0Ag0Ao1AI9AI3JYRaAJlweiLtcHrI8aiL/s1gGhemFM1L+jrQSDkRdbRC7OXddvX7r7lq231GFgg9rpkVaO96gkLL908IVLGS7tE7/V6+Q7mcyxzLS4MjyBblM6Npyr7toJRjZ7ob+xhvxkpRpi+6lwwD8Qted3rXjedddZZ00Mf+tCx7WmWOyg/94Sakx9zTNWZ583n9nI6K5exShl5y9Wf97Ncu52/dQTMEX9zTFciqWJ8qxNiLT3lOUp7lcCo81H5eD7Fq0PMEnE/kHlIE3UtE+OhgcwTm8OciBeENrRZZQ1xoP/6DDvPHI4cVTZtaZs+8/mofOrWNvOMZJmP31bLiCwpEmAVKYFAtxWy5+vJT37y8DCZz/VgV+f7fO7X8anny9WZ95HreIWljWBpRyx/CBGBdi3ze8hDHjIILDvsIFSl888/fwRAl4dEsSQRmcWbRjDeBzzgAaPcfD5Fxz42Ao1AI9AINAKNQCPQCPx/BJpAmc0GL91eMBkK4m04txuEQIabnbxA+3qYuB9r/ZK6LfIu93KvrSzhWURybNbLty/XcVOvsi4yKLdF/6pHjDxfcgW53IxEp7nRql96m5tnnnnmWPZgXkoxjJ3PDbDNkLf72HwEzBF/xj6EgrE3dxEDfjPcZ2g7mjd1XruuBEaeI3X9xmQeZR4iHZRnyIu5IW4GrwdeUPIP2RKI1I5N2Y439UOMaEcb+f1yXVOdt/PfH/XybCs3b5telWRRVr/1t1KdECc33HDDIEqQsHbJkS/2CpLkj//4j4cey/2WVRJo80f9Jz0GU1ewIiuyx7jYovhtb3vbdK973Wt4pCFU6GfceLEgggWO/eAHPzj99V//9SCK8ltiHP3NSdcdpWf32wg0Ao1AI9AINAKNwM6KQBMoC0Ym7uUxTrl0WxaxyLBdUH27s+oXUzFZfCWtBs92d7BCA9V4iJGWPESOl/Kklcqu0MV23UIc2FJ4bpCtF4FShYuht/sW7x9LZzYr1XkWg1L8F8bNTTfdNMgTcyRGYcpX43OzZO1+NhcBhjByIMazZzBzQV5iiShTCQv3Ml8SlLrOM+RAlp5kuZolY4Kl2h2Hhwki+a53vevwMOG58MQnPnF4QOjf3NRePFP8XuX5iVxbQyrPcDXm52RGPGBCpNAphr+ywSX5Aq0iFuhgOY4+LMcR6PWcc85Zkh/pFNnJqc2QFSEVNoPA3hpG9A6uZKSn32TkVU3yEWLG9Oijjx64SIcddtj4q/+f0JuOTZ5sDf2+3wg0Ao1AI9AINAKNwJbQCg3CLRHIi6UX1QTWRBz4QrnZyYuyJSuWE0nV4NlIWerLdT1nvMwDNFa5atmNko+hw7CbG1brSR4E57SJQBFrYDP0q7ilf/0iUBg6vGGkavC6jjFVg8Bu1Bh0uzsOgYyv8ZY8B9WDI9tMM6A9r8g2ZZ0jhv2mVYLYHDPfkQPxYvjHf/zHsVzM755lLJZ4POIRjxgeCyFmQi5oOwa943y5SX2WQgzPn93oQp8QIClDXnn6pVPdtUaZ6n2ivnhV4pfY2YenjD7Jb8nKiSeeOALAzomQ9CU/8sqrcsonZ8V6R80COFTdjS3Z5cVLBi5kpX/GyNjkvryqH4wzPjtKr+63EWgEGoFGoBFoBBqBXQGBJlBmo5SXSi/q3L15OyAxNvPFuX4JFOSPEUGuGCobPbFqP5WYqC/oMTSqLOtJYiynIwLHmGQ8Iut69V11z1wQ98U5EoUBtllpTqDEA4iMMQJjCJGvyZPNGpkd309+D8yFGPeOPNbiaZLfEfMopIk5wjPBvBHbyc4ythUWx0T+oYceOuILJbZOyI1qbMezwe+SPszFGOaQ0X+IkMjiOt4T9Vmdtx9jP8+3Y33WY+RrI8uILEmhBxnIbvcpy1pOOumkpeeV/PHeCcmEeNAOTDxbMHK93G/bZv4fsNwMo3/wdk72ultPfheCU8VPm7lPz4xT5snOoN9yend+I9AINAKNQCPQCDQCOwsCTaAsGAkv0L70WzrjJdvyHWnRi/WC6uuWpT/kDcJgM/uvBk4MNXm+ZvP+8MK+yBiqRta6gTBrCB4//vGPl3LrV+H1GJ+qezqhFw8kX7U3mkChT2SIPq4FkeWJZF5Wnc1PRvN66L5RY9btrh8CWW5hTmSeONZnL+eMaKSB+YH8u+SSSwbRYB7zMhHvA9Hg982Wtua4Op5vc6x6JCBNGOv6QmKadyHsQkhENr8Nka16e4Qsqc9Y1QNKVQ8Gfua1ts1/XiW28LUsx/bd+iL/85///BEo1Y4/ZKMDmdNmvDa0Bw/thXiAUWIKKV/lUz7P5Gb8vm1tpsSTCK7GR6IbHWBBJ+fuhUwjt78a42ZOlsBjjsPWZOn7jUAj0Ag0Ao1AI9AI3BYRaAJlmVHndcADxUs713WpGq7LVFuX7BguXt59FbU1aDWs16WTZRrRTzUUGBPpmxEvBkdIhLnRXg2PZZrf7mwxF2IYaYysczm2u5MtDdQ2ndvClOF5wAEHrEfzK7YRHDPf6Ah7hqqlPBkf9xlJkjrV4F2xg765yyLAcDbuxtqYxxCOoe+aQS1eiflqOcuHP/zhUee4444bS1mQJeYzo9lfvFOAwhtBWUlbmVNIE33kuno9ZA4uIksCdIz4Cvz8uSWLctHB7+/nP//5EfQVaeK3R9DT3bcsqbONrzgsef7pHCwiW2QOoaLvlKuy0jl4VnmdV4yr7DvqPGNFp2BF/uq1WD3Roht56Qyj1K0YyK8k0o7Sr/ttBBqBRqARaAQagUZgZ0egCZQFI+TF3ounLS15fyTuxPyr3YKq65qlPy/DPC684NcX3nXtqDRG93lKnpf37AikTCVM5sTLvI31ukZs3XzzzUuGHBki33oRODEUq1EieKadOzYzVb0Yg4w/Hjj0zNd5RhSDyFyp8m6mnN3X5iIQoz5z37wUJFWw68svv3w8H4hG8Uvud7/7ja14bWGLoIjnQs5znWdn/juT37yQHeaYc38hVs3BRc9/iD7ozMk911La5/3gtwVZYjkRTxN90cGfgLV77LHH0rOuv/RP9vrbGG8T+f7iUUMebYYgosMiYodc0Tf9LFduc0f+J73BLiRRcA8BRM7qERTSJOOtfCW/6m/dojHcEfp1n41AI9AINAKNQCPQCOzMCDSBsmB0vIQymO084WX+Gc94xpJb+ILi654Vw8MLLZd0JM5mGccMmhg7MSJi5CBzqiyVsCDz3EhaBAzjJrrkpb6Wi2GWPucv9Xvttdd09tlnT8985jNHNW2QQ5uMsPr1dVH/q8nTXows5cliqcOb3/zm6ZRTTlnSMzJG76rbavpZVCZjD4c65vRCoiBQpBiy5HROlozXonY7b/0QgLNU53+dt8bEdeZHes78MF/mz1aVro6jOvqp4yvYKw8Tv02CpiqPZDBHH/WoR03iJvFYkq+vzKOQDOZYlb0+a4tI2vpcz+d45mudt8qkndTVh3NJWbLZGpwelhVdc801g/jhYUKP3/qt3xrxTMgZvELZnLkAACAASURBVCvmc2wrfot+KyNf+q9t1bo5Dz7q1bqLym52XtU9stW8RR5BdeyrvPntrLhstj7dXyPQCDQCjUAj0Ag0ArsSAk2gLBgtL+z1i7+vufWr3YIq65pVX96zdCOGRDV81rXT0lheyhmCXsxDYsDAV+KQC9VoItdqDI2qR17qkSDa1L77iwyEBIBkVCUmDJFr2ZWMqtViFeO1GmFksmyJnPpIPyFsgtF6jE01niMzwxO28UYyJ1zrL3iuVr8ut/0ILBrnzNs54ReyxHzyl2cqUrhOHBt5medpx9wSrwRR8k//9E/ThRdeODzi7nOf+4zteJ/61KcO7xL9q6tedspaJKc+Mm+UzdzSjzlV51/ID/mRJzrIy7zPvbSb34HIo9w3v/nN6WMf+9j00Y9+dCzL4VW32267jS2R7ZJjWREPE+SL8pFd22RazW/L9o9st9AINAKNQCPQCDQCjUAj0AisjEATKAvwYThYD/6jH/1oGBiWjUjzr68Lqm53VoyRGDK/8Au/sKnbGKf/KFK//vJ+QKDMjXZ1YjxtDYCQDzEslQ+REp3rV3fn8uNZ4uuq3Teq0aYNZdL21mRY6X5kiMGWa7FHzAlf/X/5l395+rmf+7lbeLuQcz28X9JfMI4h6ah/X+kdK94ps5JefW99EAjhUA38OhbzeVPnpLpS3QUGIWFOu6cdcT/simNJDtJE/CMEyYMe9KBpzz33nM4777wRB8czMycb5vPPXJoTDyFo9OWeP33nmau6kDXxQ6JvSENtu4es0Ua8yfIbiTD57Gc/O5YV2RIZCeS3DBF54pbthI8++uixzKimGqsk+VX+RR5rt2jgVnABV3+S37hF3jQZA1hL5pg8BHTq9m/CrWAytAqNQCPQCDQCjUAjsFMi0ATKbFhidNz+9rcfQQu/+93vLgXXW/Qyu96jmhffGNJ3uMMdhsElbcZLcV7Ao1c1qHz5/l//63/9lBzKRN7V4JEv2/OygsMu8kKpuAuMyVhIXvpmbKwHgcJgq7owUkLwiCfxve99b9pvv/2WjOAQOYzXtWAw173iPW8neolBY07ywlmUNmN+LOr3tpRnflSc6/Nax20+FvldcUSYOJpXfl8+9alPDcLkE5/4xMgT6NUylkc+8pFjhxnjH3IhxnMwr4SkvDwPzt2byxGSxbyV6DN/bkLwyK/3BNTm/ZR+1A1h4rn4+Mc/vuQl497hhx8+SJ8Xv/jFIxZLUiVp/RaEKPDs04/Mwdl5dMhzuNTQrfAk4+c4//8m20dnTNwP8WZcM263QlhapUagEWgEGoFGoBFoBHYaBJpAmQ1FXtgRF772M1gRB3OjdqNGsBo8DIvsJIG4qLtlbEb/c+PLF2Rbh0oVDy/0MchWI1f9cq1erhmWMRK0Uw0C+jMSrr322iXDwjIAniDkJEOMudXIsFKZqptzSdsPe9jDpve///3TUUcdtfRlvxIujJm50bNSP4vu0QUm1ZBSjhwMTMuX5gbvonY6b2MQyNhkTOpY5HkxVpUkUDbjaTcZMT94ZgiUqqylOEgTnhmWtWTLYHMrXishF+RJvDHUTf/az7255pnD9XnOvHUv8joiKUJU6Dt1zf/EVUH6XH/99WNrZDFM7PJDDvFLyP+ud71rQkAnpY/0r+/8XqgXHfQx96JRTv3ldJvruqtfz3Xl8ed3H3ZZmqVM5kUwdUzsk4qBsnXcd3V8Wv5GoBFoBBqBRqARaAR2NAJNoCwzAggUBgIjPkt4lim6IdkxuDTuxRmZsxkESgyVaijmnPu9JSxSDKCUX4uBEz3ytTkv/owFy1NylC+4pGUM4iZ86EMfGjsjCaIpIU8kRIp620tejMa2pBiUdEqbjDuxGl7wghcseQPEkyaG5np9IY/BE+M17ZsHNf5LZM1caUMpI7hxx0qYGJcQJY5IjXhQuSdmCcLEM2P+Ih4Ehb7//e+/FChVwFfzLHPHMxFDOfOrxgiKZnWuVa+NueYhL/J8asucNleq8Z37cw8XZT13r33ta8dvkN9EJAcvKHFYfu3Xfm3EL/mlX/qlW5CqCM8s7wkpUMkAcqZPhJF+4lERox/W9XfltrCEJ2MSXf2uwYP3j9878yy/ScFJXki3+W9g/ybMn4i+bgQagUagEWgEGoFGYPsQaAJlAX5eSJEF4hF4kY0Bu1kvozGcIpqYBzxhfN3dzBR9ycNgYyTZMjUG0bbgEa8RemgnX5wRVQxMcR8sBxBsUtyEvffeexibBxxwwPTCF75wOvfcc6c3vOENt/A2CZGyKIbCtuBVjback9P5EUccMX3yk58cMSkYhMaG0RJCaVv6m9eJYZR81/pA6oVAkVfTvM68zb5eHwTqHKtkCoKNEXvRRReN2B+W5Hhu7nvf+04HHnjgdNJJJw2vDHGE5s83yUJsmGdZoqZ98ypkSYxqx8wJdd33LGYO5rl07bzOZ2Xlk8G96KA9+foXv8Tzd8EFF0xf//rXB3FCbwTiySefPO2///5jl7Ka1NWG9mARkjQeZYiXM844Y/RrVzNLepT3F8Koep8ppx3tRZ/1IijXZyZsTCuZX3Slf8YonnbBJHMmv0ubQa5vjMbdaiPQCDQCjUAj0Ag0ArsWAk2gLBgvBgdjx1dUyde/vOQvKL7uWTGwYjjwxEA8MFKqMbTuHZcGKzkSY13Qxx/84AdLBMq8/9UY8QwBhhKvEgSJJTmWMjCwEASHHnroOJ5++unTve9972FABA/tI5GMiwC/PIOCiXu+/m9vWqRDjT+ByGEkP/jBDx7kSbAxLovqrlUeuiZlDDLmcMmcnPcVOdbaX5dfGwKZY8izbCfMu0TgV+Si4KjIAdvwIhyNIcLDGIascI4kCfFBAucZQ0ax80q0uA6BUNsKSRIt6u9DJXjcDwETo9xRu+RG+CTgK88ZyxZ333336dhjjx2xTFynf3Xqb1HmrP6ch1AkS/DyrPz6r//69OYtW4GbwyGM6nPjNzYEQZU9OtbfpLWN2q5TOnjBIR45pM88yn04h3yuYzH/Xdh1NG9JG4FGoBFoBBqBRqAR2DUQ2GYCZdFL2/wrZF7UQTF3DV8Onmo0pExeClfzchgjQd2c1xf8tJEX1CpH1QlREAODcS/+x2alueHjq7UvwYz3raWK3yLDY45hxowhEwMlxo2+3M+Lupd3uPEUgUeMPvXiWaK8FEMO+cDQtJRBAFg7ctx4443DILOFKe+S448/fnzRXo6kCh76YZS65olRCZT1Mq4WtROjBQ6MydNOO218TY/xR55gvbXx2dp9/Qc7Y5lx0T53/hAo8utYz6+31s+ufn+ODf3z/NbnuM73nOf+/B5M4D/3fJDv+eMdhfQzh81pBAOvDEtynvSkJ41teBelueeEfvNMKU+XOu6Ro7ZFpnk77meuVM+E+TOY9lM/xI+lRXQiz7777juexUc96lGTZUWJd6LuomUh9Tmpv1d5JjI+0UEbfjP8lvE2q7poK2My76vqWPG4tZ8Hh4ptxWyOefBY9Pt1a8eq9WsEGoFGoBFoBBqBRmAzEVgzgVKNkwg6Dwoq3wugF3N/6jAYvOS7rl8yvfDFkHH0Ylhduasxv5qXw/qSmXP9XnrppcPbwddihsIxxxwzdoiQav/RiZEvX2K0xlDJ/Y08pq/IxZihwyLSZy7HohfrjAOjZo79XK+5oeba2MVrBGnxuc99bnroQx86uja2+uRZgiT70pe+tGRs+qoNR54rgmTe8573HAba3e52tyWyBLZk8lfHfa5Xrhlh8ciRF0MjY7WaObJc26vJh8cjHvGIscQBmZJ+Yziupo2VyiySX54/elteAfN5Odd17FfqY1e+V5e3RI/MYcdK1NbnOvO6Eqww80yoUwNwmlM8SpB+vDLskqMcws8W1pZx7bXXXrcgQdaCaeZKxtC4kdW4OuZ+HU/nIUKcVxKITpWQqb/R9EZc0gVx8oEPfGCQl+KXCF771Kc+dWyTTBY4qBsicz7HVqOjOnTI70wIGDr57SBn9CKbc3Xmv0Or6avLNAKNQCPQCDQCjUAj0Ag0ApuNwJoJlLmRQmAv3FnmkBdhL855UXbk0VF3ZrAsxhd1L895Ua8GhXYZ1F7E5XvZ1uZqlmkwBMjBEGKg2yXCbhHiaTz/+c+f3vnOdw4D2JdWruX6YUBFXt4UDFX3LBVxjnRZTd/bO4CLCCqkQYyn1bQfwkTZ4BsjJcZ3sJ4TDyEkxD2wZITBo4wxRobA7Dvf+c5YciNfPJAvf/nLI9CkL8tixzAufZkXXBJ5kmCS87kDd5gG9+U8UKrOZDJW4qTMUwzmef56XsPn4IMPnj7ykY8MAiWpGubb01/GRRtzoxJJZVxCas3vb0+/u0pd89GzIMEBXuZPfn8yXzMX8jz5HVEvRJ15l3t+Iz74wQ8O7xJbCfM2QfKJc7PPPvuMeRzvkjrO2stSnEWeE4swzfPmmP7rM5o6dMv4ps+Uz7W+JTpHDs/mVVddNYgSAZjJePe73314mPj9O++888bvGhwqgZF2qsxkXOscU4cs+a2s8znxX/Qrabve34znt+rX541AI9AINAKNQCPQCDQCjcBaEVgzgTJ/yfUyL3lhZhDnS6gX4xpwEXnCAAgREBdxdfPVOKRLXu5jUDNwnK/WSAnpom3B9dS3awSD18s7Q0IcC1+X7SJRiRH6JU4H8kRSfzPIk9HZgkSetWxfG4MsTcVokz83iGLAwKWOJaLCeBgzuPuCLW6Jtn7zN39zYGhMjzvuuPE1m0cKkmmlFMNfmRhZ+teva4Ta1pLyDMAQOMrP9d1aG9tzHx7in7z0pS8dzZgjDENG/PzZ2J5+1K1jlXmJpArhlLGLYb29/e0q9ekLg/p7UD0e6BGM4CX5HZDnWfa7hEAVe+fTn/70uEaK8S7hmWZuS5UsyZbaIWLSBzLP2Jjbq/19qvM1ZALZMp7mlDlOT7LpI7JULy2yIEzowLPOkhzxTJTnXXfqqadOD3nIQ8Zvn+R59le9VYKTfIkM+b2oMo2bq0jqw5ZM2tlvv/2GDH4//Y7pO/N6/lu03s/PKsTtIo1AI9AINAKNQCPQCDQCjcCaEFgzgeJFPi/g9WXey/7cgyDl3EMAMMq9NMdoyAtzXuIdqyeLev4YBDG0Yygtp2V9Cc92uNdff/10r3vda8nA9UWWPIzwvMTHAIoRgyxgEMnPDgebYahGnugRUomhtJoUgqoaJ3QKltV4055+lKVrDEBf4hlAjDFGWbx3xGDxVZ63ycte9rLpMY95zBAp2OWor5Av7ms3Bi8DFp7ViKuE19Z01PYv/uIvDrIuemXMtlZ3Pe7DyrxCxr33ve8dBrdE363NzdX0X+dv1YveWSaV5yXtxeDdjPm5Gh02skxwDk5+j8yFPKMhCEIGyhcU9fzzzx9kwyWXXDLKMuwT7FX8HQQevI2huuZszh1DlNAN/vqvz9pqyRPPiPp5PlNPe3l+kCeSMllaRAZ68ryyNM5OP3/7t387ylhaZHncUUcdNTxmajIn6KNc5HZfnj4zl+hefzNqG5lfq33O/EYcdthho720STfn/g+oWFUMl+v/Fgr1RSPQCDQCjUAj0Ag0Ao1AI7ADEVgzgcJotIb+kEMOWXo5Zmx7qeeZ4CUYCeKFPy/oltC85z3vmZ773OeO9fYhWpTN11YYeNn3pdKXYcaCF/G8bFeyZiW8vJD70048GgQ91RavF4lRoq8Y4OTQT32Z57Ifg+YP/uAPRvwA8m9WioFINp4eljytJsUgioHnSLdqnNCL7srCwRIcmCNKHI2dL/K+XL/4xS8eu+GEjCLDq171qkGeqJv2cwxmtT/3GGzKV0M3xjBZVmuAKmd5RQzk2s9qDbzV4LhcmXjK+KpuGY94KHTO0pH1liHzwJFhjYBKHvzmZMpyct9a8qNvPJjM1RBX8iwVRCyIYSLmEc8p84VBLwCxbbA9TyFa4FJJYdfmWMYxbcPc79qcJK7zTzspvxze+V0ka353lM0zEG88R3J861vfGvqILWR5kf55enkmn/jEJ45dqfLskDGJftrPn3x5KVvlDHlUdUk72vS36N5yOiL6qhz1d9U9z4s+yVDnb+b1cu12fiPQCDQCjUAj0Ag0Ao1AI7CjEVgzgeKFl+EoAGG+jiJV7nvf+44XbYkxGQOE0fHud797GH4XXHDB9LznPW/EykjdfG3NizojW7BBsTWcS3FjXw1YDIS5Me4aAYCsIZcXeuSKoxf5Sui4//rXv378SV72X/7yl98i3sVq5NjWMjGK6c5oIY+4IwikeOes1HYIDPVSP2MBY0SXL/GOvEvEdxGnxLIURuaznvWsgX81HPWXL/DaP+GEE27hfRHDMTvxKE8PyXzRf9pTn27mSIwneSm3km655yu2WCDBSH49X00b21qGHnQ76KCDxnMAQ7uwSMF5W9tOG9WQzDl8LBUyj+m6iDhZj/63R/bNqJtxRpD6HeFFhvgT9wORa2z8NvHIOPLII8fvkhQCVn1l5h5QISz8ToUAUBam+fM7kd84eZXM8axtjTwhR37nav+ea0ke7y+/fYiTK664YhDBtvYWV8jWyGIM1b7pQs78juX5j2zxNPEbuChPv+TWpnakzKPovxbyZDSwJcFbf3OShCeg35dgmvKOy83rWqbPG4FGoBFoBBqBRqARaAQagR2JwJoJFDEvrrvuukGK8Oqww4OXdLurSF6CXXvx9zLPGPAy/djHPnb6n//zf07f/va3hxeKcgIdMh6OPfbYsaRGIEeGOs8H13Z7ufDCC0esEl/8n/zkJy80HCuAMSDI4AXeyz+DSj8IFF+htat/wVlDntSvx3am4E2DGOKBwfhg3KyGwFivwWRokZH8sCT7DTfcsBTPYLl+Qh6R1TIkX+Kzo4ixYojtvmX7VbFfeJFYvsDI0V/0iwFVMYkR5cgoZbQ+8pGPXCJH1Gd4VoM/MlZCgHwxQt1nAEbmjN1yuskPJjwNKvmlnW0x9Fbqa9G9GK/6O2SLF9b73//+sYQici2qsz15aVe/vHfiLaDNRSTK9vS1K9TlUWJJXrylzBnLcQQtPvHEE8d8rvM25JznHHae4/k8MR9DaJjDlfyrmNQx1q6U3wbnq50D6R9Jcvnll48lcTxMPH/IUvNKXCFbI/ut1JffgLRPXjqGFHGd37E8S5G7kjp5DvWfuaPNPO/qVGzm86vimvbnx5Spnjq1HjIo1+mbXFWmeZt93Qg0Ao1AI9AINAKNQCPQCOwsCKyZQPHSy4D24s+NHJHipdhLfoyQvIQr6wv90UcfPbaxRVwgVBAmXtp9xT/77LPHDhfK8Srgli5mwU033TQCvWoXoWFnDIbN/KV+DmQMCDL483LOKPKFmus+0oRrP6+LBD2NYVVf9ENaIB0sP+KhEa+ZeZ/reU0/Mof80TY3fYQBWRBAMXiCB/ktwxFIEnZXXnnlOMKVd0S2D3acG4+RXZvz5QmLvqiTC27nnHPOWNIE72qEVWOstl0xqmXqeM6Nv0W4wiYeKLX81ubFora2N8+cEDDz4x//+CATY6zPMSBzJYq21m+tX3WkNzJSP/GEqUb0vN+t9bPofoio2hb5JXmreQZru3NM6jNWl+XFuE9dc9rSO0SJbYR5TInJg/xDAiKtEKp3uctdln4TImedtxW//D7NdYyu0c1cCkESeVzP51vqIT5CzFQ96jldLcP72Mc+NghoMUwQKJ5Hz+VznvOcSYwhz/o8ZW7n2dVv1XG1455y9VmpvwfL/TZEnkW/B3NZF5Wpefrw2ypVfebt9HUj0Ag0Ao1AI9AINAKNQCOwMyKwZgLFS+/DH/7wYQjwIGF0c5WPccJoyAszr4nLLrtsLPlAWPgTzPGII44YxpglCeKpvPrVrx6G4ROe8ISlHXAYWoI8qs+wUWdrL/gBWHlGPUNBP7wtGGRktjQHqYD0iUFB9mrg6sc1d3mJB8wiw2AjBjRkTmSDJ88Dxhf3fsYjoglBgpASs4RXD2IFXu4LcGonkRgqkRMm65EY8pZA8RIiJ5f8zUyIrCwRSL+rNSLXW067D4nxs//++w8DO2QJeZxnDq6GHFqNbNoxR8zHjdA5xrW5EkKiGtz1XBnPCTmib57/1I/enmfPFbmz1MtvR8g3OvHCQJjkqI75zIPscY973NK24xWnivdqfh+qF5lzcgdLupEjefoJ4UOPkCrOlQkRk+csBIx65ieCBKl59dVXjyMPMuTx7ltIILFz7PqT35X1ejZXM4e6TCPQCDQCjUAj0Ag0Ao1AI9AIbBsCayZQYlBYZiPmAG8UhlC+JseoE0vgda973Vh68sY3vnEsxWHgKCeQI68SBglyxTVC45AtruvaQhYwKPRxj3vcY5AuPFRWE8RVPf3E0GNg8TrhBeOvGoAgi+Eyz6dHtlpGUKyXAby1YULmkJkhp09y8aARQPLGG2+c3vKWtwxih/fPvvvuOz360Y8eu9LEe6R+4YdviCHtrMbA3Jp82keeWDJx6aWXjqVZEpk3wqCfy6MPxBsjPP1lzOdlN+I6esLTXM6uRLx+eFSRCc6LsKhjs62y5fmYb/m8qL9t6SOkyXyuZC5p0xytes77rnM3MoQogJn5LPaOOY0UjDeG5SrITstXkKmef/Xq3AqJIS/P+fzZXUnvkB3aqQQjuVyHCNaGZydy6y+/AXW+RXfzUXwaJK1lRggT8nlOecs87WlPG8+pdoKxPsiRtuc4rqRH32sEGoFGoBFoBBqBRqARaAQagc1HYM0ESgwK27ciPk4//fRBQsSAj6s7rwnkCUOIR4Svrgwlrvj+BIBkkLzjHe8Y3hIMKsshxDoRWNZ2nb7YIggQNX/91389dqPg5r5SIks1qBglc8OEYZSvxzGKGDFkp5821EG8SKvdQngluVZ7L0Z2jLsQUzwcTj755InHA0+efL0nd/RN3RhldKGfMu7ly/lqZVlUThvwOfDAA6eLL754xFEJxpsVI4YHDIM1qRqki2Rez7z0VecUDyzeWAzlkAu1zzwTc1JiW+TyXFnOhWyYz+ttaW9eJ22GWMzYGvc8K+qEyKikgjlWSQjPmHaU4THFE8NSM15lcEQ4IRjE0vH7YE4vIkPIkDlcCY4qu34q4THXK9fxEiGT+apdMi8iIJdrA0Gkjlgs11xzzfhdSwBb3nlIIDGU6DQf8+CZtuf3l+uz8xuBRqARaAQagUagEWgEGoFGYMcjsGYCJSIz4BAfjHlGQIzEGEAID8aKnSMY8r7OWmJivb9lJ4wp7vk8VU499dQR54D7Po8WRhKDRgwURgpXd14pi4yrOYQx6PTNOKrX+eqsnUVtzfNCoNDPbh+5nve5ntewipGn3Rh2SCUGmS1Za6Ijvcier/VzDHJvPeSMAYjQeclLXjKM+JA89Yv+evS1qA398UDRZ9JGEAmL+pZnLoQoMjbGypIwZJIlVYxnKc+D85AR8/m1XB8r5fM8sYRrUTIX1guLGPZkj/zRxb1KpsiXZ/zhYWwEMOZdwhNDjBgJOeqZtxzHkrNFxBIdQlLlSCftZ6lddM9czP3VkBHGIN4m8/kaAibkbn0WeaHZdQnJ63cKiWLpGg8kywuf8pSnjPglZKhyZEwc85tEhrmsMA4BtWhsO68RaAQagUagEWgEGoFGoBFoBHY8AmsmUGKwMy58OY5HClUYAQwDhgAvgaOOOmqJqPDlPMSAmAa8UBgje+655yBWkCSWpwgWK3F3t0yEYcpw4XmS7WJXAxsjJcYYA8u1P0ZbjJd8tXZNjxifrt2zhEcdJJEv6JtBoNCNHDG8yOuasYZ8gqEUI4ys8sgrb25A17xq1K8Gw+XKxNPl4IMPHjsn8cCQIvNy9dYjn36WgNB3vmvQerS/mjYY8pnrjuYODHhT8aiIYR48QjasBz7xQCHnfKxXI/vWyphLISSUnRv65hOdoz8iwTOLKPna1742gjWL/YFgFWzYEjzBXpELIdoiQ7xJ8hzmGcz8n/cd/Ob52nNPWg0mxiPlzGX9k0W79BFjB2HCs0Q8FgGzEbl2+LFLDrLEckBL6eo8mJNKIUzSX71P3tQN3nNCJzj1sRFoBBqBRqARaAQagUagEWgEdg4E1kygeNln6DDGjz/++FvEPolh43jIlngmMQwYCs4ZX5KddkKmBAbGhSUqEsOYh4M6iJMYWjGSVoKuLlWJkRQDTb1K+JBTv9qlD5lixKirX9cMJfFHNiORpRqIMbqQNyF0yEFWMpMxuNJdXX8Vb/nKzA28bdEn5Im64tYwLpEH6SOYb0vbq61jTPTDUyDnq627veUyb42Tv8wnZJ8tjXlWIQgzr/RX52HGalvl4PWS5UsbgTX56GU8M4ccPUMhHy1pE+cDWcIbQ0Ic+bPtNy8TuGgn+vJA4z0DP3+VPFFfeeRF8itmaUde1TkEReb8ajClh7GhC5l4M0m8ZeiEMLniiiuGvrZHRuy+9KUvHeRlfS7TV/3NQxBpO6RlHWs61N+8YKudzCXni/pIX31sBBqBRqARaAQagUagEWgEGoEdi8CaCZS87DMUGBlZxlCNA0ZAYnRQL0ZB9YDQTk2MjbQREoMRV7/253olyBhiMfJj8Om/GnPz+oyZuRFGFjra+pgHii1UNyPBtBIilfAR+8LX8RhpMXbpRodalu7agl/yK/mxrbqkLeQFD5QzzjhjOu2005YM5m1tdy31MlYM7pqCw1raWmvZYK5ejHlYGJdnP/vZY0cpy6wSMFS5zKVqUK+135Q39gjGjUrmDHwzzkgB3heWJzlecsklw7sMoYAoQnpmK+HUreMQrxPkSeZfMDRH65zNsx5s81xG1/z2hEiZExT12VkOH23o185ayBJ/POGMEY85egmMbAznZE2Vo8puHtIjy+2UqxhoG6YrEZjRaTm5O78RaAQagUagEWgEGoFGoBFoBHY8AmsmUOqLfogRhkw1ZmJ45H7UrAbEImNibmDGuEo7+Tq9NdhSr/Yxb3vexiJZGT48YCxH4NIfoygGkzaiDZ8/sAAAIABJREFU63oFUI1xqd3Ir20eKJZJ2Jmkpmrk1fxF+FZjda7/aq9jJCMMGJGCZlpiJahsPAzmWMNRmuevts9azhiQgRHPK8iSimCwHBbb0s9KdebGLiwkW3Ifdthh09lnnz39t//234bRXEmr1RI8Mbjn+si3JCYeKNVjw73gW8/nfcJOnrJkk8yLjKulagK98i6x8xWMESR2fLrXve41YhpZQhWyQL2kPENV7koq6Eff5DM/63yMLtqYy1yXamlbn4613LxOMMjuOHb8ed/73jf04snFq8yc5TVjiREdV0rz37c58TOvWzHY2ryfj/O8rb5uBBqBRqARaAQagUagEWgEGoGdA4E1Eyg7h9gbJwVDTGLQ8YQRe0Qsh/POO28sT5AYTzHgYqhtzUharcTVEMwXdcQRckIg3R2dGLiWPsQTxq5Agv0+7GEPG4ZxjGjn/rLEiF5zI3dbddEOvHk3VONzPTxstlWm1EO48dKwrbFdeUJOCJaMeNhaqkScc/plvtEZkSbGyNwby73MRUcYISmqV0aWmMh3bmy++93vju2EkSaWrphn4hJZkpSthCsZR6ZKHpAvY7Ca8VVWe56vnJORLOrHs8N9OvnzHMrPMxd5XNNV2ZBY9DI/6cLL5Itf/OLYKQe5tc8++0wve9nLRswlOkqROXrNidStjVffbwQagUagEWgEGoFGoBFoBBqB2w4CTaDMxjpGWpYRMeB89XdkuFqakRQDzr1FHh/bO41i/OqH8b2Z2ymvJDtdGZqMVYb2pZdeOraYtqQjCSaM05oYu9uLEyz8MZhtk12T/B2dGPrPfe5zpz/5kz+Z9thjj+Epg3AwfiE4VpIx8047OVce1q4tMfmbv/mb6VnPetZoD8bxHoGtevHUch68EQS8Qa699trhWcKjijeGcbI7jjmOMLE7jqTd/IW8kF9lmhMm8+tFekbWkELKkCEp5Ex0iN7aji4hf+SZh8gpwYzFMbEch64IPfg/4hGPGF4mVZe0nbgs+k5bi2TuvEagEWgEGoFGoBFoBBqBRqARaAQg0ATKbB4wSvMVmlHli/wPf/jDQQ4wPO08xAiMMbe9hMB8GlYSIOf6I4ev6Ts6kYURzQMiyzN46CBReFxUj4eKTcVsPXRASFhekvGC1XqPxbbIae7Ycppnzlvf+tbpBS94wcCk4rJSuyFZ6IIIMAfhHaxt8213mEo6pL2QDPpy/r3vfW/sdiWwrRgmdsmxBMw4IRUsx7EECkESD460tTUySh/Sovm6kn7Kq5tnLF5DyXOkt0QmZIc6IVaQHjxOECWf/OQnh3eJa/F4BHw94YQTBsmZ9pEt9JNgmjkCn7Spz63pu5JOfa8RaAQagUagEWgEGoFGoBFoBG4bCDSBMhvnGKYMWUbV3nvvPd1www0Tw9UuHccee+wwzmLwVZd/Rtl6GGLakWLsMTLtFnLzzTfv8FkZ/eAUY1/wzTPPPHMscXI/nhHKxGBeL8FDDvDsQGzBSn87A3lCR/OBwX7Ill2oPvzhDw/y4ld/9VeXDPqt4QCzeF1Ubw/16CkODjLtq1/96iBD4BvihHeJP55KPILE/8j238cdd9zwMoETDOdEAtKC7Noiw5ygkV/n96J5vihvkb71mUmfjjxJbNOs73iJCN5MZ2SZ5UaWiyljhxzE3UknnTRwQKLUthJTpcZgmRM3MMgchnXOF8nceY1AI9AINAKNQCPQCDQCjUAj0Ag0gbJgDlRDyldqhjoi5U1vetMScRLDNQQB4221BuSCLm+RFQIl7TkKesnA3NGJLPWLPqwkWxkL0slDR0L6hNiATcqth/wMX54TjP4QAnPM1qOfbWkjHhWOp5566vTKV75yxNtgyM8JkeXap1PGXjsMf4QCHD/96U8PIo3nhXlpG2nxVq677roR5PXXfu3Xxg4yCBNLWBbhkjkbsoQcZKsEibyQVcqvNL/jwbGa+Z8+kDu8iJAl5rXnDPnz3//7f59uuumm4WUjoO1d73rXsawIEcTLhNcMMjGYkHMeD8b81J6+YGQnrSTEivyMhXYiy2rkX2qoTxqBRqARaAQagUagEWgEGoFG4DaHQBMoC4acQcawY1w5Z8g9+MEPHga7L/8M4hAJMXYXGaoLmt5qlnYYq/pO0ocgmNl9ZauNbGCB6u3BU4KhCqtDDz10BE+1C42lFzFgI0p0ctyelPq8EL7//e+PppKXMdie9re3Lr1DovCS+d3f/d1BCiBTGPa8R1ZKxt14K2u5CrJAEt+DB9S73/3uEfDV0qDHP/7x033uc5/h+SMwarwu0n6IQLjUc3M31/rTV5bKVDKkjtVK83stxIN2/CGU4CQWi2CvyBPLcixT82cZDs8m5MnjHve46fDDDx9ykons8VChK8zpDjf3v/nNb05/9md/Nsq/6EUvGrvu6NP9Wu9tb3vbIKR4mFn+w8vsUY961ErD0/cagUagEWgEGoFGoBFoBBqBRuA2jEATKLPBZ0DGuGOMMawsh2B4iWvxpS99aRh11ZsgBuR6GPDa0J6/GLPkQErsDARKlnb87//9v28RN2P//fcfHijwQTDxLpiTTGsxtFd6JuHij3eBVDFbqd5m3YuesOL98MQnPnH60z/90xFcdmuJLgx/pAIs/SEWkAYIBX/imQhSy9tHX5l38cZBJpjD+g9RknNzKSQNWdQ3t+W55y8kRx2veq6sMsomf7VjaykOfZAcvGeQcMg3W4XDx3IcXid0kZCWWV4T+RxrIk8lRnjgWGr3+te/finuS302gwmiRjyYBz3oQT+1PfjWxqnvNwKNQCPQCDQCjUAj0Ag0Ao3AbQ+BJlBmY844iweBWwxPBq3lEAngecQRR4xaMeQYcDFat3cKVUO0Gop3uctdhkdCDN3az6K87ZVja/UROnCJoYvceexjHzudf/750xlnnDEM4xjx2lovGWO42176U5/61BAzXjGr6aOO7SIdQ8bM78Xoll/L6NOYLRq31Nl9992nU045ZZAoz372s8fyo8htfvFwsiQHWWJnHDFMjDfj3rIcHhhIAencc88dBJ4diNInGbQTOeAuT5JXzxcRHfRJGXPOuKa90ciWVD1W5gSG++r70xaPEG1I4pYIvoz0QURql04HHnjg0Iue8pZLISprGbLoJ3PPeZ2Lrnn/wD26VZmDl2VPMEbaKBc95m0HM/mL8FtO9s5vBBqBRqARaAQagUagEWgEGoFbFwJNoCwYzxhmDC2GGOOMUcrwe93rXncLsiQGeQ1WuaDJNWdVQ60ajL7Iz3dMWXPj21EBJjHU4RSjkseJODHu2R2FYSopz3hdL8Mz7VjCA/tq7C4y7OeqMu6T4CpFn5AIMdZjfOtH2/IrAeO+fPUQaIz9nJsP7hkveZZg8XR4ylOeMv3e7/3emE88MD7wgQ+MXXvs8nT3u999OuaYYwbBYt5Jwc+5PsTCIfcv/MIvjPtS5KVHlvEsh4X7wYAu2nedOa+9ipH7mXPRVxupp5/kO+fVgTCxLOayyy4b98Qu2WuvvaYTTzzxFtuA68t9z5e6y8n8Ey1/8m/F3zmdI3ttB4YZ37SbuUp2BNQ///M/T3/5l385XXDBBWMJFO8e20RLIYy0r7y0GvmqrH3eCDQCjUAj0Ag0Ao1AI9AINAK3LgSaQFkwnowmxhYDjeHL0JJ80bZ0RewNXgAMKtcxOGN0LWhy1Vkx8lRguJFFP45IA8tW5gRKSIVVd7IdBclS9Qy5AwNyPeQhD5kuvvjiEcyUYR99quG7Hd0vtZeYMNUoXouBG2KiYhcigqwSneRV7wd5CAV5DPdggTwJeREPELLJtxxH/BKEiWVOX/jCFwahgEx5y1veMuaSRCbt6SPzTx/x5rBMRVnePbvtttuoU+dLZB43tqSMTXDRzjx2SMpqx1yOruRWXr5xrf2kDdskX3HFFdP73//+oR+5eMpYzmXp26tf/erpP/yH/zDkUAc+IT3gnr9K3kSe5Y6V3Mk5uelYl9WZH/pLyjg5Zqx4nhiDfffdd3rnO985YvjwiBF3hr51bq1FxuVk7/xGoBFoBBqBRqARaAQagUagEdi1EWgCZcH4xbhmNAlAaXlKjGPxGnxhj9FbPU/Wg8hgtCU5j/GrbV4edihh5FWD1r16vUCldc8KRgxuRqk/csDHMhReKLbvFTSVbNXwXQ9heGIgk4J55FlN2yGmlhsvOgV3ZIlyCACEgrox1GOUyzM/zIXELrFkxRbGlufwJhGT4+ijj57OOuusQTggTnicVPJEO3DSLqIhc4ss8foQK8R9R8l5PIFcZy7Il6rhn1gn9Z6xoZd+EXRJWYLlmixksBxH0NXPfOYzQzfXZOS1IZCtnXJ4flTCSf1c62M5zOnubzVEBXmVs6TNMi5zzTU5eJFohy76C9mTsSKPXX88S3/xF38x7tNPfKOXvvSlw4OG91TFNHOhtrEE1C52ApsQafPfDLjIyzObsbo16L2LDVOL2wg0Ao1AI9AINAKNQCOwkyLQBMqCgQmJwfBjhDkyYBlS4p+84x3vGEfGY4xDhkkMrQVNrjqrthE5UpknQHaemTc4N4bm99f7uhI7MXpjmFuq8cY3vnHsEMPIZZDNg85uqzwhCMRA0XaMPPKsFoP5OBk7deU7r4ludYwZ3Alsqg6Dm0eJbXeRC+7f//73H8Y8wgQGEkLCPfImGOxpp502jHnEg34il/78kSU7HYUI4B2BwMluPnUcInfmYu6RM/rJq/qHHDJ2DGttOze3r7/++unzn//8UvwSeNsNh3fJCSecMAgg9ZXXfuYBnRAYZJfnz/hrs87pyKUNf6m/tbmRcYKB3bHEU5Hm44okqZgqA1eyffjDHx76HnLIIUtLryqBtDUZdtX78Mh8poO54i+4RK88V67rPKr5uyoGLXcj0Ag0Ao1AI9AINAKNQCOwrQg0gbIAubmRh7hgPOZrO2OW4SyobL5Ur5dhoR39x6iMeIxUBiMPFCllFoi/oVmMzmqAxRtAp/LJxTvCUh5LOF74whcOeWC4Xst4tIfY0neImbnxvBoQGI5wrnXnuqUM2cXN+MQnPjF95StfmT72sY+NLXiRCAgT8U2e9rSnLXmGaNOY5eu9uRNyRltweslLXjK96lWvGkuexEWJx0SIDG1Uoz5jjhjIfKTnfC5UHUKMxAOojpdzffgjG/0+umWHHMFs/+7v/m6MGbJEfJAnPelJYzlb9WJJW+kv40tm9+JBg3zMMiCyBu/6zMif67FoDOdziH6VeEn79OE9hszJGLhnqY65yVPmwgsvHPFn9tlnnzGuu29ZokdfctV5HkKq4rpItl0lr+Kf35mQKIt0yDitZnwW1e+8RqARaAQagUagEWgEGoFG4NaCQBMos5FkJDDIqnHIIBQU07IR97j7W4ZhiYpUjcL1mBgxZmK4MAAZPQKHZuveeT9k2Iw0NyLJWg1UMjNyGamMcTuvWBIRQ329ZEQgSDxyxLJYbapG4Hzc6nIdOlmiYimOJSLXXnvt6ItXif5e8YpXjJ2Z6Jt26G3exFsENiEu4rVCzhALyB8kiuUwf/iHfziddNJJw2MlRJSy2tdO5qO+EAPIG4SGlPniKMVAVlZbGTNERuTR9ze+8Y0Ru8QOQJYe0e9Rj3rUdO9733t68pOfPMiglM8YZylb+kj/5FTWff1VUiN4xFgnl/Yib5VxKLBC0kfqOk8/2kr7qsPL8+mZCRkSGcljGRziy3K8N73pTYMIQxLx8JFqWyGYqs4riLjT38qcdYyuxmA+f1xH54z/Tq9cC9gINAKNQCPQCDQCjUAj0AhsIAJNoMzArQa2WwwLBi/PjxgcllxYfvH7v//7GzI0IUOqwaZvsTQY4jsykYMxFWxiHLtmcPmLUfv0pz99es1rXjN2L2L0r6cBKi4NWW6++eZBaIRgWAs2wVkdhIygqFmKI7YGeffbb7/xh1AQIDXzQ39woGv0CtkQGVzHCM299El2y2Vc/8qv/MoIKvvHf/zH4/rXf/3Xl8g55bRvHjq6zwPlBz/4wRJxE8NX2cxR5SIfeb761a+O5TiIEoSQ5TniryC3DjrooOE9c9e73vWndhnShjZjYGe8g4O206fz+XyITPPylWBRjw76mmPo3jwFj+RX/YM3OQ7ZsjyH3PpO/8cff/wS4fewhz1sLEmqJAEZlI18znO/6jCXaVe5rqQImZF+EtzrOOZeDcy7q+jYcjYCjUAj0Ag0Ao1AI9AINAIbhUATKDNkY6QyoPK1/fa3v/0wWJMYG+JY2LXj4Q9/+DCw5ksLtmfAYsjEeM11lhJpO3LmnuNmGXjxaJjrGE+CGLQ8GASVff3rXz+deuqpozjsyClF5mroy3edPup59SS48cYbR7l45MTIjYHo6C+GcMZHG2T45je/ObwveJZYrsKjw7IOZIJdWezOgmCIjEPg/yez45wAyH3H6E+myKUd8roXkiD36Ipg+qM/+qPhsfPud797bG982GGHje2N1VVPOW3Y2Yb8GXuxRnhJBUdlv/Wtbw3CBFkiqC9Cwe44PC0QB7acno8F2SuBof061pFXufQ9P684LFe+lsl5xWrR/ZpX+5Zf+6nnkX1evubXe4vm9Wr03Jq8O9P9Oh/JNR/vKmslTxZhszPp1bI0Ao1AI9AINAKNQCPQCDQCm4FAEygLUGY0MfIZF4xRsUd4PMTLgTFuKYdlPJaqZEnGgqa2K4sc1YDTD8M4JEFtfF52uzrezsrwYXzxluEF8JGPfGQsU0EGhORxpAdMGfchHdRBFEnKMNyUcb96N1iCoh/LbKTsrMJAzA4yzkOC2YparBFeJhdccMFoi2y8LgQEFs9GH/E4CO5IiXne1uCJkRodtSWPLjFE9eWvejrQnUcIouOyyy6b3vve9y7NMaQHXZTnCfOd73xnSQzkid1+eM3wNPngBz84+kFe2U463jPV2yCVo5vrRfNqa7r2/UagEWgEGoFGoBFoBBqBRqARaARuKwg0gbLMSOdrPuNX7JPsKKI4I1aciA996EMj+KSYKMiWuvXrMs2uKjvGe/2arqKAl5YShXSojVWiZVWdbFAhsuXLNeNcesELXjCdfvrp0+5bgnTytMgOLYgSREbFTR5DHv4hHUIyhMByn8dIgpWqb1lLEqLpy1/+8iBtxDDh1aEtyzV+8Rd/ceyiJH5I3RkIQVbbSFshPOiyGi8jZcgbQkt9upBdXsaOPHV83SN3MEPMHXzwwWNnH4TPGWecMZb2WO6DSEGWvOc971nSTx/KC4L6G7/xGyP2h7ZCOs3nJjndX8kDYYOmSDfbCDQCjUAj0Ag0Ao1AI9AINAKNwC6JQBMoywxbNW4RF1nCE0OUYSq2hyCUDFeG8nrFC1iODLGUiNEf2eblGMTzvGXU27Bs5AGM4IMQSPBUBMArX/nKsZSHnPEy4TkSDx7ECPkRBMlj6MOWziEXlLGER2DfjMf73ve+sXvMlVdeObwxLB+yxa0lOc985jPHspfUj/J1ZyDkCXIjGOovWDr6q2TDcgBmWQxCQ52QQClfCZno655+1Qnh4R7decZox04xyCDb79LR8hxLjniZCH4qDoz66sw9oiqREiJnrov+pB09f5bDtfMbgUagEWgEGoFGoBFoBBqBRqAR2NEI/MwW42pztm/Z0Zquof8sZYjxfu655w6DVYyKeEPY8hWxwki/4oor1s37ZJGYhsifAKd/+qd/Or31rW8dhu58yUU8NBa1sVl5ISAcI0+Mckt5Pv7xj4/gu/H+yL26Sw1Z6TYnUhj92rQM5/LLLx/EgeCrCIMnPOEJYzkODw1kQmKChAhBLmhTG/omX7YIRsIgNuakQuRwrITaarHMuDnq21EfIStCpmgveDnyMrJNcuK0XHfdddMd73jH6cgjjxy7xyCFkCdJ83EXENeyMwmu+jFva37VwTw3Dpnb9V6fNwKNQCPQCDQCjUAj0Ag0Ao1AI9AI/ASB9kBZMBNCTIQMsLUpwiReEIxN5AnDm1Er5oTjRiQySI6MaLE8yMconhMoG9H/WtsMZjDKX8gR3hIC7wpsKh5KEsM+5IVzXhiuESPIAXE9PvOZz0xf+9rXBpEl+KsxOeGEE0YcEzvIIEjmmISggFPIE+3F+yX9V48N7USHeL4Ef0RDjcOyCJv5Ep4QRJUscZ5xRRJ9/etfH3rRz7IweY985COH14xgxYghMvLWQfpkDpiPdWmOevoLeQJL5SOD/GARHbWRJUeL9Om8RqARaAQagUagEWgEGoFGoBFoBBqBnyDQBMoKM4ERz/hMDJS5FwKjFnEiFoXjPM7ECk0veyuGbSUiFNa3bYwZzzG+YxjPyy7b+CbcIGc8LBjmZKvkwYte9KLpT/7kT8ZuMLwoEBqWPimrHv142lxzzTUj/sc//uM/Trvtttv0oAc9aBAJdqb51V/91bEdL4+W9AV7BIH+tRk5EBoIk1zHyyJESfpFPhjvyJrlMCFRYL018gS82qBzXcIjXx5ZycPDBGHCG4eu7t3vfvcbev3FX/zF0JeXjPlVSbIQP+LIyFcv5E8IInLG6yREirbkKwuH+TzOtAgJtQnTpLtoBBqBRqARaAQagUagEWgEGoFGYJdDoAmUBUMWDwFGJ8M0u/BUA5PBzaC2ZESQT1vhPuABD1jQ2tqyQobkmNpkSfDV5MUQJmP1llhbj+tbmtyRK54nSIqc89yxM8zTn/706alPfep0zDHHDK8LsWQshYKpeB/KHHfccdOee+45dKvYI0jucY97DK8UAWJ5ZhgjfUshSchRCZOQKLCsRInzSkQoJy9l4KtOCKutIRYMlHcuJgtZxWi56KKLJrFs7nnPew4vHN4zAtumbeXpGrIkMsT7xL2QIMFkvvxpHsS3etxUQkZfmTt0Wo5Y2Zq+fb8RaAQagUagEWgEGoFGoBFoBBqB2wICTaDMRrkSF4xLSdwJQWRjzFaDlYHOK+LCCy8cBEqM2hjzMYxj+G7NCI8Ru8iY1T+i4Pvf//6QKX1Frir7aievOggJbdQ+4+GQtuftxdAPQaG8v3h00LMG1SWrwK8CoFrGI+grL4xjjz12+u3f/u3pgAMOmMSa4V2xqM8qW8gMO83w5kAsRffgPpc3bapbx6K2m1gi0V0bIStqu3WMndM5hJo611577fSVr3xl+sIXvjBdddVVow1bE++9995jByBjGG8W9SuJQb5F+ideS72X8+WCFy+aa3Mca3uLys9x7OtGoBFoBBqBRqARaAQagUagEWgEbqsINIGywsjHUM9SCgY2Q5rBGgKB8WsXHnFQkAOIgASY1bT7jNZFRvEKXS97iyFtSYak3Wr0VuN42Qa23KhGuzo1eCoiIDpqQ1mJ/CEe4KAO4sCSFDrCJP07WlLzrW99a5AkluI4fuc735ke9rCHjW12zznnnOG584Y3vGFsCf1bv/VbQy/91KCuZPE3N/zl8eSw/bAUEqKSERmj1Nd2Jb9Cergv3zhXImQ0vCXVOvSlu36RIEgh3jPil9jS2vbKvGwQJpYdCW5rR6CQHKmftudjmPw+NgKNQCPQCDQCjUAj0Ag0Ao1AI9AI7FwINIEyG48QEiE+3E7wTQY+DwkEgnLxvmDwn3baadNZZ501lmPc7W53W2o1BECM+UpWbMtUsN3uD3/4wyViJm1UeVdqNwRDCB1y0UciG4M+eiWWRq5TJzqEmHCtrLgkiJIvfvGLw/sC4YIcQSScfPLJI5aM/tWDnyU6Bx544CBTXvrSl06nnHLKWLqS5TRkCn6pR76QKbAWM0WKbFWvOkaj0JaEyAghggBx7qhPODgPiYLs0J46xlj67ne/O1199dWDMBGDRXrIQx4yAr6+4AUvGHFMyCpF5uCVnYfGzS0pOOR6tWOY8n1sBBqBRqARaAQagUagEWgEGoFGoBHYPASaQFkF1gx2hrQ4FAiULFNRlbHtHgMcUfBXf/VXY5texjiDOEs1GPPVi2IV3S4sop+bb775p+6tdvlFZIgXCuO+kjrRjfzxmqAjMiFBSXVuiQqy5Prrrx+xSxAKiCMeOEiEJz/5yWM74ZAvETgER3BDqvzhH/7h2Lb3z//8z6dnP/vZE5IofUfeED9IB8m1nXh4giwiHuZ4KBNvGm2H5KieIWRTJiSKfm644YYRv8TOPzyM4ID0sRxHwFfECZlg6Fi9VciQfrQ1j0Uir8o5l9n9To1AI9AINAKNQCPQCDQCjUAj0Ag0AjsHAk2gLDMOMdzjJWDpDM8PcTcY2jGOHRnP7omFwivh8ssvH14JMdiX6WKbshEo4rGQr3owrNb4Tp3qqUGQGPryK/ETbwyeHuKW2BXHNsTKIUr22muv6WUve9kgFNQjx1yWSiK4h4RAUlQy5KCDDpp++Zd/eXrNa14ztu61K00lPOibJUTkRfDwCvGHULrTne407vtD2lSiSHnyBjPXaS+6u/Yn4KsYJv4sydGe2Db3ve99p0c/+tFj9yB9hxiKzuSgUwiZtKtfeqqj/YpNZFRWmuOW/D42Ao1AI9AINAKNQCPQCDQCjUAj0AjseASaQJmNQSUl3Mo1bwfBWxEFUjXUeUG4LzGyBQpFoDCeY2wjIqphPwpvQ6pxP0JAxPCey76oeWXJTraQKMrlnJwIoS9/+cvT5z73ubEUB5FAj0MOOWQsyRHX45d+6ZdG86mnTWRC9WYhj785USBP+TnZwkPjxBNPnF73uteNmDJ26eHhUVN0deQd4ii2CgJFisdP2q86Jv5IjuS67rrrhicNLxOxTNTfd999B2Hy+Mc/fgTrnXvRRP6QMvqty45cwyJ9kzG4LBqjEExznKrefd4INAKNQCPQCDQCjUAj0Ag0Ao1AI7BjEWgCZQX8Y+w6Iki+973vLS0XCTnAOLbkJB4IDG9eKJdddtlY0hPjO4b9Ct2t6haDXiyNyBZCQeV6vlJjZGXwM/AtS+J1wbPENrtIBMtzEBeWqtDnSU960iBMQrzM2w4WSAJl4mlRCRJlEAX+eGlE/sgfPZx+AAAasElEQVSiTUuEyGVJj62N3/jGN04PfvCDhxxSJUPg+o1vfGMQE4LV2vrYfe0vIk9gxovGcqOvf/3r46i+bZJtmayPZzzjGcPDaE4E6Zuc+gwZEtIj97IsKDKGDMlSLtfurXaMhsKdGoFGoBFoBBqBRqARaAQagUagEWgEdhoEmkDZylAweBn7vCMs04lhHHIgBEA8EJQ96aSTple+8pXDqGeQIyksAapLP7bS7bK373jHO44lPPO2QkgsW7HcQJYgSXiY/O3f/u0gBixT2WOPPaYXvehF40heJEH0jEeFo75CFLiGiTbmO8yEWEkb6qQe+ZEfWfKSdkKCHH744dM97nGP6V3vetfYItruPYceeujQQrv6RGhpm2dQkvyMEYLEDkB/93d/NwLc2jFHO2KzvPzlLx/Lccgd7BI0lgyVLCLb3MNEH8pIuRfd6lhU7xX50hxDeU2sDGg6NQKNQCPQCDQCjUAj0Ag0Ao1AI7DTItAEymxoQpjIdh7DHqmALIlxzDBmQFfPkhjISI5HPOIR06te9arpj/7ojwYZEeN8PhPSvvwY7ekj7UUmZcUGsWPNM5/5zOFRIaitpCxSQlmykZWRjzS45pprRkyPq666anhrCPb6K7/yK9N+++03/eZv/ubYOSjGf5UvRIS8nNe8mu+8LlOhSzw23Iue0U3ZGhdEu8qQP33svvvuI6is5TW2PKa3ODM8e3imSEiUf/mXfxnbB6tPR2QJDxP9/+f//J9HYNvf/u3fnnbbbbefwlgbIXOCt7yKx1zn0fGsTPIclyNDkj9vb35d2+rzRqARaAQagUagEWgEGoFGoBFoBBqBnQOBn9liNP7ks/jOIc9OJ0UM/7/8y78cwUqf97znLStjyAEFxBKxqwzPDsb+3EhOrBFGNbJBPzV+iN1cEAAM+bSrDCKGF8Xb3/726T/+x/847klpH0GCROB9cemllw5yQP9IEkQCr4u5LFFo7kGyrKIr3Ki70CgWUqcSEnXZDvktr+GJEl3puYjQgdl55503nXvuuWOJjwQ/HiDaENT2MY95zIhhIiAtosh9MoVYontkJJu+1mt51Qqw9K1GoBFoBBqBRqARaAQagUagEWgEGoFdHIH2QJkNYCVB6i2eHmKELEohMarnAaP8iU984vSGN7xhxNiIoY8kUT7eGciTeLKEVGHYJ05IvFJCbohXYsmKIKvHH3/8IGrsimM5Dq8LxAOvCwTCOeecM2KZaEN72gh5gjiQH2KBXpXAWaTnavLqLjTKZwmLvvQPlyx5SVwRHjpJ5Al5QjdYqIMYuvrqq8cY6AM5Inis5TgC6z7wgQ8c5AnCSkyaJP3Sq5JG6uv7/PPPHx4sljPd+c53nh73uMctBQleja5dphFoBBqBRqARaAQagUagEWgEGoFG4LaDQHugzMY6HifJzjVvDp4PApvKY+iHMJmTLu7LQwT86Ec/ms4888zpd37nd8ZOMdX7Yj7NkAUS0qF6gyASEACM/fe85z3Tf/kv/2UEdxWXheFvC+B73eteY0nOv//3//6niJCq01zWyCB/Oc+PuZxbu17kdZI6IW3oVz1seIUgVuIdItBrdsixLbTyYqDQF2FiNyDxZX7+539+SRw41V14omslZHIf4fTRj3504OhPrBVj9fznP39r6vX9RqARaAQagUagEWgEGoFGoBFoBBqB2yAC7YEyG/TqReJWrhET4okkrxIRtU7IFYQHsgDJ8eIXv3jsLPN7v/d7gwCQL4XYYPgrp03eEq4Z/bYSFs8DkWBXHx4XAsgiEE4++eTpsY997PAwmS+9sZxFe1m6gjQQJ4SnB1kXkSjV82MGyZovESPxOKFHvD8QK+7Ru3qq6NvyqCuvvHIsPbr44ouHjJYe3ec+95mOOeaYEdhW/UVeMoL00tEf7KQQJRE+hJZrePHkgZHtpt3jffK0pz1tzbp2hUagEWgEGoFGoBFoBBqBRqARaAQagdsGAk2gzMZ5OYIBgcJQD+kxJ1o0wxAPceIaecDoR1ycfvrp05/92Z+NYKaCzIYIUAaZgPTIrjHXX3/9WJbjnqU4YnucddZZgxQQTFVw2r322msQKZK2EBbKkwExgCQISYFUsEVwUpVd+Ur6LBXaxhNEjb7IEv1DoOg3gW+RQ3bIcfzYxz425D3qqKPG0pxXv/rVY2kOuaTUr3qGoKFjXQIEIzpJjhkT1+SRtIOcgVPGk4eRZUCdGoFGoBFoBBqBRqARaAQagUagEWgEGoFFCDSBsgAVRndIhhAqd7jDHYaRjwAQYyPGeC2bc/cY5q4Z+EgUdSxBsZPMcccdN93//vcfWwjbUph3CY8IXhYCoNq+V/yUu9zlLj/VD48My1bIE4Ik2yQjFfSp/+qpEY+QSpxUUiO6LIBizVnIE7rXJTqW41gu84lPfGLEMZEQJHSxG9CJJ544AuLCiVyRLbooX7HNMp+53JZHIVCqx0twgA0c4gVDzpzD/qtf/epYEtSpEWgEGoFGoBFoBBqBRqARaAQagUagEViEQBMoC1BhrNfkmiHu+MMf/nAY6bwXpBjmzkNQJM5JvEIY7rxKBEJlqD/84Q+fDjzwwOmII44YniR/8Ad/MMiEGPTaivdFZNE2T5J/9+/+3SBO7KojuR8PDMSBcrVuJSRGhf+XQkgoGy+MEA+13LacIyS+8IUvTP/wD/8wCBMECm8ZOwCdcsop0+GHHz7kDz76yLIj5/LpESIqelU8a7nIneC0uae8cUPmCLor7ok273nPe45tpo2LgLyvec1rBnl1wgknbIu6XacRaAQagUagEWgEGoFGoBFoBBqBRuA2gEATKAsGmcEd74aQGrweLOOxY8td73rXJY8IxntikCAlkBwM+WuvvXbELuFhwvsCSYE4EbsE4cGIf8ITnjC8TfQhhYBxHQJBPiJAQtzsueeeozyPDck5kqAGUA2hUNsLCZT2ol8IlhA1IVZyjG4hNbTpXvqgF4LkM5/5zFiOI8jtbrvtNpYe7bPPPoOo2H333W+xzGYIviVVD5IQUvP8Suqk/PyY9upRmZSDjzgq/ipxhNB67WtfO7xgxEKpS4EWtdl5jUAj0Ag0Ao1AI9AINAKNQCPQCDQCt10EmkCZjT0DGwESUoOXgsTrw1bGgp26F68IBILdWy666KLppptumj71qU+NwK+W2Dz0oQ+d7ne/+41gr0iEpIMPPnh6xSteMXb1edaznjWWjiQ2iPbSJ08WKZ4V+kWiWH7Cc0IA2SxRSdDUED7qxbMk7YU8QCwgXOQjRKoXTeo4VhKikh033HDDiF8idglPE33zoLEzjhgtyJAaJDZ6V5JnCYxNPiED2b72ta+NoL5iocDRcqmQRZssUnfXCDQCjUAj0Ag0Ao1AI9AINAKNQCOwCyDQBMpskLIEJh4gSAxEgz9khWtkgp1ikCWCvQqc+shHPnIY4s997nOH54Xyc8LAtTbEMPmv//W/jroCyzLksx0vMiMkSl2SQkxtIkGQM5bJ8IiJvAidOXmiHffjiRLvEccQLvpTN8QJ3aqHiX6/9KUvTddcc80ghuitXzoecMABIygujxNtqMdTp8YdUT/kS/rckc9FZBGPBZHy9re/fZBA4tDYBvroo4/ekeJ1341AI9AINAKNQCPQCDQCjUAj0Ag0AjspAj+zxei9ZcCPnVTQzRJr7oWQeCbID1vdIhMY3JaD7L333iOWiWU1ln+IZ5L6CAkJsaCua4RIvEAQF9p23w47z3jGM4bnRkgT5epSHteJAXLqqaeO+CmMffVrn+mveo+ElAmR4hp5ENKEnPG4+eY3vzmCvX7kIx8ZBJF2xCt50IMeNJblHHTQQUPX6mESnRaNUV36E6+WReU2M894SHNCJ/hupizd1/RTRGPFhHcXctH8NBcrYdjYNQKNQCPQCDQCjUAj0Ag0Ao1AI7CZCDSBsgza1ZgOiaLohz70oen1r3/99J3vfGcYdVlGY6thgUgdESmIDG1k+cy8m3inaMOyoHPOOWd4sVgKUz1P5uSENs8+++wRlPXELbvXSJWsCdGSfudeKJGD1wxPEcuO/v7v/37EdrnqqquGXsgRy3H233//6ZBDDhlLjKqHSyVkYtSm3fSX65A2rue6pMxmHoN7JbL0HxIqHiqbKdNttS9zxZ+5mnPPQ5bQJT+kIMIrcy9eTrdV7FrvRqARaAQagUagEWgEGoFGoBHYfASaQFkB87ozDANbiuHG4GPM2ZVHoNhvf/vbI5jqlVdeOZbXCPLKO+VOd7rT2LLXtsUMQ0ahelkOhKxAMiAu7AYjX0DTBz7wgYPI0K86+fJOBiQOsuP0009fkn6R9wQZLalJgFbn3/3ud8fSITJeccUVg9SwFIe8tlBGnIQEiVdKjNq6BCgdx/Bl5PpL0m5IitRTdmcgKCJXyJRF2C0p0icbjoB5UedOxqU+f4TIdt3OU2bDhesOGoFGoBFoBBqBRqARaAQagUagEfh/CDSBsmAqVIO6Lh1QNNeMu7prC6KDEYgsUF+8kC9+8Ytj22JHBAkD8G53u9vwUEFYWIZz5zvf+RZeKgKzIjZ4iBx55JFjyYzEYAyRos0XvvCF01/91V8tLaVBCiiDdCGjso7Kfv7znx9BX8UxIafAqWSwLEc8E/WQO9FbW4vIjrS7ALJBlkjV42RRuR2dV8fWuXH8uZ/7uSFW9TTa0XLeFvrPfBJA2bOEXMs8cozXUwg848MLxdxczrPrtoBb69gINAKNQCPQCDQCjUAj0Ag0AjsGgSZQZrhnKQfjOoRIisw9F+RXz5RKMNSv6sogFhAo//AP/zDZxUaskUsuuWQQK5b+POABDxgxVSwB4tFy4YUXjlgkCBdLdSylifcKcoWXyqWXXjrd8Y53XDI6tWvL5A9+8IPTZz/72eHNYneZbNOLNKlbMJOLToxS5/EOWeQNMPcSWI4wifdKJVIW5e2Y6f7/e81Y7mg5buv9V0+SRZ5AGac6XnlGb+vYtf6NQCPQCDQCjUAj0Ag0Ao1AI7C5COwQAiXGuKMUgz1G0iIiotZJ+WpI1fvaCRkg33X1Dqn30tacINioYZgb7r6qX3/99dPnPve5sbWueCQ8Ru5+97sPckT8EaQLQuXRj370dMopp0w/+MEPppe85CXTmWeeOXbksZzn6quvHgFulbdlMi8TJIsdcqSdkcTYKIy73UagEWgEGoFGoBFoBBqBRqARaAQagUZgvRHYdAIlpEddLoEwQSzwmBCnIzvEMPrjqj/3CKlfrheRH/pRpwZkXUSyKCN/M4NS0pXOUo1vQpZ4mfBCQaZkKRASBXFiyQ3S5Hvf+95YgsNrxXIgwWf9SdqXEnsEVkijXvYwYOnUCDQCjUAj0Ag0Ao1AI9AINAKNQCPQCKwZgU0nUCJhjPoaVHQetBWpUb1RQgzIQ3rUrXRdS0iIORmSJTSJC4JYWOSFMg9auWY0V1FhtZ4glSCyZOdnf/ZnxzKbeNPQpQbVDMHkfrxc5p49qxCvizQCjUAj0Ag0Ao1AI9AINAKNQCPQCDQCjcACBDadQAmBEG+QSoqIxRHiIPEQFgX2DEGASOGxwsskXiSp54goqfE8lAkB4RgvEP3uiBSyIxiQwTmiJDvnRB/35ud0o0MIo0o2zfWhu/s7Ste5PH3dCDQCjUAj0Ag0Ao1AI9AINAKNQCPQCOxKCPz/fWc3Uep4gCAKPvCBD0xnn332LXp/5zvfOb3jHe8YeVmCg1iRkACCpz7lKU8ZMUN4ZvAmiQdKgpeGXFDn2muvnS666KJBpigbYqXGP1GOPJuRkCQhc4IFubLMJuQJnZEmUginH//4x0vET/SI3HWJjnrIpdyja5MnmzG63Ucj0Ag0Ao1AI9AINAKNQCPQCDQCjcCtEYFNJ1AY8iE7GPQCnQqaev7550/IAXE+BFR96EMfOraYTcpyHnXf/e53Dw+Nd73rXUtkguU8CIO0j1yoW57yZLEUBimhHyll5p4cGznQ0V2f/kL4IIbIGK+UbNlKB2SIesracjekC3JEG/FASV3yI2NgUpczxeNmI/XrthuBRqARaAQagUagEWgEGoFGoBFoBBqBWyMCm06gMOJDGiAGbne7202///u/P33605+ePvOZz0wvf/nLp/ve974jP54YyAPxPnhYXHnllYNkOOCAA6Zvfetb0w9/+MMxLsiEj3/849N55523RES85jWvmS644ILpn//5n6dvfOMbY8vgV77yldPv/u7vTm9961tvsbwnpMpGD3JIEzqEGNEn3XjbyIdPDX4bzxTkDyzilZKykdm1pEyIGtfJ7yCyQaqPjUAj0Ag0Ao1AI9AINAKNQCPQCDQCjcDaENh0AiVLaJAAvCwkXhV77LHHdMYZZ0zXXXfddOihh46lOVK8LFwjSz7xiU9Mhx122HTkkUeOOpdddtkox9PCLjRf/vKXx3a+b3rTmwZxwpMFIYG4sSzo5ptvnh7/+MdP//bf/ttbeHzc/va3XyIaRoMblMgRbxJYIFTiOeLoOrgQoS4r4o3ifo0Vo0yWN4Wcoa/zJO1WQmWDVOtmG4FGoBFoBBqBRqARaAQagUagEWgEGoFbLQKbTqDE+8QxJMkd73jHQXTYmvfkk0+eXEuW5CQ5R5JcddVVYymOc0tULrnkknEt2eJ3zz33nF71qldNH/7wh6d99913eHbYEthyoHvf+96DfEAoWDqkDXJUj5ilDjfohDyV3NBNZIgc1fukLsGpItV4JvPYJmkn5fU373OD1OtmG4FGoBFoBBqBRqARaAQagUagEWgEGoFbJQKbTqBAEZkRg56XiHTuuecOUuNtb3vbiIPC8yIxPJAnzs8888yxfOUtb3nLdNppp01XX331dOONN06CzsoPMSK47O677z7tt99+g6TZe++9p3/6p3+a7nnPe07/6T/9p+nNb37ziKOij3hvOOcR0qkRaAQagUagEWgEGoFGoBFoBBqBRqARaAQagTkCO4RAqV4Vlu8gRBApz3nOcwbp8drXvnaJzLCcRXkEByLF0p2zzjpreJn8zu/8znTMMcdMX/ziF5d24nn/+98/yBPxTnirIGt4tlg68+1vf3s6+uijRz88V3imIE2QKPFGmQPU141AI9AINAKNQCPQCDQCjUAj0Ag0Ao1AI9AIbDqBwkskwUwRIj/60Y+mr3/969PTn/706W53u9v0zGc+c5Aeb3/728foIDZ4q9hxx1KVZz3rWcOTRBuOj370o0e5iy++eBAlN91003TqqadOhx9++PT3f//3Y3mPYLR3uMMdpve85z0jqKyAsuqLh5IArdroXWoGlJ0agUagEWgEGoFGoBFoBBqBRqARaAQagUZghsCmEyghKUKk8BK5+93vPt3jHvcYZMnP//zPT0cdddQIpKosgsPyHPn777//iBeSIKvuaYfXyle+8pXpb/7mb0Y7Yp0cf/zx013ucpfps5/97NjR5s53vvN0wgknTDfccMMgZw466KBRT9KeIKu9S00/H41AI9AINAKNQCPQCDQCjUAj0Ag0Ao1AI7AIgZ/ZQkD8ZO/bRXc3MC9xTZAkzsUqsZQGKeIPocHzJEflQnAkL+LZ4jjLghxTttaxTbGdd7SpnwRzpX6CrsqfB2TdQAi66UagEWgEGoFGoBFoBBqBRqARaAQagUagEdhFENhhBAp8xDUJ8VGJDEFkbStcEy8UREdIFSRKXQ6E/BBoNkn5eVDYECS5h7jRHhnmpMwuMn4tZiPQCDQCjUAj0Ag0Ao1AI9AINAKNQCPQCGwCAjuEQJkTGTxFstVuJVXob3kNYgR5EmeZuk1vJV6ClzxtIkbmAWIRJZIyIVjEXBEnJV4xm4B7d9EINAKNQCPQCDQCjUAj0Ag0Ao1AI9AINAK7EAI7hEDZhfBpURuBRqARaAQagUagEWgEGoFGoBFoBBqBRqARmDY9iGxj3gg0Ao1AI9AINAKNQCPQCDQCjUAj0Ag0Ao3AroZAEyi72oi1vI1AI9AINAKNQCPQCDQCjUAj0Ag0Ao1AI7DpCOwQAiXbEGdLY3FJ7KSzKP3Lv/zLyBazJPFLbr755qWiiYuStlwLEpskromUdpZu9Ekj0Ag0Ao1AI9AINAKNQCPQCDQCjUAj0Ag0AqtEYIfFQEGY2Fa4puyOk6CuuScQrCCz2cZYPjIFaVK3Ha5BZivh4lzd3mlnlbOiizUCjUAj0Ag0Ao1AI9AINAKNQCPQCDQCjcAtENhwD5S5ZwgyREKWIEqkHOfbDkdS5IfyCJB4lyBUQp7Eo0XbIU4c7dajTfV5oKjTqRFoBBqBRqARaAQagUagEWgEGoFGoBFoBBqBtSKw7oxClswQ5Ec/+tGS10i8S0KS3O52txtbByNFHKXUzbV7N9544yA+bGXsqH5ImB//+MfDC+Xf/Jt/s7QFcbxMqreJvn/2Z392aQnQWkHq8o1AI9AINAKNQCPQCDQCjUAj0Ag0Ao1AI3DbRmBDlvDUpTSBNx4huf4//+f/TP/6X//rJfRzHyGSpTqVBEGuIFGS6jUPFCQKooTXSfU0WdTubXvIW/tGoBFoBBqBRqARaAQagUagEWgEGoFGoBFYKwIbQqCsVYgu3wg0Ao1AI9AINAKNQCPQCDQCjUAj0Ag0Ao3AzozAui/h2ZmVbdl2fgQS5yYxb6rEvJY6NQKNQCPQCDQCjUAj0Ag0Ao1AI9AINAI7AoH2QNkRqHefq0LAcq4s6ao7MK2qchdqBBqBRqARaAQagUagEWgEGoFGoBFoBNYRgSZQ1hHMbmr7EVhEmohjwyOlSZTtx7dbaAQagUagEWgEGoFGoBFoBBqBRqAR2DYEmkDZNty61iYgkJ2b0tX8ehNE6C4agUagEWgEGoFGoBFoBBqBRqARaAQagYFAx0DpibBTIYAkSeJ5wiOlUyPQCDQCjUAj0Ag0Ao1AI9AINAKNQCOwoxFoD5QdPQLd/y0QQJr4W7QVdUPVCDQCjUAj0Ag0Ao1AI9AINAKNQCPQCOwoBJpA2VHId78rIhAiRaGf+ZmfGWXt0POv/tW/WrFe32wEGoFGoBFoBBqBRqARaAQagUagEWgENgKBJlA2AtVusxFoBBqBRqARaAQagUagEWgEGoFGoBFoBG5VCHQMlFvVcLYyjUAj0Ag0Ao1AI9AINAKNQCPQCDQCjUAjsBEI/F/db/DO72XrigAAAABJRU5ErkJggg==;movable=0;resizable=0;rotatable=0;deletable=0;editable=0;locked=1;connectable=0;" parent="1" vertex="1">
          <mxGeometry x="-40" y="290" width="1104" height="370" as="geometry" />
        </mxCell>
        <mxCell id="JwQT5Q0UZtHEcBX8XBhR-9" value="" style="endArrow=classic;startArrow=classic;html=1;rounded=0;" parent="1" edge="1">
          <mxGeometry width="50" height="50" relative="1" as="geometry">
            <mxPoint x="179" y="459" as="sourcePoint" />
            <mxPoint x="502" y="407" as="targetPoint" />
          </mxGeometry>
        </mxCell>
        <mxCell id="JwQT5Q0UZtHEcBX8XBhR-10" value="&lt;div style=&quot;font-size: 14px;&quot;&gt;$$ L_{upstream} $$&lt;/div&gt;" style="text;html=1;align=center;verticalAlign=middle;whiteSpace=wrap;rounded=0;strokeWidth=6;strokeColor=none;fontSize=14;fontStyle=1" parent="1" vertex="1">
          <mxGeometry x="220" y="390" width="150" height="30" as="geometry" />
        </mxCell>
        <mxCell id="JwQT5Q0UZtHEcBX8XBhR-13" value="" style="curved=1;endArrow=classic;html=1;rounded=0;fillColor=#f8cecc;strokeColor=#b85450;" parent="1" edge="1">
          <mxGeometry width="50" height="50" relative="1" as="geometry">
            <mxPoint x="121" y="491" as="sourcePoint" />
            <mxPoint x="190" y="480" as="targetPoint" />
            <Array as="points">
              <mxPoint x="150" y="440" />
            </Array>
          </mxGeometry>
        </mxCell>
        <mxCell id="g3mOZYgXXhceDzJb8Eb7-2" value="" style="curved=1;endArrow=none;html=1;rounded=0;fillColor=#f8cecc;strokeColor=#b85450;endFill=0;startArrow=classic;startFill=1;" parent="1" edge="1">
          <mxGeometry width="50" height="50" relative="1" as="geometry">
            <mxPoint x="137" y="618" as="sourcePoint" />
            <mxPoint x="198" y="599" as="targetPoint" />
            <Array as="points">
              <mxPoint x="180" y="660" />
            </Array>
          </mxGeometry>
        </mxCell>
        <mxCell id="g3mOZYgXXhceDzJb8Eb7-3" value="&lt;div&gt;Precursor&lt;/div&gt;&lt;div&gt;1 Cell thick&lt;br&gt;&lt;/div&gt;" style="text;html=1;align=center;verticalAlign=middle;whiteSpace=wrap;rounded=0;fontFamily=Roman;fontSource=https%3A%2F%2Ffonts.googleapis.com%2Fcss%3Ffamily%3DRoman;" parent="1" vertex="1">
          <mxGeometry x="30" y="450" width="90" height="30" as="geometry" />
        </mxCell>
        <mxCell id="g3mOZYgXXhceDzJb8Eb7-4" value="" style="endArrow=classic;startArrow=classic;html=1;rounded=0;" parent="1" edge="1">
          <mxGeometry width="50" height="50" relative="1" as="geometry">
            <mxPoint x="520" y="402" as="sourcePoint" />
            <mxPoint x="959" y="332" as="targetPoint" />
          </mxGeometry>
        </mxCell>
        <mxCell id="g3mOZYgXXhceDzJb8Eb7-5" value="&lt;div style=&quot;font-size: 14px;&quot;&gt;$$ L_{downstream} $$&lt;/div&gt;" style="text;html=1;align=center;verticalAlign=middle;whiteSpace=wrap;rounded=0;strokeWidth=6;strokeColor=none;fontSize=14;fontStyle=1" parent="1" vertex="1">
          <mxGeometry x="600" y="330" width="150" height="30" as="geometry" />
        </mxCell>
        <mxCell id="g3mOZYgXXhceDzJb8Eb7-12" style="edgeStyle=orthogonalEdgeStyle;rounded=0;orthogonalLoop=1;jettySize=auto;html=1;exitX=0.5;exitY=0;exitDx=0;exitDy=0;" parent="1" source="g3mOZYgXXhceDzJb8Eb7-6" edge="1">
          <mxGeometry relative="1" as="geometry">
            <mxPoint x="744.8235294117649" y="440" as="targetPoint" />
          </mxGeometry>
        </mxCell>
        <mxCell id="g3mOZYgXXhceDzJb8Eb7-6" value="Main domain" style="text;html=1;align=center;verticalAlign=middle;whiteSpace=wrap;rounded=0;fontFamily=Roman;fontSource=https%3A%2F%2Ffonts.googleapis.com%2Fcss%3Ffamily%3DRoman;" parent="1" vertex="1">
          <mxGeometry x="700" y="560" width="90" height="30" as="geometry" />
        </mxCell>
        <mxCell id="g3mOZYgXXhceDzJb8Eb7-16" style="edgeStyle=orthogonalEdgeStyle;rounded=0;orthogonalLoop=1;jettySize=auto;html=1;exitX=0.5;exitY=0;exitDx=0;exitDy=0;" parent="1" source="g3mOZYgXXhceDzJb8Eb7-15" edge="1">
          <mxGeometry relative="1" as="geometry">
            <mxPoint x="524.8235294117649" y="510" as="targetPoint" />
          </mxGeometry>
        </mxCell>
        <mxCell id="g3mOZYgXXhceDzJb8Eb7-15" value="Orifice flow" style="text;html=1;align=center;verticalAlign=middle;whiteSpace=wrap;rounded=0;fontFamily=Roman;fontSource=https%3A%2F%2Ffonts.googleapis.com%2Fcss%3Ffamily%3DRoman;" parent="1" vertex="1">
          <mxGeometry x="480" y="570" width="90" height="30" as="geometry" />
        </mxCell>
        <mxCell id="g3mOZYgXXhceDzJb8Eb7-18" value="&lt;div&gt;Outlet&lt;/div&gt;" style="text;html=1;align=center;verticalAlign=middle;whiteSpace=wrap;rounded=0;fontFamily=Roman;fontSource=https%3A%2F%2Ffonts.googleapis.com%2Fcss%3Ffamily%3DRoman;" parent="1" vertex="1">
          <mxGeometry x="930" y="450" width="90" height="30" as="geometry" />
        </mxCell>
        <mxCell id="Le5qQD_TySKTt7-1PreQ-12" value="" style="group" vertex="1" connectable="0" parent="1">
          <mxGeometry x="30" y="340" width="67" height="74" as="geometry" />
        </mxCell>
        <mxCell id="Le5qQD_TySKTt7-1PreQ-1" value="" style="endArrow=classic;html=1;rounded=0;endFill=1;" edge="1" parent="Le5qQD_TySKTt7-1PreQ-12">
          <mxGeometry width="50" height="50" relative="1" as="geometry">
            <mxPoint x="30" y="54" as="sourcePoint" />
            <mxPoint x="6" y="53" as="targetPoint" />
          </mxGeometry>
        </mxCell>
        <mxCell id="Le5qQD_TySKTt7-1PreQ-2" value="" style="endArrow=classic;html=1;rounded=0;endFill=1;" edge="1" parent="Le5qQD_TySKTt7-1PreQ-12">
          <mxGeometry width="50" height="50" relative="1" as="geometry">
            <mxPoint x="30" y="54" as="sourcePoint" />
            <mxPoint x="60" y="47" as="targetPoint" />
          </mxGeometry>
        </mxCell>
        <mxCell id="Le5qQD_TySKTt7-1PreQ-3" value="" style="endArrow=classic;html=1;rounded=0;endFill=1;" edge="1" parent="Le5qQD_TySKTt7-1PreQ-12">
          <mxGeometry width="50" height="50" relative="1" as="geometry">
            <mxPoint x="30" y="54" as="sourcePoint" />
            <mxPoint x="29" y="12" as="targetPoint" />
          </mxGeometry>
        </mxCell>
        <mxCell id="Le5qQD_TySKTt7-1PreQ-4" value="&lt;b&gt;&lt;font style=&quot;font-size: 14px;&quot;&gt;z&lt;/font&gt;&lt;/b&gt;" style="text;html=1;align=center;verticalAlign=middle;whiteSpace=wrap;rounded=0;horizontal=1;fontFamily=Roman;fontSource=https%3A%2F%2Ffonts.googleapis.com%2Fcss%3Ffamily%3DRoman;rotation=0;" vertex="1" parent="Le5qQD_TySKTt7-1PreQ-12">
          <mxGeometry x="41" y="44" width="26" height="30" as="geometry" />
        </mxCell>
        <mxCell id="Le5qQD_TySKTt7-1PreQ-6" value="&lt;b&gt;y&lt;/b&gt;" style="text;html=1;align=center;verticalAlign=middle;whiteSpace=wrap;rounded=0;horizontal=1;fontFamily=Roman;fontSource=https%3A%2F%2Ffonts.googleapis.com%2Fcss%3Ffamily%3DRoman;rotation=0;" vertex="1" parent="Le5qQD_TySKTt7-1PreQ-12">
          <mxGeometry x="29" width="26" height="30" as="geometry" />
        </mxCell>
        <mxCell id="Le5qQD_TySKTt7-1PreQ-7" value="&lt;b&gt;x&lt;/b&gt;" style="text;html=1;align=center;verticalAlign=middle;whiteSpace=wrap;rounded=0;horizontal=1;fontFamily=Roman;fontSource=https%3A%2F%2Ffonts.googleapis.com%2Fcss%3Ffamily%3DRoman;rotation=0;" vertex="1" parent="Le5qQD_TySKTt7-1PreQ-12">
          <mxGeometry y="25" width="26" height="30" as="geometry" />
        </mxCell>
      </root>
    </mxGraphModel>
  </diagram>
</mxfile>
